<svg width="256" height="256" viewBox="0 0 256 256" fill="none" xmlns="http://www.w3.org/2000/svg">
<rect width="256" height="256" rx="64" fill="#F0F8F9"/>
<path d="M127.021 214C142.294 214 154.676 201.561 154.676 186.217C154.676 170.873 142.294 158.434 127.021 158.434C111.749 158.434 99.3673 170.873 99.3673 186.217C99.3673 201.561 111.749 214 127.021 214Z" stroke="#156064" stroke-width="12.0882"/>
<path d="M194.346 137.81C209.619 137.81 222 125.371 222 110.027C222 94.6828 209.619 82.2439 194.346 82.2439C179.073 82.2439 166.692 94.6828 166.692 110.027C166.692 125.371 179.073 137.81 194.346 137.81Z" stroke="#156064" stroke-width="12.0882"/>
<path d="M194.143 117.525C198.631 117.525 202.269 114.044 202.269 109.751C202.269 105.457 198.631 101.976 194.143 101.976C189.656 101.976 186.018 105.457 186.018 109.751C186.018 114.044 189.656 117.525 194.143 117.525Z" fill="#156064"/>
<path d="M76.9401 55.0525C86.5273 71.3097 79.6033 82.1478 74.9429 85.5347C71.3923 88.47 60.5136 92.1121 49.3288 85.0674C51.8797 81.2231 54.4307 79.6213 53.1552 78.0195C51.158 77.3421 51.8797 78.0195 45.8211 82.8249C44.4896 82.8249 41.3885 80.3866 40.3234 76.0513C40.1014 75.1481 38.326 73.2063 33 72.6644C34.5534 58.2136 45.5163 32.5634 76.9401 45.5691C77.384 46.4723 78.0054 49.6335 76.9401 55.0525Z" fill="#156064" stroke="black" stroke-width="0.464931"/>
<path d="M102.227 144.206C86.2011 144.206 72.4006 123.264 67.5038 112.793C63.5114 105.441 68.8393 86.0588 89.5399 86.0588C106.1 86.0588 117.808 76.2563 121.592 71.355C132.811 66.5428 133.835 75.588 132.944 80.7121C112.244 104.104 104.898 102.099 100.892 102.768C97.6866 103.302 97.3304 106.555 97.5529 108.115C97.9982 108.56 99.2891 110.387 100.892 114.13C102.494 117.872 106.902 116.58 108.905 115.466L128.27 108.115C136.283 105.976 140.957 108.115 142.293 109.451L168.336 142.201C169.404 155.033 160.322 155.568 155.648 154.231L134.28 130.839C115.583 142.602 105.121 144.651 102.227 144.206Z" fill="#156064" stroke="black" stroke-width="0.464931"/>
<path d="M138.81 83.11C136.821 81.7612 133.505 88.5054 132.842 89.1798C132.179 89.8542 136.821 88.5054 138.81 91.2032C140.799 93.9009 140.136 95.2496 137.484 97.273C134.831 99.2961 136.821 99.9705 137.484 99.9705C138.147 99.9705 142.125 99.9705 143.451 98.6217C144.512 97.5426 145.662 99.0713 146.104 99.9705C147.209 102.893 150.215 109.682 153.398 113.459C156.581 117.236 156.492 114.583 156.05 112.785C155.387 110.312 153.796 104.422 152.735 100.645C151.674 96.8682 154.061 97.273 155.387 97.9474L185.89 110.761C186.774 108.738 188.542 104.557 188.542 104.017C188.542 103.343 140.799 84.4589 138.81 83.11Z" fill="#156064"/>
<path d="M122.232 147.18C122.763 142.864 117.59 144.932 114.938 146.506C113.347 148.664 114.938 149.204 115.601 150.552L120.906 182.925L133.505 184.274C139.252 177.979 151.011 165.12 152.072 164.041C153.398 162.692 153.398 162.018 151.409 159.32C149.817 157.162 147.651 158.421 146.767 159.32C142.788 164.041 134.035 174.292 130.852 177.529C127.67 180.767 126.874 177.529 126.874 176.855L122.232 147.18Z" fill="#156064"/>
<path d="M127.022 195.935C131.509 195.935 135.147 192.281 135.147 187.772C135.147 183.264 131.509 179.609 127.022 179.609C122.534 179.609 118.896 183.264 118.896 187.772C118.896 192.281 122.534 195.935 127.022 195.935Z" fill="#156064"/>
<path d="M38.7397 69.5511C37.3887 65.2964 49.2625 36.8742 73.497 49.0479C72.5403 59.2995 45.6794 71.0629 38.7397 69.5511Z" fill="#00C49A" stroke="black" stroke-width="0.464931"/>
</svg>
