<svg width="927" height="429" viewBox="0 0 927 429" fill="none" xmlns="http://www.w3.org/2000/svg">
<path d="M57.264 229.123C55.3615 229.25 53.3321 229.314 51.1761 229.314C49.0198 229.314 45.8174 229.155 41.5686 228.838V278.302H16.3611V151.123C25.2392 149.981 36.1467 149.41 49.0833 149.41C66.7129 149.41 79.8398 152.676 88.4641 159.208C97.1521 165.676 101.496 175.696 101.496 189.267C101.496 199.794 97.5326 208.799 89.6057 216.282C87.0055 218.691 84.0252 220.784 80.6641 222.56L100.069 263.463C103.874 271.897 106.791 276.907 108.82 278.491L108.345 278.967C102.194 277.953 92.5226 277.985 79.3325 279.062L57.264 229.123ZM50.8906 171.859C47.6564 171.859 44.5492 172.018 41.5686 172.335V208.672C44.6761 209.116 48.3224 209.338 52.5078 209.338C56.6932 209.338 60.2126 208.989 63.0663 208.292C65.92 207.53 68.3932 206.389 70.4858 204.867C74.9884 201.506 77.2396 196.465 77.2396 189.743C77.2396 183.02 74.8933 178.296 70.2005 175.569C65.8248 173.096 59.3882 171.859 50.8906 171.859ZM322.56 272.404C313.557 277.287 305.409 279.729 298.114 279.729C290.823 279.729 284.575 279.062 279.376 277.731C274.176 276.336 269.768 274.307 266.153 271.643C258.797 266.253 255.119 258.453 255.119 248.243C255.119 239.111 259.622 231.501 268.626 225.414C278.394 218.818 291.646 215.521 308.389 215.521L312.193 215.616C312.953 215.679 313.81 215.743 314.762 215.806C315.711 215.806 316.568 215.869 317.328 215.996C316.822 205.85 312.447 199.921 304.203 198.208C301.476 197.638 298.559 197.352 295.451 197.352C292.406 197.352 289.395 197.638 286.414 198.208C283.498 198.716 280.642 199.413 277.854 200.301C271.702 202.267 267.295 204.518 264.631 207.055L264.346 206.865L261.492 185.842C272.717 179.945 284.987 176.996 298.306 176.996C318.979 176.996 332.201 184.447 337.97 199.35C339.809 204.106 340.731 209.465 340.731 215.426V249.86C340.731 257.216 343.33 262.226 348.529 264.89L331.313 280.678C327.698 278.778 324.781 276.019 322.56 272.404ZM317.426 233.118C315.711 232.801 313.936 232.643 312.099 232.643H308.292C294.279 232.643 285.368 235.75 281.564 241.965C280.423 243.804 279.852 245.738 279.852 247.767C279.852 249.797 280.2 251.604 280.898 253.19C281.658 254.711 282.894 255.98 284.608 256.994C287.906 258.897 292.787 259.848 299.255 259.848C305.787 259.848 311.876 258.294 317.52 255.187C317.456 254.489 317.426 253.76 317.426 252.999V233.118ZM438.707 272.975C430.653 277.477 422.599 279.729 414.545 279.729C406.491 279.729 399.452 278.46 393.427 275.924C387.402 273.387 382.267 269.899 378.017 265.46C369.268 256.328 364.89 244.47 364.89 229.884C364.89 214.792 369.963 202.235 380.11 192.216C390.321 182.069 403.385 176.996 419.301 176.996C424.185 176.996 428.972 177.63 433.664 178.898V136.569H456.969V238.255C456.969 246.689 457.35 252.207 458.11 254.806C458.936 257.407 459.824 259.309 460.773 260.514C461.789 261.719 463.058 262.86 464.58 263.938L446.697 279.729C443.399 277.953 440.736 275.702 438.707 272.975ZM419.017 257.85C424.344 257.85 429.225 256.836 433.664 254.806V202.109C429.225 200.27 424.405 199.35 419.206 199.35C414.005 199.35 409.535 200.047 405.795 201.443C402.116 202.838 398.946 204.772 396.282 207.245C390.7 212.445 387.911 219.199 387.911 227.506C387.911 236.575 390.446 243.804 395.52 249.194C400.975 254.965 408.806 257.85 419.017 257.85ZM512.521 278.872C509.476 278.491 503.612 278.302 494.924 278.302H487.315V151.408C491.373 151.662 495.842 151.789 500.726 151.789C505.608 151.789 509.064 151.535 511.093 151.028L543.056 205.343L573.781 151.028C575.809 151.535 579.678 151.789 585.386 151.789C591.094 151.789 595.975 151.662 600.033 151.408V278.302H592.424C583.735 278.302 577.872 278.491 574.827 278.872V193.643L543.721 249.289L512.521 198.113V278.872ZM696.584 272.404C687.578 277.287 679.43 279.729 672.138 279.729C664.844 279.729 658.599 279.062 653.397 277.731C648.198 276.336 643.79 274.307 640.175 271.643C632.82 266.253 629.14 258.453 629.14 248.243C629.14 239.111 633.643 231.501 642.649 225.414C652.415 218.818 665.668 215.521 682.41 215.521L686.215 215.616C686.977 215.679 687.831 215.743 688.783 215.806C689.735 215.806 690.592 215.869 691.352 215.996C690.845 205.85 686.468 199.921 678.225 198.208C675.497 197.638 672.581 197.352 669.475 197.352C666.43 197.352 663.419 197.638 660.438 198.208C657.519 198.716 654.666 199.413 651.875 200.301C645.724 202.267 641.316 204.518 638.653 207.055L638.369 206.865L635.514 185.842C646.74 179.945 659.011 176.996 672.327 176.996C693 176.996 706.222 184.447 711.994 199.35C713.833 204.106 714.752 209.465 714.752 215.426V249.86C714.752 257.216 717.351 262.226 722.552 264.89L705.334 280.678C701.722 278.778 698.802 276.019 696.584 272.404ZM691.447 233.118C689.735 232.801 687.959 232.643 686.12 232.643H682.316C668.3 232.643 659.392 235.75 655.585 241.965C654.444 243.804 653.873 245.738 653.873 247.767C653.873 249.797 654.221 251.604 654.919 253.19C655.682 254.711 656.918 255.98 658.629 256.994C661.927 258.897 666.811 259.848 673.279 259.848C679.811 259.848 685.897 258.294 691.541 255.187C691.48 254.489 691.447 253.76 691.447 252.999V233.118ZM788.663 257.375C796.842 257.375 802.456 255.25 805.5 251.001H806.26L806.547 273.07C803.438 276.178 797.666 278.238 789.233 279.254C786.951 279.571 784.096 279.729 780.673 279.729C777.311 279.729 773.632 279.095 769.638 277.826C765.706 276.558 762.344 274.497 759.555 271.643C753.783 265.746 750.897 256.519 750.897 243.962V200.777H736.534C736.473 198.938 736.44 197.067 736.44 195.165V180.516C736.44 179.438 736.473 178.898 736.534 178.898H750.897V151.789H774.202V178.898H800.363V200.777H774.202V239.587C774.202 249.543 776.963 255.219 782.479 256.614C784.255 257.121 786.317 257.375 788.663 257.375ZM821.194 229.409C821.194 221.989 822.463 215.109 824.998 208.767C827.536 202.426 831.118 196.877 835.749 192.121C845.64 182.038 858.578 176.996 874.558 176.996C888.067 176.996 898.91 181.467 907.092 190.408C915.143 199.033 919.17 209.877 919.17 222.94C919.17 227.95 918.791 231.375 918.029 233.214C911.689 234.989 898.782 235.877 879.314 235.877H845.832C847.479 242.662 851.317 247.958 857.342 251.763C863.365 255.504 871.196 257.375 880.837 257.375C890.919 257.375 899.575 255.568 906.805 251.953C908.709 251.002 910.133 250.114 911.085 249.289C910.957 251.953 910.801 254.68 910.609 257.47L909.563 272.309C904.743 275.607 896.945 277.89 886.163 279.159C882.993 279.537 879.949 279.729 877.032 279.729C860.924 279.729 847.607 275.036 837.079 265.65C826.49 256.202 821.194 244.121 821.194 229.409ZM893.87 217.423C891.267 203.789 883.848 196.972 871.608 196.972C861.97 196.972 854.646 201.126 849.636 209.433C848.114 211.97 846.942 214.76 846.116 217.804C847.638 217.867 849.508 217.931 851.729 217.994H858.767C861.113 218.058 863.365 218.089 865.522 218.089H870.943C874.177 218.089 877.35 218.058 880.455 217.994L888.256 217.709C890.349 217.645 892.219 217.55 893.87 217.423Z" fill="#4D4C4C"/>
<path d="M285.676 121.875C292.712 121.875 298.417 116.442 298.417 109.741C298.417 103.039 292.712 97.6069 285.676 97.6069C278.639 97.6069 272.935 103.039 272.935 109.741C272.935 116.442 278.639 121.875 285.676 121.875Z" fill="#00C49A"/>
<path d="M180.427 272.447C204.376 272.447 223.79 253.033 223.79 229.085C223.79 205.136 204.376 185.722 180.427 185.722C156.479 185.722 137.065 205.136 137.065 229.085C137.065 253.033 156.479 272.447 180.427 272.447Z" stroke="#00C49A" stroke-width="13.9872"/>
<path d="M285.993 153.535C309.941 153.535 329.355 134.121 329.355 110.172C329.355 86.2241 309.941 66.8102 285.993 66.8102C262.045 66.8102 242.631 86.2241 242.631 110.172C242.631 134.121 262.045 153.535 285.993 153.535Z" stroke="#00C49A" stroke-width="13.9872"/>
<path d="M101.899 24.3716C116.932 49.7448 106.075 66.6602 98.7672 71.9463C93.1998 76.5274 76.1418 82.2119 58.6038 71.217C62.6038 65.217 66.6038 62.717 64.6038 60.217C61.472 59.1597 62.6038 60.217 53.1038 67.717C51.016 67.717 46.1534 63.9115 44.4833 57.1451C44.1351 55.7355 41.3513 52.7048 33 51.859C35.4357 29.3052 52.6258 -10.7281 101.899 9.5705C102.595 10.9802 103.569 15.9139 101.899 24.3716Z" fill="#00C49A" stroke="#00C49A" stroke-width="0.537971"/>
<path d="M141.55 163.516C116.42 163.516 94.7808 130.832 87.1025 114.489C80.8424 103.015 89.1967 72.7642 121.656 72.7642C147.623 72.7642 165.981 57.4651 171.914 49.8154C189.505 42.3049 191.111 56.422 189.714 64.4193C157.255 100.929 145.738 97.7991 139.456 98.8422C134.43 99.6768 133.871 104.753 134.22 107.187C134.918 107.883 136.942 110.734 139.456 116.575C141.969 122.417 148.879 120.4 152.02 118.662L182.385 107.187C194.95 103.849 202.279 107.187 204.373 109.274L245.209 160.387C246.884 180.415 232.644 181.249 225.314 179.163L191.809 142.654C162.491 161.013 146.087 164.212 141.55 163.516Z" fill="#00C49A" stroke="#00C49A" stroke-width="0.537971"/>
<path d="M198.912 68.162C195.792 66.0569 190.593 76.5828 189.554 77.6354C188.514 78.6879 195.792 76.5828 198.912 80.7932C202.031 85.0037 200.991 87.1088 196.832 90.2666C192.673 93.4243 195.792 94.4768 196.832 94.4768C197.872 94.4768 204.11 94.4768 206.19 92.3717C207.853 90.6874 209.656 93.0733 210.349 94.4768C212.082 99.0382 216.795 109.634 221.786 115.529C226.777 121.423 226.638 117.283 225.945 114.476C224.905 110.617 222.41 101.424 220.746 95.5296C219.083 89.6349 222.826 90.2666 224.905 91.3192L272.734 111.319C274.12 108.161 276.893 101.634 276.893 100.793C276.893 99.7398 202.031 70.2673 198.912 68.162Z" fill="#00C49A"/>
<path d="M172.918 168.159C173.75 161.422 165.639 164.65 161.48 167.106C158.985 170.475 161.48 171.317 162.52 173.422L170.838 223.946L190.593 226.052C199.604 216.227 218.043 196.158 219.706 194.474C221.786 192.369 221.786 191.316 218.667 187.106C216.171 183.737 212.775 185.702 211.388 187.106C205.15 194.474 191.425 210.473 186.434 215.526C181.444 220.578 180.196 215.526 180.196 214.473L172.918 168.159Z" fill="#00C49A"/>
<path d="M180.428 244.253C187.464 244.253 193.168 238.549 193.168 231.512C193.168 224.476 187.464 218.771 180.428 218.771C173.391 218.771 167.687 224.476 167.687 231.512C167.687 238.549 173.391 244.253 180.428 244.253Z" fill="#00C49A"/>
<path d="M42 47C39.8815 40.3596 58.4999 -4 96.4999 15C94.9999 31 52.8815 49.3596 42 47Z" fill="#FEFEFE" stroke="white" stroke-width="0.537971"/>
<path d="M101.977 350.07C101.63 350.69 101.457 352.176 101.457 354.527V363.004C101.457 365.574 100.126 367.807 97.4648 369.703C94.7122 371.69 91.3398 372.684 87.3477 372.684C81.806 372.684 77.3854 370.943 74.0859 367.461C70.8958 364.143 69.3008 359.914 69.3008 354.773C69.3008 349.305 70.9232 344.747 74.168 341.102C77.7956 337 82.7904 334.949 89.1523 334.949C93.3997 334.949 96.763 335.77 99.2422 337.41L98.8047 345.477L98.5859 345.531C97.9479 344.419 96.6901 343.508 94.8125 342.797C93.026 342.122 91.1484 341.785 89.1797 341.785C87.2292 341.785 85.5156 342.095 84.0391 342.715C82.5807 343.335 81.3411 344.219 80.3203 345.367C78.1693 347.719 77.0938 350.827 77.0938 354.691C77.0938 358.064 78.0417 360.771 79.9375 362.812C81.8333 364.836 84.276 365.848 87.2656 365.848C90.5651 365.848 92.7891 364.991 93.9375 363.277C94.3021 362.73 94.4844 362.111 94.4844 361.418V356.879H90.957C89.0612 356.879 88.0312 357.043 87.8672 357.371L87.7852 357.344L87.5391 350.207C88.0495 350.353 90.1185 350.426 93.7461 350.426H96.9727C98.9779 350.426 100.618 350.289 101.895 350.016L101.977 350.07ZM108.094 357.945C108.094 355.812 108.458 353.835 109.188 352.012C109.917 350.189 110.947 348.594 112.278 347.227C115.121 344.328 118.84 342.879 123.434 342.879C127.317 342.879 130.434 344.164 132.785 346.734C135.1 349.214 136.258 352.331 136.258 356.086C136.258 357.526 136.149 358.51 135.93 359.039C134.107 359.549 130.397 359.805 124.801 359.805H115.176C115.65 361.755 116.753 363.277 118.485 364.371C120.216 365.447 122.468 365.984 125.238 365.984C128.137 365.984 130.625 365.465 132.703 364.426C133.25 364.152 133.66 363.897 133.934 363.66C133.897 364.426 133.852 365.21 133.797 366.012L133.496 370.277C132.111 371.225 129.869 371.882 126.77 372.246C125.858 372.355 124.983 372.41 124.145 372.41C119.514 372.41 115.686 371.061 112.66 368.363C109.616 365.647 108.094 362.174 108.094 357.945ZM128.985 354.5C128.237 350.581 126.104 348.621 122.586 348.621C119.815 348.621 117.71 349.815 116.27 352.203C115.832 352.932 115.495 353.734 115.258 354.609C115.695 354.628 116.233 354.646 116.871 354.664H118.895C119.569 354.682 120.216 354.691 120.836 354.691H122.395C123.324 354.691 124.236 354.682 125.129 354.664L127.371 354.582C127.973 354.564 128.511 354.536 128.985 354.5ZM150.442 364.098C150.442 368.199 150.515 370.833 150.66 372H143.524V343.426H150.442V345.887C152.939 343.882 155.5 342.879 158.125 342.879C161.224 342.879 163.476 344.219 164.879 346.898C166.283 345.458 167.45 344.51 168.379 344.055C169.929 343.271 171.478 342.879 173.028 342.879C174.595 342.879 175.926 343.143 177.02 343.672C178.114 344.201 179.016 344.948 179.727 345.914C181.167 347.865 181.887 350.544 181.887 353.953V364.836C181.887 367.917 181.933 369.767 182.024 370.387C182.115 371.007 182.233 371.408 182.379 371.59C182.543 371.772 182.68 371.936 182.789 372.082L182.735 372.191C181.276 372.064 180.201 372 179.508 372H177.457C176.783 372 175.953 372.027 174.969 372.082V357.289C174.969 353.023 174.313 350.49 173 349.688C172.563 349.432 172.043 349.305 171.442 349.305C170.858 349.305 170.339 349.378 169.883 349.523C169.427 349.651 168.999 349.87 168.598 350.18C167.923 350.672 167.158 351.638 166.301 353.078C166.319 353.224 166.328 353.37 166.328 353.516C166.328 353.661 166.328 356.068 166.328 360.734C166.328 365.401 166.438 369.156 166.657 372C165.107 372 163.785 372 162.692 372C161.616 372 160.586 372.027 159.602 372.082V357.262C159.602 354.29 159.42 352.358 159.055 351.465C158.709 350.572 158.335 349.988 157.934 349.715C157.533 349.441 157.041 349.305 156.457 349.305C154.051 349.305 152.046 350.462 150.442 352.777V364.098ZM189.29 357.945C189.29 355.812 189.654 353.835 190.383 352.012C191.112 350.189 192.142 348.594 193.473 347.227C196.317 344.328 200.036 342.879 204.629 342.879C208.512 342.879 211.629 344.164 213.981 346.734C216.296 349.214 217.454 352.331 217.454 356.086C217.454 357.526 217.344 358.51 217.125 359.039C215.303 359.549 211.593 359.805 205.997 359.805H196.372C196.846 361.755 197.948 363.277 199.68 364.371C201.412 365.447 203.663 365.984 206.434 365.984C209.332 365.984 211.821 365.465 213.899 364.426C214.446 364.152 214.856 363.897 215.129 363.66C215.093 364.426 215.047 365.21 214.993 366.012L214.692 370.277C213.306 371.225 211.064 371.882 207.965 372.246C207.054 372.355 206.179 372.41 205.34 372.41C200.71 372.41 196.882 371.061 193.856 368.363C190.812 365.647 189.29 362.174 189.29 357.945ZM210.18 354.5C209.433 350.581 207.3 348.621 203.782 348.621C201.011 348.621 198.905 349.815 197.465 352.203C197.028 352.932 196.691 353.734 196.454 354.609C196.891 354.628 197.429 354.646 198.067 354.664H200.09C200.765 354.682 201.412 354.691 202.032 354.691H203.59C204.52 354.691 205.431 354.682 206.325 354.664L208.567 354.582C209.168 354.564 209.706 354.536 210.18 354.5ZM223.38 335.277C224.838 332.999 226.36 330.993 227.946 329.262L233.825 333.883C233.041 334.849 232.312 335.797 231.637 336.727C231.637 336.727 230.936 337.72 229.532 339.707L223.38 335.277ZM230.571 368.938C230.571 370.505 230.607 371.526 230.68 372H223.735V343.426H230.571V368.938ZM246.341 368.5C246.341 370.104 246.414 371.271 246.559 372H239.696V343.426H246.341V345.859C248.747 343.872 251.317 342.879 254.052 342.879C257.041 342.879 259.429 343.9 261.216 345.941C263.002 347.965 263.895 350.635 263.895 353.953V364.836C263.895 367.917 263.941 369.767 264.032 370.387C264.123 371.007 264.242 371.408 264.387 371.59C264.552 371.772 264.688 371.936 264.798 372.082L264.743 372.191C263.266 372.064 262.191 372 261.516 372H259.602C259.019 372 258.235 372.027 257.251 372.082V357.18C257.251 351.839 255.628 349.168 252.384 349.168C249.977 349.168 247.963 350.408 246.341 352.887V368.5ZM282.372 372.41C277.231 372.41 273.358 371.471 270.751 369.594C270.787 369.047 270.842 368.427 270.915 367.734L271.161 365.766C271.307 364.471 271.398 363.669 271.435 363.359C271.471 363.031 271.498 362.858 271.517 362.84C271.535 362.803 271.681 362.949 271.954 363.277C272.227 363.587 272.747 363.97 273.513 364.426C274.278 364.882 275.162 365.283 276.165 365.629C278.334 366.376 280.595 366.75 282.946 366.75C286.1 366.75 287.677 365.702 287.677 363.605C287.677 362.931 287.376 362.43 286.774 362.102C285.699 361.555 284.113 361.145 282.017 360.871C279.938 360.579 278.234 360.16 276.903 359.613C275.573 359.066 274.488 358.41 273.649 357.645C272.1 356.204 271.325 354.318 271.325 351.984C271.325 349.141 272.419 346.908 274.606 345.285C276.776 343.681 279.774 342.879 283.602 342.879C287.394 342.879 290.63 343.954 293.31 346.105C293.182 346.579 293.045 347.035 292.899 347.473C292.48 348.676 292.17 349.542 291.97 350.07L291.341 351.684C291.304 351.829 291.277 351.902 291.259 351.902C291.222 351.902 291.076 351.711 290.821 351.328C289.673 349.997 287.886 349.122 285.462 348.703C284.714 348.557 283.949 348.484 283.165 348.484C279.847 348.484 278.188 349.487 278.188 351.492C278.188 352.185 278.535 352.714 279.227 353.078C280.522 353.771 282.29 354.281 284.532 354.609C286.793 354.938 288.506 355.384 289.673 355.949C290.839 356.496 291.778 357.161 292.489 357.945C293.802 359.367 294.458 361.254 294.458 363.605C294.458 366.176 293.428 368.263 291.368 369.867C289.217 371.562 286.218 372.41 282.372 372.41ZM320.509 370.305C317.92 371.708 315.578 372.41 313.482 372.41C311.385 372.41 309.59 372.219 308.095 371.836C306.6 371.435 305.333 370.852 304.294 370.086C302.179 368.536 301.122 366.294 301.122 363.359C301.122 360.734 302.416 358.547 305.005 356.797C307.812 354.901 311.622 353.953 316.435 353.953L317.528 353.98C317.747 353.999 317.993 354.017 318.267 354.035C318.54 354.035 318.786 354.053 319.005 354.09C318.859 351.173 317.601 349.469 315.232 348.977C314.448 348.812 313.609 348.73 312.716 348.73C311.841 348.73 310.975 348.812 310.118 348.977C309.28 349.122 308.459 349.323 307.657 349.578C305.889 350.143 304.622 350.79 303.857 351.52L303.775 351.465L302.954 345.422C306.181 343.727 309.708 342.879 313.536 342.879C319.479 342.879 323.28 345.021 324.939 349.305C325.467 350.672 325.732 352.212 325.732 353.926V363.824C325.732 365.939 326.479 367.379 327.974 368.145L323.025 372.684C321.985 372.137 321.147 371.344 320.509 370.305ZM319.032 359.012C318.54 358.921 318.03 358.875 317.501 358.875H316.407C312.379 358.875 309.818 359.768 308.724 361.555C308.396 362.083 308.232 362.639 308.232 363.223C308.232 363.806 308.332 364.326 308.532 364.781C308.751 365.219 309.107 365.583 309.599 365.875C310.547 366.422 311.95 366.695 313.81 366.695C315.687 366.695 317.437 366.249 319.06 365.355C319.041 365.155 319.032 364.945 319.032 364.727V359.012ZM342.513 364.098C342.513 368.199 342.586 370.833 342.732 372H335.595V343.426H342.513V345.887C345.01 343.882 347.572 342.879 350.197 342.879C353.296 342.879 355.547 344.219 356.95 346.898C358.354 345.458 359.521 344.51 360.45 344.055C362 343.271 363.549 342.879 365.099 342.879C366.667 342.879 367.997 343.143 369.091 343.672C370.185 344.201 371.087 344.948 371.798 345.914C373.238 347.865 373.958 350.544 373.958 353.953V364.836C373.958 367.917 374.004 369.767 374.095 370.387C374.186 371.007 374.305 371.408 374.45 371.59C374.615 371.772 374.751 371.936 374.861 372.082L374.806 372.191C373.348 372.064 372.272 372 371.579 372H369.529C368.854 372 368.025 372.027 367.04 372.082V357.289C367.04 353.023 366.384 350.49 365.072 349.688C364.634 349.432 364.115 349.305 363.513 349.305C362.93 349.305 362.41 349.378 361.954 349.523C361.499 349.651 361.07 349.87 360.669 350.18C359.995 350.672 359.229 351.638 358.372 353.078C358.391 353.224 358.4 353.37 358.4 353.516C358.4 353.661 358.4 356.068 358.4 360.734C358.4 365.401 358.509 369.156 358.728 372C357.178 372 355.857 372 354.763 372C353.687 372 352.658 372.027 351.673 372.082V357.262C351.673 354.29 351.491 352.358 351.126 351.465C350.78 350.572 350.406 349.988 350.005 349.715C349.604 349.441 349.112 349.305 348.529 349.305C346.122 349.305 344.117 350.462 342.513 352.777V364.098ZM424.802 337.656L424.283 345.695L424.091 345.75C422.742 343.727 420.446 342.414 417.201 341.812C416.18 341.612 415.196 341.512 414.248 341.512C413.318 341.512 412.516 341.594 411.841 341.758C411.185 341.922 410.62 342.159 410.146 342.469C409.143 343.125 408.642 343.982 408.642 345.039C408.642 346.424 409.08 347.464 409.955 348.156C411.048 348.995 412.862 349.587 415.396 349.934C417.93 350.262 419.962 350.717 421.494 351.301C423.025 351.884 424.283 352.622 425.267 353.516C427.127 355.193 428.056 357.562 428.056 360.625C428.056 364.635 426.543 367.725 423.517 369.895C420.929 371.754 417.666 372.684 413.728 372.684C410.556 372.684 407.421 372.082 404.322 370.879C403.301 370.478 402.408 370.013 401.642 369.484L401.943 360.352L402.052 360.27C404.313 364.171 408.022 366.121 413.181 366.121C416.845 366.121 419.27 365.237 420.455 363.469C420.856 362.867 421.056 362.202 421.056 361.473C421.056 360.725 420.938 360.115 420.701 359.641C420.464 359.148 420.072 358.729 419.525 358.383C418.468 357.69 416.69 357.225 414.193 356.988C411.696 356.751 409.654 356.305 408.068 355.648C406.482 354.992 405.215 354.181 404.267 353.215C402.554 351.465 401.697 349.022 401.697 345.887C401.697 342.642 402.836 340.017 405.115 338.012C407.43 335.97 410.547 334.949 414.466 334.949C418.404 334.949 421.849 335.852 424.802 337.656ZM434.775 335.277C436.233 332.999 437.756 330.993 439.342 329.262L445.22 333.883C444.437 334.849 443.707 335.797 443.033 336.727C443.033 336.727 442.331 337.72 440.927 339.707L434.775 335.277ZM441.967 368.938C441.967 370.505 442.003 371.526 442.076 372H435.131V343.426H441.967V368.938ZM472.885 369.348C470.843 371.389 467.644 372.41 463.287 372.41C459.058 372.41 455.603 371.125 452.924 368.555C450.208 365.948 448.85 362.484 448.85 358.164C448.85 353.771 450.189 350.161 452.869 347.336C455.713 344.365 459.514 342.879 464.271 342.879C467.644 342.879 470.469 343.617 472.748 345.094L471.654 352.094L471.463 352.066C470.588 351.009 469.667 350.316 468.701 349.988C467.133 349.441 465.566 349.168 463.998 349.168C462.43 349.168 461.2 349.368 460.307 349.77C459.413 350.171 458.648 350.727 458.01 351.438C456.734 352.896 456.096 354.828 456.096 357.234C456.096 361.5 457.572 364.289 460.525 365.602C461.546 366.039 462.622 366.258 463.752 366.258C464.9 366.258 465.894 366.158 466.732 365.957C467.589 365.757 468.364 365.483 469.057 365.137C470.533 364.408 471.536 363.56 472.064 362.594L472.256 362.676L472.885 369.348ZM486.85 368.938C486.85 370.505 486.886 371.526 486.959 372H480.15V332.898H486.85V345.559C489.201 343.772 491.626 342.879 494.123 342.879C497.186 342.879 499.647 343.891 501.506 345.914C503.329 347.938 504.24 350.617 504.24 353.953V364.836C504.24 367.917 504.286 369.767 504.377 370.387C504.468 371.007 504.587 371.408 504.733 371.59C504.897 371.772 505.033 371.936 505.143 372.082L505.088 372.191C503.611 372.064 502.536 372 501.861 372H499.92C499.318 372 498.525 372.027 497.541 372.082V356.25C497.541 353.734 496.985 351.875 495.873 350.672C495.035 349.76 493.895 349.305 492.455 349.305C490.322 349.305 488.454 350.535 486.85 352.996V368.938ZM511.561 357.945C511.561 355.812 511.925 353.835 512.655 352.012C513.384 350.189 514.414 348.594 515.744 347.227C518.588 344.328 522.307 342.879 526.901 342.879C530.783 342.879 533.901 344.164 536.252 346.734C538.567 349.214 539.725 352.331 539.725 356.086C539.725 357.526 539.615 358.51 539.397 359.039C537.574 359.549 533.864 359.805 528.268 359.805H518.643C519.117 361.755 520.22 363.277 521.951 364.371C523.683 365.447 525.934 365.984 528.705 365.984C531.604 365.984 534.092 365.465 536.17 364.426C536.717 364.152 537.127 363.897 537.401 363.66C537.364 364.426 537.319 365.21 537.264 366.012L536.963 370.277C535.578 371.225 533.336 371.882 530.237 372.246C529.325 372.355 528.45 372.41 527.612 372.41C522.981 372.41 519.153 371.061 516.127 368.363C513.083 365.647 511.561 362.174 511.561 357.945ZM532.451 354.5C531.704 350.581 529.571 348.621 526.053 348.621C523.282 348.621 521.177 349.815 519.737 352.203C519.299 352.932 518.962 353.734 518.725 354.609C519.162 354.628 519.7 354.646 520.338 354.664H522.362C523.036 354.682 523.683 354.691 524.303 354.691H525.862C526.791 354.691 527.703 354.682 528.596 354.664L530.838 354.582C531.44 354.564 531.977 354.536 532.451 354.5ZM552.979 368.938C552.979 370.505 553.015 371.526 553.088 372H546.28V343.426H552.979V345.531C554.528 343.763 556.151 342.879 557.846 342.879C559.56 342.879 560.909 343.089 561.893 343.508L561.401 350.863L561.291 350.945C560.653 349.815 559.332 349.25 557.327 349.25C556.561 349.25 555.777 349.514 554.975 350.043C554.191 350.553 553.526 351.237 552.979 352.094V368.938ZM606.913 335.496C608.043 335.587 608.982 335.633 609.729 335.633H611.999C612.764 335.633 613.566 335.56 614.405 335.414V358.027C614.405 362.512 613.047 366.112 610.331 368.828C607.76 371.398 604.534 372.684 600.651 372.684C596.404 372.684 592.968 371.581 590.343 369.375C587.408 366.896 585.94 363.323 585.94 358.656V335.496C587.453 335.587 588.875 335.633 590.206 335.633C591.555 335.633 592.667 335.56 593.542 335.414V359.012C593.542 361.309 594.244 363.095 595.647 364.371C596.96 365.538 598.6 366.121 600.569 366.121C603.486 366.121 605.427 364.626 606.393 361.637C606.74 360.561 606.913 359.23 606.913 357.645V335.496ZM630.94 368.5C630.94 370.104 631.013 371.271 631.159 372H624.296V343.426H630.94V345.859C633.347 343.872 635.917 342.879 638.651 342.879C641.641 342.879 644.029 343.9 645.815 345.941C647.602 347.965 648.495 350.635 648.495 353.953V364.836C648.495 367.917 648.541 369.767 648.632 370.387C648.723 371.007 648.841 371.408 648.987 371.59C649.151 371.772 649.288 371.936 649.397 372.082L649.343 372.191C647.866 372.064 646.791 372 646.116 372H644.202C643.619 372 642.835 372.027 641.85 372.082V357.18C641.85 351.839 640.228 349.168 636.983 349.168C634.577 349.168 632.563 350.408 630.94 352.887V368.5ZM670.034 365.984C672.386 365.984 673.999 365.374 674.874 364.152H675.093L675.175 370.496C674.282 371.389 672.623 371.982 670.198 372.273C669.542 372.365 668.722 372.41 667.737 372.41C666.771 372.41 665.714 372.228 664.565 371.863C663.435 371.499 662.469 370.906 661.667 370.086C660.008 368.391 659.179 365.738 659.179 362.129V349.715H655.05C655.032 349.186 655.023 348.648 655.023 348.102V343.891C655.023 343.581 655.032 343.426 655.05 343.426H659.179V335.633H665.878V343.426H673.398V349.715H665.878V360.871C665.878 363.733 666.671 365.365 668.257 365.766C668.767 365.911 669.36 365.984 670.034 365.984ZM680.226 357.945C680.226 355.812 680.59 353.835 681.32 352.012C682.049 350.189 683.079 348.594 684.409 347.227C687.253 344.328 690.972 342.879 695.566 342.879C699.448 342.879 702.566 344.164 704.917 346.734C707.232 349.214 708.39 352.331 708.39 356.086C708.39 357.526 708.28 358.51 708.062 359.039C706.239 359.549 702.529 359.805 696.933 359.805H687.308C687.782 361.755 688.885 363.277 690.616 364.371C692.348 365.447 694.599 365.984 697.37 365.984C700.269 365.984 702.757 365.465 704.835 364.426C705.382 364.152 705.792 363.897 706.066 363.66C706.029 364.426 705.984 365.21 705.929 366.012L705.628 370.277C704.243 371.225 702.001 371.882 698.902 372.246C697.99 372.355 697.115 372.41 696.277 372.41C691.646 372.41 687.818 371.061 684.792 368.363C681.748 365.647 680.226 362.174 680.226 357.945ZM701.116 354.5C700.369 350.581 698.236 348.621 694.718 348.621C691.947 348.621 689.842 349.815 688.402 352.203C687.964 352.932 687.627 353.734 687.39 354.609C687.827 354.628 688.365 354.646 689.003 354.664H691.027C691.701 354.682 692.348 354.691 692.968 354.691H694.527C695.456 354.691 696.368 354.682 697.261 354.664L699.503 354.582C700.105 354.564 700.642 354.536 701.116 354.5ZM721.644 368.938C721.644 370.505 721.68 371.526 721.753 372H714.945V343.426H721.644V345.531C723.193 343.763 724.816 342.879 726.511 342.879C728.225 342.879 729.574 343.089 730.558 343.508L730.066 350.863L729.956 350.945C729.318 349.815 727.997 349.25 725.992 349.25C725.226 349.25 724.442 349.514 723.64 350.043C722.856 350.553 722.191 351.237 721.644 352.094V368.938ZM730.906 343.426H738.261L743.347 363.961L748.816 343.426H755.105L760.765 364.398L765.851 343.426H772.468L764.046 372H756.964L751.55 353.27L746.519 372H739.492L730.906 343.426ZM776.207 357.945C776.207 355.812 776.571 353.835 777.3 352.012C778.03 350.189 779.06 348.594 780.39 347.227C783.234 344.328 786.953 342.879 791.547 342.879C795.429 342.879 798.547 344.164 800.898 346.734C803.213 349.214 804.371 352.331 804.371 356.086C804.371 357.526 804.261 358.51 804.043 359.039C802.22 359.549 798.51 359.805 792.914 359.805H783.289C783.763 361.755 784.866 363.277 786.597 364.371C788.329 365.447 790.58 365.984 793.351 365.984C796.25 365.984 798.738 365.465 800.816 364.426C801.363 364.152 801.773 363.897 802.047 363.66C802.01 364.426 801.965 365.21 801.91 366.012L801.609 370.277C800.224 371.225 797.981 371.882 794.883 372.246C793.971 372.355 793.096 372.41 792.258 372.41C787.627 372.41 783.799 371.061 780.773 368.363C777.729 365.647 776.207 362.174 776.207 357.945ZM797.097 354.5C796.35 350.581 794.217 348.621 790.699 348.621C787.928 348.621 785.823 349.815 784.383 352.203C783.945 352.932 783.608 353.734 783.371 354.609C783.808 354.628 784.346 354.646 784.984 354.664H787.008C787.682 354.682 788.329 354.691 788.949 354.691H790.508C791.437 354.691 792.349 354.682 793.242 354.664L795.484 354.582C796.086 354.564 796.623 354.536 797.097 354.5ZM818.691 364.398C818.017 365.292 817.68 366.003 817.68 366.531C817.68 367.042 817.762 367.443 817.926 367.734C818.09 368.008 818.445 368.272 818.992 368.527C820.195 369.092 822.173 369.594 824.926 370.031C827.678 370.451 829.829 370.979 831.379 371.617C832.946 372.255 834.213 373.039 835.18 373.969C836.984 375.737 837.887 378.243 837.887 381.488C837.887 384.733 836.747 387.221 834.469 388.953C832.19 390.703 828.808 391.578 824.324 391.578C819.803 391.578 816.157 390.594 813.387 388.625C810.616 386.656 809.194 384.04 809.121 380.777C809.012 376.986 810.497 374.242 813.578 372.547C812.739 371.854 812.174 371.043 811.883 370.113C811.609 369.165 811.472 368.09 811.472 366.887C811.472 364.863 812.357 363.15 814.125 361.746C812.065 359.796 811.035 357.371 811.035 354.473C811.035 351.228 812.202 348.512 814.535 346.324C816.996 344.027 820.186 342.879 824.105 342.879C826.165 342.879 828.097 343.262 829.902 344.027C832.272 343.025 834.013 342.15 835.125 341.402C836.237 340.637 836.948 340.081 837.258 339.734L837.422 339.762C837.586 340.199 837.777 340.819 837.996 341.621L838.488 343.59C838.926 345.212 839.19 346.324 839.281 346.926C838.479 347.801 837.066 348.421 835.043 348.785C835.827 350.298 836.219 351.902 836.219 353.598C836.219 355.293 835.927 356.833 835.344 358.219C834.76 359.586 833.931 360.789 832.855 361.828C830.467 364.07 827.423 365.191 823.722 365.191C821.918 365.191 820.241 364.927 818.691 364.398ZM817.98 352.094C817.725 352.75 817.597 353.415 817.597 354.09C817.597 354.764 817.734 355.411 818.008 356.031C818.299 356.651 818.719 357.207 819.265 357.699C820.487 358.793 822.082 359.34 824.051 359.34C825.545 359.34 826.84 358.839 827.933 357.836C829.082 356.742 829.656 355.43 829.656 353.898C829.656 352.349 829.137 351.1 828.097 350.152C827.058 349.204 825.627 348.73 823.805 348.73C820.797 348.73 818.855 349.852 817.98 352.094ZM824.68 385.781C829.164 385.781 831.406 384.214 831.406 381.078C831.406 379.583 830.677 378.38 829.219 377.469C827.578 376.43 824.762 375.618 820.769 375.035L819.347 374.789C818.144 375.427 817.26 376.247 816.695 377.25C816.13 378.253 815.847 379.201 815.847 380.094C815.866 381.005 816.084 381.789 816.504 382.445C816.923 383.102 817.506 383.676 818.254 384.168C819.913 385.243 822.055 385.781 824.68 385.781ZM854.285 372.41C849.145 372.41 845.271 371.471 842.664 369.594C842.701 369.047 842.755 368.427 842.828 367.734L843.074 365.766C843.22 364.471 843.311 363.669 843.348 363.359C843.384 363.031 843.411 362.858 843.43 362.84C843.448 362.803 843.594 362.949 843.867 363.277C844.141 363.587 844.66 363.97 845.426 364.426C846.191 364.882 847.076 365.283 848.078 365.629C850.247 366.376 852.508 366.75 854.859 366.75C858.013 366.75 859.59 365.702 859.59 363.605C859.59 362.931 859.289 362.43 858.688 362.102C857.612 361.555 856.026 361.145 853.93 360.871C851.852 360.579 850.147 360.16 848.816 359.613C847.486 359.066 846.401 358.41 845.562 357.645C844.013 356.204 843.238 354.318 843.238 351.984C843.238 349.141 844.332 346.908 846.52 345.285C848.689 343.681 851.688 342.879 855.516 342.879C859.307 342.879 862.543 343.954 865.223 346.105C865.095 346.579 864.958 347.035 864.812 347.473C864.393 348.676 864.083 349.542 863.883 350.07L863.254 351.684C863.217 351.829 863.19 351.902 863.172 351.902C863.135 351.902 862.99 351.711 862.734 351.328C861.586 349.997 859.799 349.122 857.375 348.703C856.628 348.557 855.862 348.484 855.078 348.484C851.76 348.484 850.102 349.487 850.102 351.492C850.102 352.185 850.448 352.714 851.141 353.078C852.435 353.771 854.203 354.281 856.445 354.609C858.706 354.938 860.419 355.384 861.586 355.949C862.753 356.496 863.691 357.161 864.402 357.945C865.715 359.367 866.371 361.254 866.371 363.605C866.371 366.176 865.341 368.263 863.281 369.867C861.13 371.562 858.132 372.41 854.285 372.41Z" fill="black"/>
</svg>
