<svg width="305" height="277" viewBox="0 0 305 277" fill="none" xmlns="http://www.w3.org/2000/svg">
<path d="M148.427 269.447C172.376 269.447 191.79 250.033 191.79 226.085C191.79 202.136 172.376 182.722 148.427 182.722C124.479 182.722 105.065 202.136 105.065 226.085C105.065 250.033 124.479 269.447 148.427 269.447Z" stroke="#4D4C4C" stroke-width="13.9872"/>
<path d="M253.993 150.535C277.941 150.535 297.355 131.121 297.355 107.172C297.355 83.2241 277.941 63.8102 253.993 63.8102C230.045 63.8102 210.631 83.2241 210.631 107.172C210.631 131.121 230.045 150.535 253.993 150.535Z" stroke="#4D4C4C" stroke-width="13.9872"/>
<path d="M253.676 118.875C260.712 118.875 266.417 113.442 266.417 106.741C266.417 100.039 260.712 94.6069 253.676 94.6069C246.639 94.6069 240.935 100.039 240.935 106.741C240.935 113.442 246.639 118.875 253.676 118.875Z" fill="#4D4C4C"/>
<path d="M69.8989 21.3716C84.9317 46.7448 74.0748 63.6602 66.7672 68.9463C61.1998 73.5274 44.1418 79.2119 26.6038 68.217C30.6038 62.217 34.6038 59.717 32.6038 57.217C29.472 56.1597 30.6038 57.217 21.1038 64.717C19.016 64.717 14.1534 60.9115 12.4833 54.1451C12.1351 52.7355 9.35128 49.7048 1 48.859C3.4357 26.3052 20.6258 -13.7281 69.8989 6.5705C70.5949 7.98015 71.5693 12.9139 69.8989 21.3716Z" fill="#4D4C4C" stroke="black" stroke-width="0.537971"/>
<path d="M109.55 160.516C84.4202 160.516 62.7808 127.832 55.1025 111.489C48.8424 100.015 57.1967 69.7642 89.6556 69.7642C115.623 69.7642 133.981 54.4651 139.914 46.8154C157.505 39.3049 159.111 53.422 157.714 61.4193C125.255 97.9286 113.738 94.7991 107.456 95.8422C102.43 96.6768 101.871 101.753 102.22 104.187C102.918 104.883 104.942 107.734 107.456 113.575C109.969 119.417 116.879 117.4 120.02 115.662L150.385 104.187C162.95 100.849 170.279 104.187 172.373 106.274L213.209 157.387C214.884 177.415 200.644 178.249 193.314 176.163L159.809 139.654C130.491 158.013 114.087 161.212 109.55 160.516Z" fill="#4D4C4C" stroke="black" stroke-width="0.537971"/>
<path d="M166.912 65.162C163.792 63.0569 158.593 73.5828 157.554 74.6354C156.514 75.6879 163.792 73.5828 166.912 77.7932C170.031 82.0037 168.991 84.1088 164.832 87.2666C160.673 90.4243 163.792 91.4768 164.832 91.4768C165.872 91.4768 172.11 91.4768 174.19 89.3717C175.853 87.6874 177.656 90.0733 178.349 91.4768C180.082 96.0382 184.795 106.634 189.786 112.529C194.777 118.423 194.638 114.283 193.945 111.476C192.905 107.617 190.41 98.424 188.746 92.5296C187.083 86.6349 190.826 87.2666 192.905 88.3192L240.734 108.319C242.12 105.161 244.893 98.6344 244.893 97.7926C244.893 96.7398 170.031 67.2673 166.912 65.162Z" fill="#4D4C4C"/>
<path d="M140.918 165.159C141.75 158.422 133.639 161.65 129.48 164.106C126.985 167.475 129.48 168.317 130.52 170.422L138.838 220.946L158.593 223.052C167.604 213.227 186.043 193.158 187.706 191.474C189.786 189.369 189.786 188.316 186.667 184.106C184.171 180.737 180.775 182.702 179.388 184.106C173.15 191.474 159.425 207.473 154.434 212.526C149.444 217.578 148.196 212.526 148.196 211.473L140.918 165.159Z" fill="#4D4C4C"/>
<path d="M148.428 241.253C155.464 241.253 161.168 235.549 161.168 228.512C161.168 221.476 155.464 215.771 148.428 215.771C141.391 215.771 135.687 221.476 135.687 228.512C135.687 235.549 141.391 241.253 148.428 241.253Z" fill="#4D4C4C"/>
<path d="M10 44C7.88152 37.3595 26.4999 -7.00001 64.5 12C62.9999 28 20.8815 46.3595 10 44Z" fill="#00C49A" stroke="black" stroke-width="0.537971"/>
</svg>
