<svg width="903" height="276" viewBox="0 0 903 276" fill="none" xmlns="http://www.w3.org/2000/svg">
<path d="M40.9028 218.34C39.0004 218.467 36.971 218.531 34.815 218.531C32.6587 218.531 29.4563 218.372 25.2074 218.055V267.519H0V140.34C8.87811 139.198 19.7856 138.627 32.7221 138.627C50.3517 138.627 63.4787 141.893 72.103 148.425C80.791 154.893 85.1347 164.913 85.1347 178.484C85.1347 189.011 81.1714 198.016 73.2446 205.499C70.6444 207.908 67.6641 210.001 64.303 211.777L83.7079 252.68C87.5128 261.114 90.43 266.124 92.4594 267.708L91.9837 268.184C85.8324 267.17 76.1615 267.202 62.9713 268.279L40.9028 218.34ZM34.5294 161.076C31.2953 161.076 28.1881 161.235 25.2074 161.552V197.889C28.315 198.333 31.9613 198.555 36.1467 198.555C40.332 198.555 43.8514 198.206 46.7052 197.509C49.5589 196.747 52.0321 195.606 54.1247 194.084C58.6273 190.723 60.8785 185.682 60.8785 178.959C60.8785 172.237 58.5321 167.513 53.8394 164.786C49.4637 162.313 43.0271 161.076 34.5294 161.076ZM306.199 261.621C297.196 266.504 289.047 268.946 281.753 268.946C274.462 268.946 268.214 268.279 263.015 266.948C257.814 265.553 253.407 263.524 249.792 260.86C242.436 255.47 238.758 247.67 238.758 237.46C238.758 228.328 243.261 220.718 252.265 214.631C262.033 208.035 275.285 204.738 292.028 204.738L295.832 204.833C296.592 204.896 297.449 204.96 298.401 205.023C299.35 205.023 300.207 205.086 300.967 205.213C300.461 195.067 296.086 189.138 287.842 187.425C285.115 186.855 282.198 186.569 279.09 186.569C276.045 186.569 273.034 186.855 270.053 187.425C267.137 187.933 264.281 188.63 261.492 189.518C255.341 191.484 250.934 193.735 248.27 196.272L247.985 196.082L245.131 175.059C256.356 169.162 268.626 166.213 281.945 166.213C302.617 166.213 315.84 173.664 321.609 188.567C323.448 193.323 324.369 198.682 324.369 204.643V239.077C324.369 246.433 326.969 251.443 332.167 254.107L314.952 269.895C311.337 267.995 308.42 265.236 306.199 261.621ZM301.064 222.335C299.35 222.018 297.575 221.86 295.738 221.86H291.931C277.918 221.86 269.007 224.967 265.202 231.182C264.061 233.021 263.491 234.955 263.491 236.984C263.491 239.014 263.839 240.821 264.537 242.406C265.297 243.928 266.533 245.197 268.247 246.211C271.545 248.114 276.426 249.065 282.894 249.065C289.426 249.065 295.515 247.511 301.159 244.404C301.095 243.706 301.064 242.977 301.064 242.216V222.335ZM422.346 262.192C414.292 266.694 406.238 268.946 398.183 268.946C390.129 268.946 383.091 267.677 377.066 265.141C371.041 262.604 365.906 259.116 361.656 254.677C352.907 245.545 348.529 233.687 348.529 219.101C348.529 204.009 353.602 191.452 363.749 181.433C373.96 171.286 387.024 166.213 402.94 166.213C407.824 166.213 412.611 166.847 417.303 168.115V125.786H440.608V227.472C440.608 235.906 440.989 241.424 441.749 244.023C442.575 246.624 443.463 248.526 444.412 249.731C445.428 250.936 446.697 252.077 448.219 253.155L430.336 268.946C427.038 267.17 424.374 264.919 422.346 262.192ZM402.656 247.067C407.982 247.067 412.864 246.053 417.303 244.023V191.326C412.864 189.487 408.044 188.567 402.845 188.567C397.644 188.567 393.174 189.264 389.434 190.66C385.755 192.055 382.585 193.989 379.921 196.462C374.339 201.662 371.55 208.416 371.55 216.723C371.55 225.792 374.085 233.021 379.159 238.411C384.613 244.182 392.445 247.067 402.656 247.067ZM496.16 268.089C493.115 267.708 487.251 267.519 478.563 267.519H470.954V140.625C475.011 140.879 479.481 141.006 484.365 141.006C489.247 141.006 492.703 140.752 494.732 140.245L526.695 194.56L557.419 140.245C559.448 140.752 563.317 141.006 569.025 141.006C574.733 141.006 579.614 140.879 583.672 140.625V267.519H576.063C567.374 267.519 561.51 267.708 558.466 268.089V182.86L527.36 238.506L496.16 187.33V268.089ZM680.223 261.621C671.217 266.504 663.068 268.946 655.777 268.946C648.483 268.946 642.237 268.279 637.036 266.948C631.837 265.553 627.429 263.524 623.814 260.86C616.458 255.47 612.779 247.67 612.779 237.46C612.779 228.328 617.282 220.718 626.288 214.631C636.054 208.035 649.306 204.738 666.049 204.738L669.853 204.833C670.616 204.896 671.47 204.96 672.422 205.023C673.374 205.023 674.231 205.086 674.991 205.213C674.484 195.067 670.107 189.138 661.863 187.425C659.136 186.855 656.219 186.569 653.114 186.569C650.069 186.569 647.058 186.855 644.077 187.425C641.158 187.933 638.305 188.63 635.514 189.518C629.363 191.484 624.955 193.735 622.292 196.272L622.008 196.082L619.152 175.059C630.379 169.162 642.649 166.213 655.966 166.213C676.638 166.213 689.861 173.664 695.633 188.567C697.472 193.323 698.39 198.682 698.39 204.643V239.077C698.39 246.433 700.99 251.443 706.191 254.107L688.973 269.895C685.36 267.995 682.441 265.236 680.223 261.621ZM675.085 222.335C673.374 222.018 671.598 221.86 669.759 221.86H665.954C651.939 221.86 643.031 224.967 639.224 231.182C638.082 233.021 637.512 234.955 637.512 236.984C637.512 239.014 637.86 240.821 638.558 242.406C639.321 243.928 640.557 245.197 642.268 246.211C645.566 248.114 650.45 249.065 656.918 249.065C663.45 249.065 669.536 247.511 675.18 244.404C675.119 243.706 675.085 242.977 675.085 242.216V222.335ZM772.302 246.592C780.481 246.592 786.095 244.467 789.139 240.218H789.899L790.186 262.287C787.077 265.394 781.305 267.455 772.872 268.471C770.59 268.788 767.735 268.946 764.312 268.946C760.95 268.946 757.271 268.312 753.277 267.043C749.345 265.775 745.983 263.714 743.194 260.86C737.422 254.963 734.536 245.736 734.536 233.179V189.994H720.173C720.112 188.155 720.078 186.284 720.078 184.382V169.733C720.078 168.655 720.112 168.115 720.173 168.115H734.536V141.006H757.841V168.115H784.002V189.994H757.841V228.804C757.841 238.76 760.602 244.436 766.118 245.831C767.894 246.338 769.956 246.592 772.302 246.592ZM804.833 218.626C804.833 211.206 806.102 204.326 808.637 197.984C811.175 191.643 814.757 186.094 819.388 181.338C829.279 171.255 842.217 166.213 858.197 166.213C871.706 166.213 882.548 170.684 890.73 179.625C898.782 188.25 902.809 199.094 902.809 212.157C902.809 217.167 902.43 220.591 901.668 222.431C895.328 224.206 882.42 225.094 862.953 225.094H829.471C831.118 231.879 834.956 237.175 840.981 240.98C847.004 244.721 854.835 246.592 864.475 246.592C874.558 246.592 883.214 244.785 890.444 241.17C892.347 240.218 893.772 239.331 894.724 238.506C894.596 241.17 894.44 243.896 894.248 246.687L893.202 261.526C888.382 264.824 880.584 267.107 869.802 268.376C866.632 268.754 863.588 268.946 860.671 268.946C844.563 268.946 831.246 264.253 820.718 254.867C810.129 245.419 804.833 233.338 804.833 218.626ZM877.508 206.64C874.906 193.006 867.487 186.189 855.247 186.189C845.609 186.189 838.284 190.343 833.275 198.65C831.753 201.187 830.581 203.977 829.755 207.021C831.277 207.084 833.147 207.148 835.368 207.211H842.406C844.752 207.274 847.004 207.306 849.161 207.306H854.582C857.816 207.306 860.988 207.274 864.094 207.211L871.895 206.925C873.988 206.862 875.858 206.767 877.508 206.64Z" fill="#00C49A"/>
<ellipse cx="268.928" cy="104.657" rx="12.841" ry="12.2295" fill="#4D4C4C"/>
<circle cx="162.851" cy="224.94" r="43.7037" stroke="#4D4C4C" stroke-width="14.0973"/>
<circle cx="269.248" cy="105.091" r="43.7037" stroke="#4D4C4C" stroke-width="14.0973"/>
<path d="M123.667 158.855C98.34 158.855 76.5304 125.913 68.7915 109.442C62.4822 97.8778 70.9021 67.389 103.617 67.389C129.788 67.389 148.291 51.9693 154.271 44.2595C172 36.6899 173.618 50.918 172.211 58.9782C139.497 95.775 127.888 92.6209 121.557 93.6723C116.491 94.5133 115.928 99.6299 116.28 102.083C116.984 102.784 119.024 105.658 121.557 111.545C124.089 117.432 131.054 115.4 134.22 113.648L164.824 102.083C177.488 98.7188 184.875 102.083 186.985 104.186L228.142 155.701C229.831 175.887 215.479 176.728 208.091 174.625L174.322 137.829C144.773 156.332 128.24 159.556 123.667 158.855Z" fill="#4D4C4C"/>
<path d="M180.433 47.8984C181.271 45.3523 177.289 44.0085 175.193 43.6549C174.355 42.8063 176.241 40.4723 177.289 39.4114C177.289 38.3505 190.912 36.2287 187.306 45.7767C183.701 55.3246 180.433 54.2637 180.433 53.2028C180.433 52.142 179.385 51.0811 180.433 47.8984Z" fill="#4D4C4C"/>
<path d="M181.481 62.7507C178.337 60.6289 173.097 71.2377 172.049 72.2986C171.001 73.3595 178.337 71.2377 181.481 75.4813C184.624 79.7248 183.577 81.8466 179.385 85.0292C175.193 88.2118 178.337 89.2727 179.385 89.2727C180.433 89.2727 186.72 89.2727 188.816 87.151C190.493 85.4536 192.309 87.8582 193.008 89.2727C194.754 93.8699 199.505 104.549 204.535 110.49C209.565 116.431 209.426 112.258 208.727 109.429C207.679 105.54 205.164 96.2745 203.487 90.3336C201.811 84.3927 205.583 85.0292 207.679 86.0901L255.884 106.247C257.281 103.064 260.076 96.4867 260.076 95.638C260.076 94.5771 184.624 64.8724 181.481 62.7507Z" fill="#4D4C4C"/>
<path d="M155.282 163.534C156.121 156.745 147.947 159.998 143.755 162.474C141.24 165.868 143.755 166.717 144.803 168.839L153.186 219.761L173.097 221.883C182.179 211.981 200.763 191.754 202.439 190.056C204.535 187.935 204.535 186.874 201.391 182.63C198.876 179.236 195.453 181.216 194.056 182.63C187.768 190.056 173.936 206.182 168.905 211.274C163.875 216.366 162.618 211.274 162.618 210.213L155.282 163.534Z" fill="#4D4C4C"/>
<circle cx="162.851" cy="227.386" r="12.841" fill="#4D4C4C"/>
<path d="M73.8989 21.3716C88.9317 46.7448 78.0748 63.6602 70.7672 68.9463C65.1998 73.5274 48.1418 79.2119 30.6038 68.217C34.6038 62.217 38.6038 59.717 36.6038 57.217C33.472 56.1597 34.6038 57.217 25.1038 64.717C23.016 64.717 18.1534 60.9115 16.4833 54.1451C16.1351 52.7355 13.3513 49.7048 5 48.859C7.4357 26.3052 24.6258 -13.7281 73.8989 6.5705C74.5949 7.98015 75.5693 12.9139 73.8989 21.3716Z" fill="#4D4C4C" stroke="black" stroke-width="0.537971"/>
<path d="M15 44C12.8815 37.3595 31.4999 -7.00001 69.4999 12C67.9999 28 25.8815 46.3595 15 44Z" fill="#00C49A"/>
</svg>
