<svg width="903" height="422" viewBox="0 0 903 422" fill="none" xmlns="http://www.w3.org/2000/svg">
<path d="M40.9028 218.34C39.0004 218.467 36.971 218.531 34.815 218.531C32.6587 218.531 29.4563 218.372 25.2074 218.055V267.519H0V140.34C8.87811 139.198 19.7856 138.627 32.7221 138.627C50.3517 138.627 63.4787 141.893 72.103 148.425C80.791 154.893 85.1347 164.913 85.1347 178.484C85.1347 189.011 81.1714 198.016 73.2446 205.499C70.6444 207.908 67.6641 210.001 64.303 211.777L83.7079 252.68C87.5128 261.114 90.43 266.124 92.4594 267.708L91.9837 268.184C85.8324 267.17 76.1615 267.202 62.9713 268.279L40.9028 218.34ZM34.5294 161.076C31.2953 161.076 28.1881 161.235 25.2074 161.552V197.889C28.315 198.333 31.9613 198.555 36.1467 198.555C40.332 198.555 43.8514 198.206 46.7052 197.509C49.5589 196.747 52.0321 195.606 54.1247 194.084C58.6273 190.723 60.8785 185.682 60.8785 178.959C60.8785 172.237 58.5321 167.513 53.8394 164.786C49.4637 162.313 43.0271 161.076 34.5294 161.076ZM306.199 261.621C297.196 266.504 289.047 268.946 281.753 268.946C274.462 268.946 268.214 268.279 263.015 266.948C257.814 265.553 253.407 263.524 249.792 260.86C242.436 255.47 238.758 247.67 238.758 237.46C238.758 228.328 243.261 220.718 252.265 214.631C262.033 208.035 275.285 204.738 292.028 204.738L295.832 204.833C296.592 204.896 297.449 204.96 298.401 205.023C299.35 205.023 300.207 205.086 300.967 205.213C300.461 195.067 296.086 189.138 287.842 187.425C285.115 186.855 282.198 186.569 279.09 186.569C276.045 186.569 273.034 186.855 270.053 187.425C267.137 187.933 264.281 188.63 261.492 189.518C255.341 191.484 250.934 193.735 248.27 196.272L247.985 196.082L245.131 175.059C256.356 169.162 268.626 166.213 281.945 166.213C302.617 166.213 315.84 173.664 321.609 188.567C323.448 193.323 324.369 198.682 324.369 204.643V239.077C324.369 246.433 326.969 251.443 332.167 254.107L314.952 269.895C311.337 267.995 308.42 265.236 306.199 261.621ZM301.064 222.335C299.35 222.018 297.575 221.86 295.738 221.86H291.931C277.918 221.86 269.007 224.967 265.202 231.182C264.061 233.021 263.491 234.955 263.491 236.984C263.491 239.014 263.839 240.821 264.537 242.406C265.297 243.928 266.533 245.197 268.247 246.211C271.545 248.114 276.426 249.065 282.894 249.065C289.426 249.065 295.515 247.511 301.159 244.404C301.095 243.706 301.064 242.977 301.064 242.216V222.335ZM422.346 262.192C414.292 266.694 406.238 268.946 398.183 268.946C390.129 268.946 383.091 267.677 377.066 265.141C371.041 262.604 365.906 259.116 361.656 254.677C352.907 245.545 348.529 233.687 348.529 219.101C348.529 204.009 353.602 191.452 363.749 181.433C373.96 171.286 387.024 166.213 402.94 166.213C407.824 166.213 412.611 166.847 417.303 168.115V125.786H440.608V227.472C440.608 235.906 440.989 241.424 441.749 244.023C442.575 246.624 443.463 248.526 444.412 249.731C445.428 250.936 446.697 252.077 448.219 253.155L430.336 268.946C427.038 267.17 424.374 264.919 422.346 262.192ZM402.656 247.067C407.982 247.067 412.864 246.053 417.303 244.023V191.326C412.864 189.487 408.044 188.567 402.845 188.567C397.644 188.567 393.174 189.264 389.434 190.66C385.755 192.055 382.585 193.989 379.921 196.462C374.339 201.662 371.55 208.416 371.55 216.723C371.55 225.792 374.085 233.021 379.159 238.411C384.613 244.182 392.445 247.067 402.656 247.067ZM496.16 268.089C493.115 267.708 487.251 267.519 478.563 267.519H470.954V140.625C475.011 140.879 479.481 141.006 484.365 141.006C489.247 141.006 492.703 140.752 494.732 140.245L526.695 194.56L557.419 140.245C559.448 140.752 563.317 141.006 569.025 141.006C574.733 141.006 579.614 140.879 583.672 140.625V267.519H576.063C567.374 267.519 561.51 267.708 558.466 268.089V182.86L527.36 238.506L496.16 187.33V268.089ZM680.223 261.621C671.217 266.504 663.068 268.946 655.777 268.946C648.483 268.946 642.237 268.279 637.036 266.948C631.837 265.553 627.429 263.524 623.814 260.86C616.458 255.47 612.779 247.67 612.779 237.46C612.779 228.328 617.282 220.718 626.288 214.631C636.054 208.035 649.306 204.738 666.049 204.738L669.853 204.833C670.616 204.896 671.47 204.96 672.422 205.023C673.374 205.023 674.231 205.086 674.991 205.213C674.484 195.067 670.107 189.138 661.863 187.425C659.136 186.855 656.219 186.569 653.114 186.569C650.069 186.569 647.058 186.855 644.077 187.425C641.158 187.933 638.305 188.63 635.514 189.518C629.363 191.484 624.955 193.735 622.292 196.272L622.008 196.082L619.152 175.059C630.379 169.162 642.649 166.213 655.966 166.213C676.638 166.213 689.861 173.664 695.633 188.567C697.472 193.323 698.39 198.682 698.39 204.643V239.077C698.39 246.433 700.99 251.443 706.191 254.107L688.973 269.895C685.36 267.995 682.441 265.236 680.223 261.621ZM675.085 222.335C673.374 222.018 671.598 221.86 669.759 221.86H665.954C651.939 221.86 643.031 224.967 639.224 231.182C638.082 233.021 637.512 234.955 637.512 236.984C637.512 239.014 637.86 240.821 638.558 242.406C639.321 243.928 640.557 245.197 642.268 246.211C645.566 248.114 650.45 249.065 656.918 249.065C663.45 249.065 669.536 247.511 675.18 244.404C675.119 243.706 675.085 242.977 675.085 242.216V222.335ZM772.302 246.592C780.481 246.592 786.095 244.467 789.139 240.218H789.899L790.186 262.287C787.077 265.394 781.305 267.455 772.872 268.471C770.59 268.788 767.735 268.946 764.312 268.946C760.95 268.946 757.271 268.312 753.277 267.043C749.345 265.775 745.983 263.714 743.194 260.86C737.422 254.963 734.536 245.736 734.536 233.179V189.994H720.173C720.112 188.155 720.078 186.284 720.078 184.382V169.733C720.078 168.655 720.112 168.115 720.173 168.115H734.536V141.006H757.841V168.115H784.002V189.994H757.841V228.804C757.841 238.76 760.602 244.436 766.118 245.831C767.894 246.338 769.956 246.592 772.302 246.592ZM804.833 218.626C804.833 211.206 806.102 204.326 808.637 197.984C811.175 191.643 814.757 186.094 819.388 181.338C829.279 171.255 842.217 166.213 858.197 166.213C871.706 166.213 882.548 170.684 890.73 179.625C898.782 188.25 902.809 199.094 902.809 212.157C902.809 217.167 902.43 220.591 901.668 222.431C895.328 224.206 882.42 225.094 862.953 225.094H829.471C831.118 231.879 834.956 237.175 840.981 240.98C847.004 244.721 854.835 246.592 864.475 246.592C874.558 246.592 883.214 244.785 890.444 241.17C892.347 240.218 893.772 239.331 894.724 238.506C894.596 241.17 894.44 243.896 894.248 246.687L893.202 261.526C888.382 264.824 880.584 267.107 869.802 268.376C866.632 268.754 863.588 268.946 860.671 268.946C844.563 268.946 831.246 264.253 820.718 254.867C810.129 245.419 804.833 233.338 804.833 218.626ZM877.508 206.64C874.906 193.006 867.487 186.189 855.247 186.189C845.609 186.189 838.284 190.343 833.275 198.65C831.753 201.187 830.581 203.977 829.755 207.021C831.277 207.084 833.147 207.148 835.368 207.211H842.406C844.752 207.274 847.004 207.306 849.161 207.306H854.582C857.816 207.306 860.988 207.274 864.094 207.211L871.895 206.925C873.988 206.862 875.858 206.767 877.508 206.64Z" fill="#00C49A"/>
<ellipse cx="268.928" cy="104.657" rx="12.841" ry="12.2295" fill="#4D4C4C"/>
<circle cx="162.851" cy="224.94" r="43.7037" stroke="#4D4C4C" stroke-width="14.0973"/>
<circle cx="269.248" cy="105.091" r="43.7037" stroke="#4D4C4C" stroke-width="14.0973"/>
<path d="M123.667 158.855C98.34 158.855 76.5304 125.913 68.7915 109.442C62.4822 97.8778 70.9021 67.389 103.617 67.389C129.788 67.389 148.291 51.9693 154.271 44.2595C172 36.6899 173.618 50.918 172.211 58.9782C139.497 95.775 127.888 92.6209 121.557 93.6723C116.491 94.5133 115.928 99.6299 116.28 102.083C116.984 102.784 119.024 105.658 121.557 111.545C124.089 117.432 131.054 115.4 134.22 113.648L164.824 102.083C177.488 98.7188 184.875 102.083 186.985 104.186L228.142 155.701C229.831 175.887 215.479 176.728 208.091 174.625L174.322 137.829C144.773 156.332 128.24 159.556 123.667 158.855Z" fill="#4D4C4C"/>
<path d="M180.433 47.8984C181.271 45.3523 177.289 44.0085 175.193 43.6549C174.355 42.8063 176.241 40.4723 177.289 39.4114C177.289 38.3505 190.912 36.2287 187.306 45.7767C183.701 55.3246 180.433 54.2637 180.433 53.2028C180.433 52.142 179.385 51.0811 180.433 47.8984Z" fill="#4D4C4C"/>
<path d="M181.481 62.7507C178.337 60.6289 173.097 71.2377 172.049 72.2986C171.001 73.3595 178.337 71.2377 181.481 75.4813C184.624 79.7248 183.577 81.8466 179.385 85.0292C175.193 88.2118 178.337 89.2727 179.385 89.2727C180.433 89.2727 186.72 89.2727 188.816 87.151C190.493 85.4536 192.309 87.8582 193.008 89.2727C194.754 93.8699 199.505 104.549 204.535 110.49C209.565 116.431 209.426 112.258 208.727 109.429C207.679 105.54 205.164 96.2745 203.487 90.3336C201.811 84.3927 205.583 85.0292 207.679 86.0901L255.884 106.247C257.281 103.064 260.076 96.4867 260.076 95.638C260.076 94.5771 184.624 64.8724 181.481 62.7507Z" fill="#4D4C4C"/>
<path d="M155.282 163.534C156.121 156.745 147.947 159.998 143.755 162.474C141.24 165.868 143.755 166.717 144.803 168.839L153.186 219.761L173.097 221.883C182.179 211.981 200.763 191.754 202.439 190.056C204.535 187.935 204.535 186.874 201.391 182.63C198.876 179.236 195.453 181.216 194.056 182.63C187.768 190.056 173.936 206.182 168.905 211.274C163.875 216.366 162.618 211.274 162.618 210.213L155.282 163.534Z" fill="#4D4C4C"/>
<circle cx="162.851" cy="227.386" r="12.841" fill="#4D4C4C"/>
<path d="M73.8989 21.3716C88.9317 46.7448 78.0748 63.6602 70.7672 68.9463C65.1998 73.5274 48.1418 79.2119 30.6038 68.217C34.6038 62.217 38.6038 59.717 36.6038 57.217C33.472 56.1597 34.6038 57.217 25.1038 64.717C23.016 64.717 18.1534 60.9115 16.4833 54.1451C16.1351 52.7355 13.3513 49.7048 5 48.859C7.4357 26.3052 24.6258 -13.7281 73.8989 6.5705C74.5949 7.98015 75.5693 12.9139 73.8989 21.3716Z" fill="#4D4C4C" stroke="black" stroke-width="0.537971"/>
<path d="M15 44C12.8815 37.3595 31.4999 -7.00001 69.4999 12C67.9999 28 25.8815 46.3595 15 44Z" fill="#00C49A"/>
<path d="M84.9766 343.07C84.6302 343.69 84.457 345.176 84.457 347.527V356.004C84.457 358.574 83.1263 360.807 80.4648 362.703C77.7122 364.69 74.3398 365.684 70.3477 365.684C64.806 365.684 60.3854 363.943 57.0859 360.461C53.8958 357.143 52.3008 352.914 52.3008 347.773C52.3008 342.305 53.9232 337.747 57.168 334.102C60.7956 330 65.7904 327.949 72.1523 327.949C76.3997 327.949 79.763 328.77 82.2422 330.41L81.8047 338.477L81.5859 338.531C80.9479 337.419 79.6901 336.508 77.8125 335.797C76.026 335.122 74.1484 334.785 72.1797 334.785C70.2292 334.785 68.5156 335.095 67.0391 335.715C65.5807 336.335 64.3411 337.219 63.3203 338.367C61.1693 340.719 60.0938 343.827 60.0938 347.691C60.0938 351.064 61.0417 353.771 62.9375 355.812C64.8333 357.836 67.276 358.848 70.2656 358.848C73.5651 358.848 75.7891 357.991 76.9375 356.277C77.3021 355.73 77.4844 355.111 77.4844 354.418V349.879H73.957C72.0612 349.879 71.0312 350.043 70.8672 350.371L70.7852 350.344L70.5391 343.207C71.0495 343.353 73.1185 343.426 76.7461 343.426H79.9727C81.9779 343.426 83.6185 343.289 84.8945 343.016L84.9766 343.07ZM91.0939 350.945C91.0939 348.812 91.4585 346.835 92.1877 345.012C92.9168 343.189 93.9468 341.594 95.2775 340.227C98.1213 337.328 101.84 335.879 106.434 335.879C110.317 335.879 113.434 337.164 115.785 339.734C118.1 342.214 119.258 345.331 119.258 349.086C119.258 350.526 119.149 351.51 118.93 352.039C117.107 352.549 113.397 352.805 107.801 352.805H98.1759C98.6499 354.755 99.7528 356.277 101.485 357.371C103.216 358.447 105.468 358.984 108.238 358.984C111.137 358.984 113.625 358.465 115.703 357.426C116.25 357.152 116.66 356.897 116.934 356.66C116.897 357.426 116.852 358.21 116.797 359.012L116.496 363.277C115.111 364.225 112.869 364.882 109.77 365.246C108.858 365.355 107.983 365.41 107.145 365.41C102.514 365.41 98.6864 364.061 95.6603 361.363C92.616 358.647 91.0939 355.174 91.0939 350.945ZM111.985 347.5C111.237 343.581 109.104 341.621 105.586 341.621C102.815 341.621 100.71 342.815 99.2697 345.203C98.8322 345.932 98.4949 346.734 98.258 347.609C98.6955 347.628 99.2332 347.646 99.8713 347.664H101.895C102.569 347.682 103.216 347.691 103.836 347.691H105.395C106.324 347.691 107.236 347.682 108.129 347.664L110.371 347.582C110.973 347.564 111.511 347.536 111.985 347.5ZM133.442 357.098C133.442 361.199 133.515 363.833 133.66 365H126.524V336.426H133.442V338.887C135.939 336.882 138.5 335.879 141.125 335.879C144.224 335.879 146.476 337.219 147.879 339.898C149.283 338.458 150.45 337.51 151.379 337.055C152.929 336.271 154.478 335.879 156.028 335.879C157.595 335.879 158.926 336.143 160.02 336.672C161.114 337.201 162.016 337.948 162.727 338.914C164.167 340.865 164.887 343.544 164.887 346.953V357.836C164.887 360.917 164.933 362.767 165.024 363.387C165.115 364.007 165.233 364.408 165.379 364.59C165.543 364.772 165.68 364.936 165.789 365.082L165.735 365.191C164.276 365.064 163.201 365 162.508 365H160.457C159.783 365 158.953 365.027 157.969 365.082V350.289C157.969 346.023 157.313 343.49 156 342.688C155.563 342.432 155.043 342.305 154.442 342.305C153.858 342.305 153.339 342.378 152.883 342.523C152.427 342.651 151.999 342.87 151.598 343.18C150.923 343.672 150.158 344.638 149.301 346.078C149.319 346.224 149.328 346.37 149.328 346.516C149.328 346.661 149.328 349.068 149.328 353.734C149.328 358.401 149.438 362.156 149.657 365C148.107 365 146.785 365 145.692 365C144.616 365 143.586 365.027 142.602 365.082V350.262C142.602 347.29 142.42 345.358 142.055 344.465C141.709 343.572 141.335 342.988 140.934 342.715C140.533 342.441 140.041 342.305 139.457 342.305C137.051 342.305 135.046 343.462 133.442 345.777V357.098ZM172.29 350.945C172.29 348.812 172.654 346.835 173.383 345.012C174.112 343.189 175.142 341.594 176.473 340.227C179.317 337.328 183.036 335.879 187.629 335.879C191.512 335.879 194.629 337.164 196.981 339.734C199.296 342.214 200.454 345.331 200.454 349.086C200.454 350.526 200.344 351.51 200.125 352.039C198.303 352.549 194.593 352.805 188.997 352.805H179.372C179.846 354.755 180.948 356.277 182.68 357.371C184.412 358.447 186.663 358.984 189.434 358.984C192.332 358.984 194.821 358.465 196.899 357.426C197.446 357.152 197.856 356.897 198.129 356.66C198.093 357.426 198.047 358.21 197.993 359.012L197.692 363.277C196.306 364.225 194.064 364.882 190.965 365.246C190.054 365.355 189.179 365.41 188.34 365.41C183.71 365.41 179.882 364.061 176.856 361.363C173.812 358.647 172.29 355.174 172.29 350.945ZM193.18 347.5C192.433 343.581 190.3 341.621 186.782 341.621C184.011 341.621 181.905 342.815 180.465 345.203C180.028 345.932 179.691 346.734 179.454 347.609C179.891 347.628 180.429 347.646 181.067 347.664H183.09C183.765 347.682 184.412 347.691 185.032 347.691H186.59C187.52 347.691 188.431 347.682 189.325 347.664L191.567 347.582C192.168 347.564 192.706 347.536 193.18 347.5ZM206.38 328.277C207.838 325.999 209.36 323.993 210.946 322.262L216.825 326.883C216.041 327.849 215.312 328.797 214.637 329.727C214.637 329.727 213.936 330.72 212.532 332.707L206.38 328.277ZM213.571 361.938C213.571 363.505 213.607 364.526 213.68 365H206.735V336.426H213.571V361.938ZM229.341 361.5C229.341 363.104 229.414 364.271 229.559 365H222.696V336.426H229.341V338.859C231.747 336.872 234.317 335.879 237.052 335.879C240.041 335.879 242.429 336.9 244.216 338.941C246.002 340.965 246.895 343.635 246.895 346.953V357.836C246.895 360.917 246.941 362.767 247.032 363.387C247.123 364.007 247.242 364.408 247.387 364.59C247.552 364.772 247.688 364.936 247.798 365.082L247.743 365.191C246.266 365.064 245.191 365 244.516 365H242.602C242.019 365 241.235 365.027 240.251 365.082V350.18C240.251 344.839 238.628 342.168 235.384 342.168C232.977 342.168 230.963 343.408 229.341 345.887V361.5ZM265.372 365.41C260.231 365.41 256.358 364.471 253.751 362.594C253.787 362.047 253.842 361.427 253.915 360.734L254.161 358.766C254.307 357.471 254.398 356.669 254.435 356.359C254.471 356.031 254.498 355.858 254.517 355.84C254.535 355.803 254.681 355.949 254.954 356.277C255.227 356.587 255.747 356.97 256.513 357.426C257.278 357.882 258.162 358.283 259.165 358.629C261.334 359.376 263.595 359.75 265.946 359.75C269.1 359.75 270.677 358.702 270.677 356.605C270.677 355.931 270.376 355.43 269.774 355.102C268.699 354.555 267.113 354.145 265.017 353.871C262.938 353.579 261.234 353.16 259.903 352.613C258.573 352.066 257.488 351.41 256.649 350.645C255.1 349.204 254.325 347.318 254.325 344.984C254.325 342.141 255.419 339.908 257.606 338.285C259.776 336.681 262.774 335.879 266.602 335.879C270.394 335.879 273.63 336.954 276.31 339.105C276.182 339.579 276.045 340.035 275.899 340.473C275.48 341.676 275.17 342.542 274.97 343.07L274.341 344.684C274.304 344.829 274.277 344.902 274.259 344.902C274.222 344.902 274.076 344.711 273.821 344.328C272.673 342.997 270.886 342.122 268.462 341.703C267.714 341.557 266.949 341.484 266.165 341.484C262.847 341.484 261.188 342.487 261.188 344.492C261.188 345.185 261.535 345.714 262.227 346.078C263.522 346.771 265.29 347.281 267.532 347.609C269.793 347.938 271.506 348.384 272.673 348.949C273.839 349.496 274.778 350.161 275.489 350.945C276.802 352.367 277.458 354.254 277.458 356.605C277.458 359.176 276.428 361.263 274.368 362.867C272.217 364.562 269.218 365.41 265.372 365.41ZM303.509 363.305C300.92 364.708 298.578 365.41 296.482 365.41C294.385 365.41 292.59 365.219 291.095 364.836C289.6 364.435 288.333 363.852 287.294 363.086C285.179 361.536 284.122 359.294 284.122 356.359C284.122 353.734 285.416 351.547 288.005 349.797C290.812 347.901 294.622 346.953 299.435 346.953L300.528 346.98C300.747 346.999 300.993 347.017 301.267 347.035C301.54 347.035 301.786 347.053 302.005 347.09C301.859 344.173 300.601 342.469 298.232 341.977C297.448 341.812 296.609 341.73 295.716 341.73C294.841 341.73 293.975 341.812 293.118 341.977C292.28 342.122 291.459 342.323 290.657 342.578C288.889 343.143 287.622 343.79 286.857 344.52L286.775 344.465L285.954 338.422C289.181 336.727 292.708 335.879 296.536 335.879C302.479 335.879 306.28 338.021 307.939 342.305C308.467 343.672 308.732 345.212 308.732 346.926V356.824C308.732 358.939 309.479 360.379 310.974 361.145L306.025 365.684C304.985 365.137 304.147 364.344 303.509 363.305ZM302.032 352.012C301.54 351.921 301.03 351.875 300.501 351.875H299.407C295.379 351.875 292.818 352.768 291.724 354.555C291.396 355.083 291.232 355.639 291.232 356.223C291.232 356.806 291.332 357.326 291.532 357.781C291.751 358.219 292.107 358.583 292.599 358.875C293.547 359.422 294.95 359.695 296.81 359.695C298.687 359.695 300.437 359.249 302.06 358.355C302.041 358.155 302.032 357.945 302.032 357.727V352.012ZM325.513 357.098C325.513 361.199 325.586 363.833 325.732 365H318.595V336.426H325.513V338.887C328.01 336.882 330.572 335.879 333.197 335.879C336.296 335.879 338.547 337.219 339.95 339.898C341.354 338.458 342.521 337.51 343.45 337.055C345 336.271 346.549 335.879 348.099 335.879C349.667 335.879 350.997 336.143 352.091 336.672C353.185 337.201 354.087 337.948 354.798 338.914C356.238 340.865 356.958 343.544 356.958 346.953V357.836C356.958 360.917 357.004 362.767 357.095 363.387C357.186 364.007 357.305 364.408 357.45 364.59C357.615 364.772 357.751 364.936 357.861 365.082L357.806 365.191C356.348 365.064 355.272 365 354.579 365H352.529C351.854 365 351.025 365.027 350.04 365.082V350.289C350.04 346.023 349.384 343.49 348.072 342.688C347.634 342.432 347.115 342.305 346.513 342.305C345.93 342.305 345.41 342.378 344.954 342.523C344.499 342.651 344.07 342.87 343.669 343.18C342.995 343.672 342.229 344.638 341.372 346.078C341.391 346.224 341.4 346.37 341.4 346.516C341.4 346.661 341.4 349.068 341.4 353.734C341.4 358.401 341.509 362.156 341.728 365C340.178 365 338.857 365 337.763 365C336.687 365 335.658 365.027 334.673 365.082V350.262C334.673 347.29 334.491 345.358 334.126 344.465C333.78 343.572 333.406 342.988 333.005 342.715C332.604 342.441 332.112 342.305 331.529 342.305C329.122 342.305 327.117 343.462 325.513 345.777V357.098ZM407.802 330.656L407.283 338.695L407.091 338.75C405.742 336.727 403.446 335.414 400.201 334.812C399.18 334.612 398.196 334.512 397.248 334.512C396.318 334.512 395.516 334.594 394.841 334.758C394.185 334.922 393.62 335.159 393.146 335.469C392.143 336.125 391.642 336.982 391.642 338.039C391.642 339.424 392.08 340.464 392.955 341.156C394.048 341.995 395.862 342.587 398.396 342.934C400.93 343.262 402.962 343.717 404.494 344.301C406.025 344.884 407.283 345.622 408.267 346.516C410.127 348.193 411.056 350.562 411.056 353.625C411.056 357.635 409.543 360.725 406.517 362.895C403.929 364.754 400.666 365.684 396.728 365.684C393.556 365.684 390.421 365.082 387.322 363.879C386.301 363.478 385.408 363.013 384.642 362.484L384.943 353.352L385.052 353.27C387.313 357.171 391.022 359.121 396.181 359.121C399.845 359.121 402.27 358.237 403.455 356.469C403.856 355.867 404.056 355.202 404.056 354.473C404.056 353.725 403.938 353.115 403.701 352.641C403.464 352.148 403.072 351.729 402.525 351.383C401.468 350.69 399.69 350.225 397.193 349.988C394.696 349.751 392.654 349.305 391.068 348.648C389.482 347.992 388.215 347.181 387.267 346.215C385.554 344.465 384.697 342.022 384.697 338.887C384.697 335.642 385.836 333.017 388.115 331.012C390.43 328.97 393.547 327.949 397.466 327.949C401.404 327.949 404.849 328.852 407.802 330.656ZM417.775 328.277C419.233 325.999 420.756 323.993 422.342 322.262L428.22 326.883C427.437 327.849 426.707 328.797 426.033 329.727C426.033 329.727 425.331 330.72 423.927 332.707L417.775 328.277ZM424.967 361.938C424.967 363.505 425.003 364.526 425.076 365H418.131V336.426H424.967V361.938ZM455.885 362.348C453.843 364.389 450.644 365.41 446.287 365.41C442.058 365.41 438.603 364.125 435.924 361.555C433.208 358.948 431.85 355.484 431.85 351.164C431.85 346.771 433.189 343.161 435.869 340.336C438.713 337.365 442.514 335.879 447.271 335.879C450.644 335.879 453.469 336.617 455.748 338.094L454.654 345.094L454.463 345.066C453.588 344.009 452.667 343.316 451.701 342.988C450.133 342.441 448.566 342.168 446.998 342.168C445.43 342.168 444.2 342.368 443.307 342.77C442.413 343.171 441.648 343.727 441.01 344.438C439.734 345.896 439.096 347.828 439.096 350.234C439.096 354.5 440.572 357.289 443.525 358.602C444.546 359.039 445.622 359.258 446.752 359.258C447.9 359.258 448.894 359.158 449.732 358.957C450.589 358.757 451.364 358.483 452.057 358.137C453.533 357.408 454.536 356.56 455.064 355.594L455.256 355.676L455.885 362.348ZM469.85 361.938C469.85 363.505 469.886 364.526 469.959 365H463.15V325.898H469.85V338.559C472.201 336.772 474.626 335.879 477.123 335.879C480.186 335.879 482.647 336.891 484.506 338.914C486.329 340.938 487.24 343.617 487.24 346.953V357.836C487.24 360.917 487.286 362.767 487.377 363.387C487.468 364.007 487.587 364.408 487.733 364.59C487.897 364.772 488.033 364.936 488.143 365.082L488.088 365.191C486.611 365.064 485.536 365 484.861 365H482.92C482.318 365 481.525 365.027 480.541 365.082V349.25C480.541 346.734 479.985 344.875 478.873 343.672C478.035 342.76 476.895 342.305 475.455 342.305C473.322 342.305 471.454 343.535 469.85 345.996V361.938ZM494.561 350.945C494.561 348.812 494.925 346.835 495.655 345.012C496.384 343.189 497.414 341.594 498.744 340.227C501.588 337.328 505.307 335.879 509.901 335.879C513.783 335.879 516.901 337.164 519.252 339.734C521.567 342.214 522.725 345.331 522.725 349.086C522.725 350.526 522.615 351.51 522.397 352.039C520.574 352.549 516.864 352.805 511.268 352.805H501.643C502.117 354.755 503.22 356.277 504.951 357.371C506.683 358.447 508.934 358.984 511.705 358.984C514.604 358.984 517.092 358.465 519.17 357.426C519.717 357.152 520.127 356.897 520.401 356.66C520.364 357.426 520.319 358.21 520.264 359.012L519.963 363.277C518.578 364.225 516.336 364.882 513.237 365.246C512.325 365.355 511.45 365.41 510.612 365.41C505.981 365.41 502.153 364.061 499.127 361.363C496.083 358.647 494.561 355.174 494.561 350.945ZM515.451 347.5C514.704 343.581 512.571 341.621 509.053 341.621C506.282 341.621 504.177 342.815 502.737 345.203C502.299 345.932 501.962 346.734 501.725 347.609C502.162 347.628 502.7 347.646 503.338 347.664H505.362C506.036 347.682 506.683 347.691 507.303 347.691H508.862C509.791 347.691 510.703 347.682 511.596 347.664L513.838 347.582C514.44 347.564 514.977 347.536 515.451 347.5ZM535.979 361.938C535.979 363.505 536.015 364.526 536.088 365H529.28V336.426H535.979V338.531C537.528 336.763 539.151 335.879 540.846 335.879C542.56 335.879 543.909 336.089 544.893 336.508L544.401 343.863L544.291 343.945C543.653 342.815 542.332 342.25 540.327 342.25C539.561 342.25 538.777 342.514 537.975 343.043C537.191 343.553 536.526 344.237 535.979 345.094V361.938ZM589.913 328.496C591.043 328.587 591.982 328.633 592.729 328.633H594.999C595.764 328.633 596.566 328.56 597.405 328.414V351.027C597.405 355.512 596.047 359.112 593.331 361.828C590.76 364.398 587.534 365.684 583.651 365.684C579.404 365.684 575.968 364.581 573.343 362.375C570.408 359.896 568.94 356.323 568.94 351.656V328.496C570.453 328.587 571.875 328.633 573.206 328.633C574.555 328.633 575.667 328.56 576.542 328.414V352.012C576.542 354.309 577.244 356.095 578.647 357.371C579.96 358.538 581.6 359.121 583.569 359.121C586.486 359.121 588.427 357.626 589.393 354.637C589.74 353.561 589.913 352.23 589.913 350.645V328.496ZM613.94 361.5C613.94 363.104 614.013 364.271 614.159 365H607.296V336.426H613.94V338.859C616.347 336.872 618.917 335.879 621.651 335.879C624.641 335.879 627.029 336.9 628.815 338.941C630.602 340.965 631.495 343.635 631.495 346.953V357.836C631.495 360.917 631.541 362.767 631.632 363.387C631.723 364.007 631.841 364.408 631.987 364.59C632.151 364.772 632.288 364.936 632.397 365.082L632.343 365.191C630.866 365.064 629.791 365 629.116 365H627.202C626.619 365 625.835 365.027 624.85 365.082V350.18C624.85 344.839 623.228 342.168 619.983 342.168C617.577 342.168 615.563 343.408 613.94 345.887V361.5ZM653.034 358.984C655.386 358.984 656.999 358.374 657.874 357.152H658.093L658.175 363.496C657.282 364.389 655.623 364.982 653.198 365.273C652.542 365.365 651.722 365.41 650.737 365.41C649.771 365.41 648.714 365.228 647.565 364.863C646.435 364.499 645.469 363.906 644.667 363.086C643.008 361.391 642.179 358.738 642.179 355.129V342.715H638.05C638.032 342.186 638.023 341.648 638.023 341.102V336.891C638.023 336.581 638.032 336.426 638.05 336.426H642.179V328.633H648.878V336.426H656.398V342.715H648.878V353.871C648.878 356.733 649.671 358.365 651.257 358.766C651.767 358.911 652.36 358.984 653.034 358.984ZM663.226 350.945C663.226 348.812 663.59 346.835 664.32 345.012C665.049 343.189 666.079 341.594 667.409 340.227C670.253 337.328 673.972 335.879 678.566 335.879C682.448 335.879 685.566 337.164 687.917 339.734C690.232 342.214 691.39 345.331 691.39 349.086C691.39 350.526 691.28 351.51 691.062 352.039C689.239 352.549 685.529 352.805 679.933 352.805H670.308C670.782 354.755 671.885 356.277 673.616 357.371C675.348 358.447 677.599 358.984 680.37 358.984C683.269 358.984 685.757 358.465 687.835 357.426C688.382 357.152 688.792 356.897 689.066 356.66C689.029 357.426 688.984 358.21 688.929 359.012L688.628 363.277C687.243 364.225 685.001 364.882 681.902 365.246C680.99 365.355 680.115 365.41 679.277 365.41C674.646 365.41 670.818 364.061 667.792 361.363C664.748 358.647 663.226 355.174 663.226 350.945ZM684.116 347.5C683.369 343.581 681.236 341.621 677.718 341.621C674.947 341.621 672.842 342.815 671.402 345.203C670.964 345.932 670.627 346.734 670.39 347.609C670.827 347.628 671.365 347.646 672.003 347.664H674.027C674.701 347.682 675.348 347.691 675.968 347.691H677.527C678.456 347.691 679.368 347.682 680.261 347.664L682.503 347.582C683.105 347.564 683.642 347.536 684.116 347.5ZM704.644 361.938C704.644 363.505 704.68 364.526 704.753 365H697.945V336.426H704.644V338.531C706.193 336.763 707.816 335.879 709.511 335.879C711.225 335.879 712.574 336.089 713.558 336.508L713.066 343.863L712.956 343.945C712.318 342.815 710.997 342.25 708.992 342.25C708.226 342.25 707.442 342.514 706.64 343.043C705.856 343.553 705.191 344.237 704.644 345.094V361.938ZM713.906 336.426H721.261L726.347 356.961L731.816 336.426H738.105L743.765 357.398L748.851 336.426H755.468L747.046 365H739.964L734.55 346.27L729.519 365H722.492L713.906 336.426ZM759.207 350.945C759.207 348.812 759.571 346.835 760.3 345.012C761.03 343.189 762.06 341.594 763.39 340.227C766.234 337.328 769.953 335.879 774.547 335.879C778.429 335.879 781.547 337.164 783.898 339.734C786.213 342.214 787.371 345.331 787.371 349.086C787.371 350.526 787.261 351.51 787.043 352.039C785.22 352.549 781.51 352.805 775.914 352.805H766.289C766.763 354.755 767.866 356.277 769.597 357.371C771.329 358.447 773.58 358.984 776.351 358.984C779.25 358.984 781.738 358.465 783.816 357.426C784.363 357.152 784.773 356.897 785.047 356.66C785.01 357.426 784.965 358.21 784.91 359.012L784.609 363.277C783.224 364.225 780.981 364.882 777.883 365.246C776.971 365.355 776.096 365.41 775.258 365.41C770.627 365.41 766.799 364.061 763.773 361.363C760.729 358.647 759.207 355.174 759.207 350.945ZM780.097 347.5C779.35 343.581 777.217 341.621 773.699 341.621C770.928 341.621 768.823 342.815 767.383 345.203C766.945 345.932 766.608 346.734 766.371 347.609C766.808 347.628 767.346 347.646 767.984 347.664H770.008C770.682 347.682 771.329 347.691 771.949 347.691H773.508C774.437 347.691 775.349 347.682 776.242 347.664L778.484 347.582C779.086 347.564 779.623 347.536 780.097 347.5ZM801.691 357.398C801.017 358.292 800.68 359.003 800.68 359.531C800.68 360.042 800.762 360.443 800.926 360.734C801.09 361.008 801.445 361.272 801.992 361.527C803.195 362.092 805.173 362.594 807.926 363.031C810.678 363.451 812.829 363.979 814.379 364.617C815.946 365.255 817.213 366.039 818.18 366.969C819.984 368.737 820.887 371.243 820.887 374.488C820.887 377.733 819.747 380.221 817.469 381.953C815.19 383.703 811.808 384.578 807.324 384.578C802.803 384.578 799.157 383.594 796.387 381.625C793.616 379.656 792.194 377.04 792.121 373.777C792.012 369.986 793.497 367.242 796.578 365.547C795.739 364.854 795.174 364.043 794.883 363.113C794.609 362.165 794.472 361.09 794.472 359.887C794.472 357.863 795.357 356.15 797.125 354.746C795.065 352.796 794.035 350.371 794.035 347.473C794.035 344.228 795.202 341.512 797.535 339.324C799.996 337.027 803.186 335.879 807.105 335.879C809.165 335.879 811.097 336.262 812.902 337.027C815.272 336.025 817.013 335.15 818.125 334.402C819.237 333.637 819.948 333.081 820.258 332.734L820.422 332.762C820.586 333.199 820.777 333.819 820.996 334.621L821.488 336.59C821.926 338.212 822.19 339.324 822.281 339.926C821.479 340.801 820.066 341.421 818.043 341.785C818.827 343.298 819.219 344.902 819.219 346.598C819.219 348.293 818.927 349.833 818.344 351.219C817.76 352.586 816.931 353.789 815.855 354.828C813.467 357.07 810.423 358.191 806.722 358.191C804.918 358.191 803.241 357.927 801.691 357.398ZM800.98 345.094C800.725 345.75 800.597 346.415 800.597 347.09C800.597 347.764 800.734 348.411 801.008 349.031C801.299 349.651 801.719 350.207 802.265 350.699C803.487 351.793 805.082 352.34 807.051 352.34C808.545 352.34 809.84 351.839 810.933 350.836C812.082 349.742 812.656 348.43 812.656 346.898C812.656 345.349 812.137 344.1 811.097 343.152C810.058 342.204 808.627 341.73 806.805 341.73C803.797 341.73 801.855 342.852 800.98 345.094ZM807.68 378.781C812.164 378.781 814.406 377.214 814.406 374.078C814.406 372.583 813.677 371.38 812.219 370.469C810.578 369.43 807.762 368.618 803.769 368.035L802.347 367.789C801.144 368.427 800.26 369.247 799.695 370.25C799.13 371.253 798.847 372.201 798.847 373.094C798.866 374.005 799.084 374.789 799.504 375.445C799.923 376.102 800.506 376.676 801.254 377.168C802.913 378.243 805.055 378.781 807.68 378.781ZM837.285 365.41C832.145 365.41 828.271 364.471 825.664 362.594C825.701 362.047 825.755 361.427 825.828 360.734L826.074 358.766C826.22 357.471 826.311 356.669 826.348 356.359C826.384 356.031 826.411 355.858 826.43 355.84C826.448 355.803 826.594 355.949 826.867 356.277C827.141 356.587 827.66 356.97 828.426 357.426C829.191 357.882 830.076 358.283 831.078 358.629C833.247 359.376 835.508 359.75 837.859 359.75C841.013 359.75 842.59 358.702 842.59 356.605C842.59 355.931 842.289 355.43 841.688 355.102C840.612 354.555 839.026 354.145 836.93 353.871C834.852 353.579 833.147 353.16 831.816 352.613C830.486 352.066 829.401 351.41 828.562 350.645C827.013 349.204 826.238 347.318 826.238 344.984C826.238 342.141 827.332 339.908 829.52 338.285C831.689 336.681 834.688 335.879 838.516 335.879C842.307 335.879 845.543 336.954 848.223 339.105C848.095 339.579 847.958 340.035 847.812 340.473C847.393 341.676 847.083 342.542 846.883 343.07L846.254 344.684C846.217 344.829 846.19 344.902 846.172 344.902C846.135 344.902 845.99 344.711 845.734 344.328C844.586 342.997 842.799 342.122 840.375 341.703C839.628 341.557 838.862 341.484 838.078 341.484C834.76 341.484 833.102 342.487 833.102 344.492C833.102 345.185 833.448 345.714 834.141 346.078C835.435 346.771 837.203 347.281 839.445 347.609C841.706 347.938 843.419 348.384 844.586 348.949C845.753 349.496 846.691 350.161 847.402 350.945C848.715 352.367 849.371 354.254 849.371 356.605C849.371 359.176 848.341 361.263 846.281 362.867C844.13 364.562 841.132 365.41 837.285 365.41Z" fill="black"/>
</svg>
