<svg width="94" height="115" viewBox="0 0 94 115" fill="none" xmlns="http://www.w3.org/2000/svg">
<path d="M35.6441 9.21362L35.6443 9.21313C41.5208 9.21331 47.0519 10.667 51.8968 13.2414C51.3854 15.1281 51.0952 17.1062 51.0952 19.1658C51.0952 30.5175 59.3799 39.9084 70.2209 41.7279C70.2645 42.4184 70.2888 43.1116 70.2888 43.8092C70.2888 49.5509 68.795 54.9753 66.2989 59.7564L35.6444 112.996L4.98987 59.7564C2.49377 54.9754 1 49.551 1 43.8092C1 24.704 16.5091 9.21362 35.6441 9.21362ZM55.8376 19.1663C55.8376 9.13509 63.9807 1 74.0301 1C84.0784 1 92.2227 9.13395 92.2227 19.1663C92.2227 29.1976 84.0796 37.3327 74.0301 37.3327C63.9819 37.3327 55.8376 29.1987 55.8376 19.1663ZM77.7718 5.47575C77.7718 3.41073 76.0961 1.73787 74.0301 1.73787C71.9656 1.73787 70.2885 3.40925 70.2885 5.47575V23.2738C70.2885 25.3388 71.9641 27.0116 74.0301 27.0116C76.0947 27.0116 77.7718 25.3403 77.7718 23.2738V5.47575ZM51.7248 43.8097C51.7248 34.938 44.5235 27.7495 35.6441 27.7495C26.7637 27.7495 19.5634 34.9391 19.5634 43.8097C19.5634 52.6813 26.7648 59.8698 35.6441 59.8698C44.5246 59.8698 51.7248 52.6802 51.7248 43.8097ZM78.4575 32.1722C78.4575 29.7287 76.4736 27.7495 74.0301 27.7495C71.5867 27.7495 69.6028 29.7287 69.6028 32.1722C69.6028 34.6156 71.5867 36.5948 74.0301 36.5948C76.4736 36.5948 78.4575 34.6156 78.4575 32.1722Z" fill="#FA7B4C" stroke="#4D4C4C" stroke-width="2"/>
</svg>
