<?xml version="1.0" encoding="UTF-8" standalone="no"?>
<!-- Created with Inkscape (http://www.inkscape.org/) -->

<svg
   version="1.1"
   id="svg2"
   width="6666.6665"
   height="6666.6665"
   viewBox="0 0 6666.6665 6666.6665"
   sodipodi:docname="01-03_City_map2v.eps"
   xmlns:inkscape="http://www.inkscape.org/namespaces/inkscape"
   xmlns:sodipodi="http://sodipodi.sourceforge.net/DTD/sodipodi-0.dtd"
   xmlns="http://www.w3.org/2000/svg"
   xmlns:svg="http://www.w3.org/2000/svg">
  <defs
     id="defs6" />
  <sodipodi:namedview
     id="namedview4"
     pagecolor="#ffffff"
     bordercolor="#000000"
     borderopacity="0.25"
     inkscape:showpageshadow="2"
     inkscape:pageopacity="0.0"
     inkscape:pagecheckerboard="0"
     inkscape:deskcolor="#d1d1d1" />
  <g
     id="g8"
     inkscape:groupmode="layer"
     inkscape:label="ink_ext_XXXXXX"
     transform="matrix(1.3333333,0,0,-1.3333333,0,6666.6667)">
    <g
       id="g10"
       transform="scale(0.1)">
      <path
         d="M 35000,0 H -15000 V 50000 H 35000 V 0"
         style="fill:#ede7db;fill-opacity:1;fill-rule:nonzero;stroke:none"
         id="path12" />
      <path
         d="M -6000,5400 C 485,-735 7350,-4830 12960,-1040 L 14590,3350 11040,6730 6910,2950 -2850,7810 -6000,5400"
         style="fill:#b5d379;fill-opacity:1;fill-rule:nonzero;stroke:none"
         id="path14" />
      <path
         d="M -6320,54470 C 165,48335 6770,44670 12500,47530 l 1840,5150 -3440,3250 -3990,-2980 -9740,4260 -3490,-2740"
         style="fill:#b5d379;fill-opacity:1;fill-rule:nonzero;stroke:none"
         id="path16" />
      <path
         d="m 19950,10850 c 0,-1419.4 -1150.6,-2570 -2570,-2570 -1419.4,0 -2570,1150.6 -2570,2570 0,1419.4 1150.6,2570 2570,2570 1419.4,0 2570,-1150.6 2570,-2570"
         style="fill:#b5d379;fill-opacity:1;fill-rule:nonzero;stroke:none"
         id="path18" />
      <path
         d="m 11530,23160 2800,-5840 5090,1230 -1230,2700 9340,5990 -5750,8130 -10250,-12210"
         style="fill:#b5d379;fill-opacity:1;fill-rule:nonzero;stroke:none"
         id="path20" />
      <path
         d="m 3380,45674.3 230,-3918 7060,1043.7 864.2,2319.4 -8154.2,554.9"
         style="fill:#b5d379;fill-opacity:1;fill-rule:nonzero;stroke:none"
         id="path22" />
      <path
         d="M 11039.7,6734.4 6710,3570 -3010,7810 -5630,5600"
         style="fill:none;stroke:#ffffff;stroke-width:500;stroke-linecap:round;stroke-linejoin:round;stroke-miterlimit:10;stroke-dasharray:none;stroke-opacity:1"
         id="path24" />
      <path
         d="M 21777.3,35366.6 36700,14310"
         style="fill:none;stroke:#ffffff;stroke-width:500;stroke-linecap:round;stroke-linejoin:round;stroke-miterlimit:10;stroke-dasharray:none;stroke-opacity:1"
         id="path26" />
      <path
         d="m 27530,27240 -9340,-5990 1230,-2700 -5090,-1230"
         style="fill:none;stroke:#ffffff;stroke-width:500;stroke-linecap:round;stroke-linejoin:round;stroke-miterlimit:10;stroke-dasharray:none;stroke-opacity:1"
         id="path28" />
      <path
         d="m 19420,18550 13817.7,645.5"
         style="fill:none;stroke:#ffffff;stroke-width:500;stroke-linecap:round;stroke-linejoin:round;stroke-miterlimit:10;stroke-dasharray:none;stroke-opacity:1"
         id="path30" />
      <path
         d="M 9020,38350 19350,32475.2"
         style="fill:none;stroke:#ffffff;stroke-width:500;stroke-linecap:round;stroke-linejoin:round;stroke-miterlimit:10;stroke-dasharray:none;stroke-opacity:1"
         id="path32" />
      <path
         d="m -18338.1,21418.9 5338.1,3581.1 7390,900 8660,-3620 8480,880 17050,20310 2180,3780 -4960,15110 -660,6460"
         style="fill:none;stroke:#ffffff;stroke-width:500;stroke-linecap:round;stroke-linejoin:round;stroke-miterlimit:10;stroke-dasharray:none;stroke-opacity:1"
         id="path34" />
      <path
         d="m 44390,25900 -7390,-900 -5338.1,-3581.1"
         style="fill:none;stroke:#ffffff;stroke-width:500;stroke-linecap:round;stroke-linejoin:round;stroke-miterlimit:10;stroke-dasharray:none;stroke-opacity:1"
         id="path36" />
      <path
         d="m -13550,11930 9925,-587.5 8025,2027.5"
         style="fill:none;stroke:#ffffff;stroke-width:500;stroke-linecap:round;stroke-linejoin:round;stroke-miterlimit:10;stroke-dasharray:none;stroke-opacity:1"
         id="path38" />
      <path
         d="m 1850,5690 4130,6180 9430,3580"
         style="fill:none;stroke:#ffffff;stroke-width:500;stroke-linecap:round;stroke-linejoin:round;stroke-miterlimit:10;stroke-dasharray:none;stroke-opacity:1"
         id="path40" />
      <path
         d="m 25140,18820 660,-6460 4960,-15110"
         style="fill:none;stroke:#ffffff;stroke-width:500;stroke-linecap:round;stroke-linejoin:round;stroke-miterlimit:10;stroke-dasharray:none;stroke-opacity:1"
         id="path42" />
      <path
         d="m 3380,46100 230,-6700"
         style="fill:none;stroke:#ffffff;stroke-width:500;stroke-linecap:round;stroke-linejoin:round;stroke-miterlimit:10;stroke-dasharray:none;stroke-opacity:1"
         id="path44" />
      <path
         d="M 40930,36970 24789.8,31115.8"
         style="fill:none;stroke:#ffffff;stroke-width:500;stroke-linecap:round;stroke-linejoin:round;stroke-miterlimit:10;stroke-dasharray:none;stroke-opacity:1"
         id="path46" />
      <path
         d="M 9020,22720 8112.33,12679.5"
         style="fill:none;stroke:#ffffff;stroke-width:500;stroke-linecap:round;stroke-linejoin:round;stroke-miterlimit:10;stroke-dasharray:none;stroke-opacity:1"
         id="path48" />
      <path
         d="M 2700,20690 8630,18405.9"
         style="fill:none;stroke:#ffffff;stroke-width:500;stroke-linecap:round;stroke-linejoin:round;stroke-miterlimit:10;stroke-dasharray:none;stroke-opacity:1"
         id="path50" />
      <path
         d="M 17935.3,33279.8 23990,43300 16700,49310"
         style="fill:none;stroke:#ffffff;stroke-width:500;stroke-linecap:round;stroke-linejoin:round;stroke-miterlimit:10;stroke-dasharray:none;stroke-opacity:1"
         id="path52" />
      <path
         d="m 15410,42980 6370,-3340 1340.1,-2673.9"
         style="fill:none;stroke:#ffffff;stroke-width:500;stroke-linecap:round;stroke-linejoin:round;stroke-miterlimit:10;stroke-dasharray:none;stroke-opacity:1"
         id="path54" />
      <path
         d="M 40930,48510 33240,41410 30755.9,33279.8 33601.4,22720"
         style="fill:none;stroke:#ffffff;stroke-width:500;stroke-linecap:round;stroke-linejoin:round;stroke-miterlimit:10;stroke-dasharray:none;stroke-opacity:1"
         id="path56" />
      <path
         d="M -9220,48372 8110,36250"
         style="fill:none;stroke:#ffffff;stroke-width:500;stroke-linecap:round;stroke-linejoin:round;stroke-miterlimit:10;stroke-dasharray:none;stroke-opacity:1"
         id="path58" />
      <path
         d="M 239.602,41756.3 -1350,35620 1050,23116 -1700,16380"
         style="fill:none;stroke:#ffffff;stroke-width:500;stroke-linecap:round;stroke-linejoin:round;stroke-miterlimit:10;stroke-dasharray:none;stroke-opacity:1"
         id="path60" />
      <path
         d="m 30760,47250 7266,-1421.2"
         style="fill:none;stroke:#ffffff;stroke-width:500;stroke-linecap:round;stroke-linejoin:round;stroke-miterlimit:10;stroke-dasharray:none;stroke-opacity:1"
         id="path62" />
      <path
         d="M 35650,4200 29310,1670 19420,3570"
         style="fill:none;stroke:#ffffff;stroke-width:500;stroke-linecap:round;stroke-linejoin:round;stroke-miterlimit:10;stroke-dasharray:none;stroke-opacity:1"
         id="path64" />
      <path
         d="M 3610,41756.3 10670,42800"
         style="fill:none;stroke:#ffffff;stroke-width:500;stroke-linecap:round;stroke-linejoin:round;stroke-miterlimit:10;stroke-dasharray:none;stroke-opacity:1"
         id="path66" />
      <path
         d="m -16133.6,11138.7 c 724.3,-66.5 1448.3,-182.5 2160.7,-353.5 l 266.9,-65 c 88.6,-23.3 176.7,-48.6 265,-72.9 l 132.4,-37 66.1,-18.5 c 22.1,-6.1 43.8,-13.5 65.7,-20.2 l 262.2,-82.1 131,-41.3 129.7,-45.2 259.1,-90.8 c 43.4,-14.6 85.8,-31.6 128.5,-47.9 l 128,-49.3 127.9,-49.3 c 42.6,-16.7 85.6,-32.4 127.4,-50.6 l 252.3,-106.3 126,-53.4 124.3,-56.8 248.4,-113.7 31,-14.2 30.6,-15.1 61.1,-30 122.2,-60.3 122.2,-60.3 61,-30.2 60.1,-31.8 240.1,-127 c 80.6,-41.7 158.7,-86.7 237.4,-130.9 78.6,-44.4 157.5,-88.4 235.7,-133.3 l 231.55,-138.5 115.71,-69.3 c 38.26,-23.5 75.84,-47.8 113.78,-71.6 l 227.04,-143.9 c 38.16,-23.6 74.67,-48.9 112.02,-73.4 l 111.45,-74.1 111.4,-74.2 c 18.5,-12.4 37.29,-24.6 55.53,-37.2 l 54.66,-38.2 218.54,-152.5 54.61,-38.2 c 18.13,-12.8 35.8,-26 53.73,-38.9 l 107.18,-78.2 107.14,-78.2 c 35.58,-26.2 71.78,-51.9 106.52,-78.8 l 210.42,-159.6 c 34.92,-26.7 70.46,-53 104.85,-80.1 l 103.28,-81.3 206.36,-162.7 202.76,-165.3 101.35,-82.7 99.69,-83.7 199.27,-167.5 196.32,-169.1 c 65.38,-56.4 130.96,-112.7 194.87,-169.8 516,-454.9 1012.76,-918.9 1495.39,-1381.8 l 360.3,-346.8 355.73,-343.7 c 230.35,-222.6 462.25,-442.6 695.75,-660 467.38,-434.5 942.85,-857.1 1427.72,-1264.7 C -1226.32,1832.7 -218.824,1076.4 824.391,407.402 1346.06,73.5977 1876,-239.199 2413.28,-524 2681.93,-666.402 2952.08,-802.598 3223.94,-930.398 3495.83,-1058.1 3769,-1178.8 4043.19,-1291 c 274.35,-111.6 549.62,-215 825.49,-309.1 34.43,-12.2 69.04,-22.9 103.51,-34.5 l 103.47,-34.2 103.59,-32.7 c 34.51,-11 69.02,-21.9 103.6,-31.9 l 103.61,-31.2 c 34.5,-10.6 69.11,-19.9 103.64,-29.9 34.55,-9.7 69.06,-20 103.62,-29.3 l 103.68,-27.8 51.8,-14.1 51.83,-13.1 103.6,-26.3 c 34.54,-8.7 69.1,-16.4 103.63,-24.7 34.53,-8 69.03,-16.9 103.58,-24.2 69.04,-14.9 138.01,-31.4 207,-44.7 l 103.43,-21.2 103.38,-19.2 c 275.53,-51.7 550.29,-90.5 823.45,-116.8 68.36,-7.3 136.45,-12.2 204.58,-17.7 34.09,-3.1 68.04,-4.6 102.02,-6.7 l 101.92,-6 c 135.58,-5.5 270.98,-10.8 405.51,-9.8 134.77,-0.7 268.59,4 402.18,9.8 133.19,8.3 266.22,17.1 398.02,32.3 132.16,13.3 263.05,32.7 393.71,52.9 l 97.55,17.2 c 32.47,5.9 65.17,10.9 97.39,17.9 64.59,13.3 129.55,25.1 193.65,40.5 257.27,58.1 511.57,128.3 761.17,215.8 249.8,87 495.8,187.5 737.5,302 l 22.8,10.5 22.5,11.2 45,22.3 90.2,44.4 89.3,46.9 44.7,23.3 c 15,7.7 29.9,15.5 44.6,23.8 118.3,64.8 236.1,131.6 352.1,202.8 464.8,283.398 910.5,618.398 1334.6,994.902 212,188.2972 418.5,387.098 619.5,594.801 201.1,207.699 397.3,423.598 587.6,647.797 190,224.5 374.5,456.6 554.3,694.7 l 67.2,89.6 c 22.4,29.8 45,59.5 66.8,90.1 l 132,182 c 86.5,123.1 173.6,245.6 257.7,371.4 42.4,62.5 85,124.8 126.1,188.6 l 124.6,190.4 263.9,414.9 c 198.6,309.3 407.7,611.4 626.5,905.7 219.2,294 449.3,579.2 687.7,856.5 238.7,277.1 485.6,546.5 741.8,805.9 1025.1,1037.7 2179.6,1932.2 3416.4,2670.8 1236,741.1 2554.9,1324.9 3914.6,1761.5 1360.9,433.9 2764.5,718 4180.7,850.1 354.1,33.3 709,55.2 1064.1,70 l 133.2,4.9 c 44.4,1.7 88.8,3.5 133.2,4.1 l 266.5,5.5 c 177.7,1 355.3,2.5 533,-0.9 710.6,-9.1 1420.3,-59.3 2125.8,-142.5 688.1,-83.4 1378.7,-189.7 2071.8,-330.8 692.9,-140.8 1387.9,-317.9 2080,-542.3 774.1,-250.9 1198.3,-1081.8 947.4,-1855.9 -250.9,-774.1 -1081.9,-1198.2 -1855.9,-947.3 -7.1,2.3 -21.3,7.1 -28.3,9.5 -555.1,192.4 -1135.3,344.9 -1730.4,467.7 -595.2,122.4 -1205.6,214.2 -1823.3,283.8 -300.4,33 -601.6,57.7 -903.3,74.6 l -226.3,11.2 -226.5,7.2 -56.7,1.8 -56.6,0.8 -113.3,1.7 -113.3,1.7 -113.3,-0.3 c -151,0.9 -302.1,-2.8 -453.1,-5.7 l -226.4,-7.9 c -37.7,-1.1 -75.4,-3.2 -113.1,-5.2 l -113.1,-5.8 c -37.7,-2.1 -75.4,-3.6 -113.1,-6.1 l -113,-7.8 c -75.3,-5.3 -150.6,-9.8 -225.8,-16.9 -75.2,-6.7 -150.4,-12.6 -225.6,-19.9 l -225.2,-23.2 c -299.9,-33.4 -599,-74.5 -896.6,-123.1 l -223,-38 -222.2,-41.9 -55.5,-10.4 -55.4,-11.5 -110.7,-22.8 -110.6,-22.9 -110.3,-24.7 c -588.5,-129.5 -1168.4,-294.1 -1737.1,-487.4 -284.1,-97.4 -565.1,-202.9 -842.9,-315.5 l -104.1,-42.5 -52,-21.2 -51.6,-22.2 -206.3,-88.8 -204.7,-92.1 c -34.3,-15 -67.8,-31.5 -101.7,-47.3 l -101.5,-47.7 c -269.9,-128.6 -536,-264.4 -797.7,-407.4 -261.5,-143.2 -517.9,-294.8 -769.7,-452.7 -1007.2,-631.8 -1930.1,-1383.5 -2734.7,-2234.9 -402.2,-425.9 -773.7,-877.2 -1113,-1349.4 -168.9,-236.7 -329.4,-478.6 -481.3,-725.4 l -257.7,-422 c -46.7,-75.1 -94.3,-149.9 -141.5,-224.798 -46.8,-75 -95.6,-149.301 -144.2,-223.602 -387.1,-595.598 -810.2,-1177 -1271.3,-1738.3 -231.2,-280.3 -472.9,-555.3 -725.8,-823 -253.1,-267.6 -517.5,-528.3 -794.2,-779.7 -552.9,-502.9 -1156.7,-968.8 -1811.7,-1374.9 -163.4,-101.8 -330.8,-198.9 -500.2,-293 -21,-11.9 -42.4,-23.4 -63.8,-34.8 l -64.3,-34.2 -128.7,-68.3 -130.5,-65.5 -65.3,-32.6 -32.6,-16.4 -33.1,-15.7 c -351.4,-169.1 -713.6,-320.3 -1084.3,-450.6 -46.1,-16.9 -92.9,-32.1 -139.5,-47.6 l -140,-46.4 -141.1,-43.3 c -47.1,-14.2 -93.9,-29.2 -141.4,-42.1 -94.8,-26.3 -189.3,-54 -285,-77.4 l -143.1,-36.1 -143.9,-33.1 c -95.8,-22.7 -192.4,-41.4 -288.8,-61.1 -48.1,-10.2 -96.6,-18.2 -145,-27.1 -48.3,-8.7 -96.71,-17.6 -145.16,-25.8 -193.99,-31.1 -388.43,-59.5 -583.32,-79.6 -194.82,-22.1 -389.83,-36.1 -584.72,-47.7 -194.75,-9 -389.53,-15.9 -583.5,-14.6 -48.49,0.3 -97.09,-0.1 -145.48,0.9 l -145.14,3.3 -72.55,1.9 -72.33,3 -144.66,6.5 c -192.32,11.6 -384.26,25.5 -574.51,46.2 -47.56,5.2 -95.26,9.9 -142.69,15.6 l -142.04,17.8 -71,9.1 -70.64,10.2 -141.24,20.5 c -46.98,7.2 -93.65,15.3 -140.48,22.9 -46.72,8 -93.75,15.1 -140.13,24 -92.95,17.2 -186.27,33.6 -278.42,52.9 l -138.51,28.4 -137.62,30.5 c -92,19.8 -182.66,42.6 -273.84,64.3 -45.63,10.8 -90.55,23.1 -135.84,34.6 -45.14,11.8 -90.52,23.2 -135.44,35.4 l -134.61,37.2 -67.27,18.6 -66.79,19.6 c -356.43,104.3 -706.7,220.6 -1049.33,349.3 -342.69,128.6 -678.7,267.9 -1008.11,416.4 -329.19,148.8 -651.65,306.9 -968.06,472.6 -39.71,20.4 -79.1,41.3 -118.34,62.4 l -117.87,63.1 c -78.22,42.4 -156.18,85.2 -233.91,128.2 -154.88,86.8 -308.887,174.7 -460.902,264.7 -609.239,359 -1195.235,743.7 -1763.418,1145.2 -284.14,200.7 -563.4,406.1 -838.8,615 -137.92,104.2 -274.37,209.7 -410.31,315.7 -135.51,106.4 -270.37,213.5 -404.16,321.302 C -3119.39,-507.402 -3640.4,-63.7031 -4149.99,388.797 -4659.58,841.402 -5157.5,1303.2 -5646,1771.5 c -244.25,234.1 -485.97,470.1 -725.01,707.8 l -348.53,346.5 c -115.4,114.3 -231.1,228.6 -346.25,341.2 -115.31,113.5 -230.5,224.8 -345.7,336.6 -57.58,56.3 -115.28,110.7 -172.9,166.1 -57.69,54.9 -115.2,110.9 -173.02,165 -115.49,108.7 -231.13,218 -347.36,324.1 -58.11,53.3 -115.95,107.4 -174.25,159.9 l -174.92,157.5 c -58.15,52.9 -116.88,104.1 -175.52,155.5 l -175.97,154.2 -177.21,150.9 -88.65,75.4 -89.33,73.6 -178.59,147.2 -180.06,143.5 -90.02,71.8 c -29.98,23.9 -60.5,46.6 -90.72,69.9 l -181.69,139.4 c -486.9,366 -986.2,701.5 -1499.2,1001.7 l -193.7,109.1 c -64.6,36.3 -128.8,73.6 -194.5,106.9 l -196,102.9 -48.9,25.8 -49.6,24.2 -99.1,48.4 -99,48.5 -49.6,24.2 -24.7,12.2 -25.1,11.3 -200.3,90.5 -100.2,45.3 -101.3,41.9 -202.5,84.1 c -1085,432.6 -2228.1,689.8 -3401,766.7 -812,53.2 -1427.2,754.6 -1374,1566.6 53.2,812.1 754.7,1427.2 1566.7,1374 10.5,-0.7 21,-1.5 31.5,-2.4 l 8.6,-0.8"
         style="fill:#ffffff;fill-opacity:1;fill-rule:nonzero;stroke:none"
         id="path68" />
      <path
         d="m -16178.9,10567.2 c 696.9,-68.6 1391.4,-182.3 2074.3,-347.5 682.8,-165 1354.3,-379.7 2003.9,-643.7 649,-265.4 1277.2,-576 1879.6,-923.4 600.67,-350.1 1177.5,-733.5 1729.4,-1141.9 l 205.55,-154.5 c 34.13,-25.9 68.81,-51.3 102.47,-77.6 l 101.14,-78.8 202.17,-157.8 199.04,-160.5 99.59,-80.2 98.13,-81.4 196.11,-162.9 193.55,-164.8 c 64.5,-55 129.18,-109.9 192.4,-165.7 l 190.75,-166.8 c 63.59,-55.6 125.86,-112 188.86,-168 126.35,-111.7 249.63,-225.3 374.16,-337.9 247.15,-226.4 492.41,-453.6 734.39,-681.2 l 362.44,-340.8 359.59,-339 c 235.67,-221.5 473.35,-440.2 713.22,-655.8 240.03,-215.5 481.82,-428.4 726.52,-637.2 244.46,-209.1 490.84,-415.2 739.94,-617.2 C -1516.11,1473.7 -484.094,721.402 579.031,44.1992 1110.81,-293.797 1650.19,-613.301 2197.46,-907.898 2744.45,-1203.2 3299.71,-1472.7 3861.6,-1711.4 c 140.66,-58.9 281.51,-117 422.9,-172 l 106.03,-41.3 106.34,-39.9 c 70.81,-27 141.92,-52.1 212.89,-78.1 284.26,-101.8 570.2,-193.2 857.3,-274.1 287.09,-81.2 575.58,-149.5 864.38,-206.5 72.17,-15 144.47,-27.1 216.7,-40.3 36.11,-6.9 72.28,-12 108.41,-18 36.14,-5.7 72.27,-11.9 108.41,-17.3 l 108.42,-15.4 54.2,-7.8 54.21,-6.7 108.38,-13.5 c 36.12,-4.3 72.23,-7.6 108.35,-11.6 144.46,-15.8 288.73,-26 432.87,-34.9 144.01,-6.8 287.98,-12.6 431.36,-12.3 143.56,-1.5 286.47,3.2 429.2,8.9 142.42,8.3 284.73,17.4 426,33.1 141.6,13.8 282.09,33.9 422.33,55.2 l 104.78,18 c 34.88,6.3 69.96,11.5 104.61,18.9 69.42,14 139.19,26.6 208.12,42.8 276.51,61.3 550.21,135.9 818.51,228.8 268.5,92.5 532.8,199.2 791.8,320.9 259.2,121.3 512.5,258.7 760.4,408.3 495.7,299.7 968,652.497 1414.4,1046.497 446.4,394.101 867.9,828.301 1264.3,1292.203 197.6,232.6 390,471.8 576.4,717.2 l 69.7,92.3 c 23.2,30.7 46.6,61.3 69.2,92.8 l 136.6,187.3 c 89.4,126.6 179.5,252.6 266.3,381.7 l 65.7,96.3 c 22,32 43,64.9 64.6,97.3 l 128.7,195.1 265.4,414.5 c 192.5,298 395.1,589 607.2,872.6 212.6,283.1 435.5,557.9 666.5,825.1 231.3,267 470.4,526.6 718.8,776.6 992.9,1000.7 2111.7,1864.3 3311.6,2577.4 300,178.4 604.6,348.4 914,508.4 309.5,159.7 623.4,310.2 940.7,452.3 l 119.2,52.8 c 39.8,17.4 79.3,35.5 119.4,52.1 l 240.1,101.4 241.6,97.4 60.4,24.3 60.8,23.3 121.5,46.5 c 324.5,123.2 652.1,237.6 982.3,342.9 661,208.9 1331.8,384.2 2010.2,519.3 l 127.1,25.7 127.5,23.9 127.5,23.6 63.7,11.9 63.9,10.8 255.7,43 256.2,38.9 c 342,49.5 685.1,90.2 1029,122.1 343.9,31.5 688.6,53.2 1033.4,66.8 l 129.4,4.6 c 43.1,1.5 86.2,3.2 129.3,3.8 l 258.8,4.9 c 172.6,0.7 345.1,1.9 517.6,-1.6 344.9,-5.8 689.7,-19.2 1033.8,-43.6 344.1,-24.2 687.5,-56.2 1029.9,-97.2 674.2,-82.2 1348.9,-186.2 2022.8,-323.2 336.9,-68.5 673.5,-145.3 1009.3,-231.8 l 125.9,-32.7 125.7,-34.3 c 83.9,-22.2 167.5,-46.5 251.2,-70.5 l 62.8,-18 62.6,-18.9 125.4,-37.6 c 83.5,-25.3 166.8,-52.4 250.3,-78.3 474.8,-147.3 740.4,-651.6 593.1,-1126.4 -147.2,-474.9 -651.5,-740.4 -1126.4,-593.2 -6.3,2 -12.5,4 -18.7,6.1 l -20.3,6.9 c -72.9,24.7 -145.4,50 -218.7,73.9 l -110.1,35.4 -55.1,17.6 -55.5,16.8 c -74,22.4 -147.8,45.2 -222.5,66.2 l -111.7,31.8 -112.5,30.4 c -299.9,81 -604.1,152.4 -911.2,215.7 -614.3,126.6 -1240.7,220.5 -1872.3,291.4 -310.8,33.8 -622.4,59.4 -934.4,76.5 l -234.1,11.4 -234.3,7.2 -58.5,1.8 -58.6,0.8 -117.2,1.6 -117.1,1.6 -117.2,-0.4 c -156.2,0.6 -312.4,-3.3 -468.5,-6.5 l -234.1,-8.5 c -39,-1.1 -78,-3.3 -117,-5.4 l -116.9,-6.2 c -311.8,-17.8 -623.2,-42.2 -933.3,-77.1 -310.2,-35 -619.3,-77.9 -927,-128.6 l -230.5,-39.6 -229.8,-43.4 -57.5,-10.8 -57.2,-11.9 -114.5,-23.6 -114.4,-23.7 -114,-25.6 c -608.5,-134.9 -1208,-306.2 -1796.5,-506.3 -1175.3,-405.2 -2304,-937.9 -3346.8,-1597.6 -1044.1,-657.3 -2002.7,-1439.8 -2839.5,-2328.3 -209.4,-222 -409.9,-451.6 -603,-686.7 -192.9,-235.2 -378.1,-476.2 -554.1,-723.4 -175.7,-247.4 -342.7,-500.4 -500.7,-758.6 l -256.2,-422.4 c -45.3,-73.5 -91.6,-146.6 -137.4,-220 -45.4,-73.5 -92.9,-146 -140.1,-218.7 -93.4,-145.802 -191.2,-289.498 -288.4,-433.599 l -149.1,-214.399 c -24.6,-35.902 -50.3,-71.203 -75.7,-106.601 l -76.5,-106.203 c -205.2,-282.7 -418.1,-561.395 -641.3,-833.996 -223.3,-272.399 -456.7,-538.902 -700,-798.502 -243.5,-259.4 -497.2,-511.8 -762.8,-754.5 -530.5,-485.4 -1107.8,-933.6 -1731.9,-1323.3 -155.8,-97.8 -315.1,-190.8 -476.3,-281 -20,-11.5 -40.4,-22.5 -60.8,-33.4 l -61.1,-32.8 -122.4,-65.5 -124.1,-62.7 -62.1,-31.3 -31.1,-15.7 -31.4,-15 c -334,-161.9 -678,-306.9 -1030,-431.7 -43.8,-16.3 -88.2,-30.8 -132.5,-45.7 l -132.9,-44.5 -133.9,-41.5 c -44.7,-13.6 -89.1,-28.1 -134.3,-40.4 -90,-25.2 -179.7,-51.8 -270.5,-74.3 l -135.9,-34.8 -136.7,-31.8 c -90.9,-21.9 -182.7,-39.8 -274.3,-58.9 -45.7,-9.8 -91.8,-17.5 -137.72,-26.1 -45.99,-8.3 -91.94,-17 -137.99,-24.9 -184.4,-30 -369.24,-57.7 -554.69,-77.4 -185.35,-21.5 -371.07,-35.2 -556.74,-46.8 -185.61,-9.1 -371.31,-16 -556.48,-15.5 -185.35,-1.2 -369.98,5.1 -554.31,13.1 -183.99,10.2 -367.72,22.8 -550.16,41.6 -45.6,4.8 -91.33,9 -136.84,14.1 l -136.33,16.4 -68.15,8.2 -67.86,9.5 -135.69,19 c -45.16,6.6 -90.07,14 -135.11,21 -44.95,7.4 -90.17,13.9 -134.84,22.1 -89.5,16 -179.33,31 -268.19,49 -356.42,68.9 -708.18,152.3 -1053.8,249.6 -345.69,97.2 -686.54,205.5 -1020.74,326.7 -83.3,30.7 -167.18,60.3 -249.65,92.6 l -124.12,47.7 -123.31,49.1 c -164.56,65.2 -326.76,134.5 -488.35,204.8 -644.63,284 -1266.21,604.8 -1864.86,954.6 -599.244,349.2 -1175.799,727 -1733.889,1124.4 C -1800.91,-1031.6 -2840.84,-157 -3833.99,754.102 -4330.58,1209.8 -4815.23,1675.3 -5291.26,2147 c -237.89,235.9 -473.81,473.2 -707.54,712 l -344.67,351.3 c -114.57,116.2 -229.4,232.2 -344.1,347.1 -114.73,115.5 -230.07,228.9 -345.19,342.8 -57.45,57.3 -115.6,112.8 -173.4,169.3 -57.96,56 -115.59,112.9 -173.81,168.3 -116.28,111 -232.6,222.6 -349.98,331.4 -58.65,54.5 -116.94,109.8 -175.89,163.8 l -177.11,161.5 c -58.85,54.2 -118.48,106.8 -178.01,159.7 -59.56,52.8 -118.9,106.1 -178.74,158.5 l -180.36,155.4 -90.21,77.7 -91.09,76.1 -182.32,152 -184.24,148.5 -92.15,74.2 c -30.72,24.8 -62.09,48.3 -93.1,72.5 l -186.57,144.4 c -30.9,24.4 -62.68,47.2 -94.07,70.7 l -94.45,70 -94.47,70.1 c -15.78,11.6 -31.41,23.5 -47.31,34.8 l -47.84,33.9 -191.32,135.6 -47.9,33.9 c -15.9,11.2 -32.2,21.8 -48.3,32.8 l -97,65.3 -97,65.3 c -32.4,21.6 -64.3,44.2 -97.2,64.7 l -196.6,125.5 c -32.8,20.7 -65.4,42.1 -98.4,62.5 l -99.6,60 -199.2,119.9 c -535.2,311.7 -1088.2,585.6 -1657.3,815.2 -1139.3,455.8 -2345.6,726.3 -3573.4,799.1 -496.3,29.4 -874.7,455.6 -845.3,951.9 29.4,496.3 455.6,874.7 951.9,845.3 10.5,-0.6 20.9,-1.4 31.2,-2.4 l 4.4,-0.4"
         style="fill:#5bafb2;fill-opacity:1;fill-rule:nonzero;stroke:none"
         id="path70" />
      <path
         d="m -16133.6,61138.7 c 724.3,-66.5 1448.3,-182.5 2160.7,-353.5 l 266.9,-65 c 88.6,-23.3 176.7,-48.6 265,-72.9 l 132.4,-37 66.1,-18.5 c 22.1,-6.1 43.8,-13.5 65.7,-20.2 l 262.2,-82.1 131,-41.3 129.7,-45.2 259.1,-90.8 c 43.4,-14.6 85.8,-31.6 128.5,-47.9 l 128,-49.3 127.9,-49.3 c 42.6,-16.7 85.6,-32.4 127.4,-50.6 l 252.3,-106.3 126,-53.4 124.3,-56.8 248.4,-113.7 31,-14.2 30.6,-15.1 61.1,-30 122.2,-60.3 122.2,-60.3 61,-30.2 60.1,-31.7 240.1,-127.1 c 80.6,-41.7 158.7,-86.7 237.4,-130.9 78.6,-44.4 157.5,-88.4 235.7,-133.3 l 231.55,-138.5 115.71,-69.3 c 38.26,-23.5 75.84,-47.8 113.78,-71.6 l 227.04,-143.9 c 38.16,-23.6 74.67,-48.9 112.02,-73.4 l 111.45,-74.1 111.4,-74.2 c 18.5,-12.4 37.29,-24.6 55.53,-37.2 l 54.66,-38.2 218.54,-152.5 54.61,-38.2 c 18.13,-12.8 35.8,-25.9 53.73,-38.9 l 107.18,-78.2 107.14,-78.2 c 35.58,-26.2 71.78,-51.9 106.52,-78.8 l 210.42,-159.6 c 34.92,-26.7 70.46,-53 104.85,-80.1 l 103.28,-81.3 206.36,-162.7 202.76,-165.3 101.35,-82.7 99.69,-83.7 199.27,-167.5 196.32,-169.1 c 65.38,-56.4 130.96,-112.7 194.87,-169.8 516,-454.9 1012.76,-918.9 1495.39,-1381.8 l 360.3,-346.7 355.73,-343.8 c 230.35,-222.6 462.25,-442.6 695.75,-660.1 467.38,-434.4 942.85,-857 1427.72,-1264.6 969.36,-815.1 1976.856,-1571.4 3020.071,-2240.4 521.669,-333.8 1051.609,-646.6 1588.889,-931.4 268.65,-142.4 538.8,-278.6 810.66,-406.4 271.89,-127.7 545.06,-248.4 819.25,-360.6 274.35,-111.6 549.62,-215 825.49,-309.1 34.43,-12.2 69.04,-22.9 103.51,-34.5 l 103.47,-34.2 103.59,-32.7 c 34.51,-11 69.02,-21.9 103.6,-31.9 l 103.61,-31.2 c 34.5,-10.6 69.11,-19.9 103.64,-29.9 34.55,-9.7 69.06,-20 103.62,-29.3 l 103.68,-27.8 51.8,-14.1 51.83,-13.1 103.6,-26.3 c 34.54,-8.7 69.1,-16.5 103.63,-24.8 34.53,-7.9 69.03,-16.8 103.58,-24.1 69.04,-14.9 138.01,-31.4 207,-44.7 l 103.43,-21.2 103.38,-19.2 c 275.53,-51.7 550.29,-90.5 823.45,-116.8 68.36,-7.3 136.45,-12.2 204.58,-17.7 34.09,-3.1 68.04,-4.6 102.02,-6.7 l 101.92,-6 c 135.58,-5.6 270.98,-10.8 405.51,-9.8 134.77,-0.7 268.59,4 402.18,9.8 133.19,8.2 266.22,17.1 398.02,32.3 132.16,13.3 263.05,32.7 393.71,52.9 l 97.55,17.2 c 32.47,5.9 65.17,10.8 97.39,17.9 64.59,13.3 129.55,25.1 193.65,40.5 257.27,58.1 511.57,128.3 761.17,215.8 249.8,87 495.8,187.5 737.5,302 l 22.8,10.5 22.5,11.2 45,22.3 90.2,44.4 89.3,46.9 44.7,23.3 c 15,7.7 29.9,15.5 44.6,23.8 118.3,64.8 236.1,131.6 352.1,202.8 464.8,283.4 910.5,618.4 1334.6,994.9 212,188.3 418.5,387.1 619.5,594.8 201.1,207.7 397.3,423.5 587.6,647.8 190,224.4 374.5,456.6 554.3,694.7 l 67.2,89.6 c 22.4,29.8 45,59.5 66.8,90.1 l 132,182 c 86.5,123.1 173.6,245.6 257.7,371.4 42.4,62.5 85,124.8 126.1,188.6 l 124.6,190.4 263.9,414.9 c 198.6,309.3 407.7,611.4 626.5,905.7 219.2,294 449.3,579.2 687.7,856.5 238.7,277.1 485.6,546.5 741.8,805.9 1025.1,1037.7 2179.6,1932.2 3416.4,2670.8 1236,741.1 2554.9,1324.9 3914.6,1761.5 1360.9,433.9 2764.5,718 4180.7,850.1 354.1,33.3 709,55.2 1064.1,70 l 133.2,4.9 c 44.4,1.7 88.8,3.5 133.2,4.1 l 266.5,5.5 c 177.7,1 355.3,2.5 533,-0.9 710.6,-9.1 1420.3,-59.3 2125.8,-142.6 688.1,-83.3 1378.7,-189.6 2071.8,-330.7 692.9,-140.8 1387.9,-317.9 2080,-542.3 774.1,-250.9 1198.3,-1081.8 947.4,-1855.9 -250.9,-774.1 -1081.9,-1198.2 -1855.9,-947.3 -7.1,2.3 -21.3,7.1 -28.3,9.5 -555.1,192.4 -1135.3,344.9 -1730.4,467.7 -595.2,122.4 -1205.6,214.2 -1823.3,283.9 -300.4,32.9 -601.6,57.6 -903.3,74.5 l -226.3,11.2 -226.5,7.2 -56.7,1.8 -56.6,0.8 -113.3,1.7 -113.3,1.6 -113.3,-0.2 c -151,0.9 -302.1,-2.8 -453.1,-5.7 l -226.4,-7.9 c -37.7,-1.1 -75.4,-3.2 -113.1,-5.2 l -113.1,-5.8 c -37.7,-2.1 -75.4,-3.6 -113.1,-6.1 l -113,-7.8 c -75.3,-5.3 -150.6,-9.8 -225.8,-16.9 -75.2,-6.7 -150.4,-12.6 -225.6,-19.9 l -225.2,-23.2 c -299.9,-33.4 -599,-74.5 -896.6,-123.1 l -223,-38 -222.2,-41.9 -55.5,-10.4 -55.4,-11.5 -110.7,-22.8 -110.6,-22.9 -110.3,-24.7 c -588.5,-129.5 -1168.4,-294.1 -1737.1,-487.4 -284.1,-97.4 -565.1,-202.9 -842.9,-315.5 l -104.1,-42.5 -52,-21.2 -51.6,-22.2 -206.3,-88.8 -204.7,-92.1 c -34.3,-15.1 -67.8,-31.5 -101.7,-47.3 l -101.5,-47.7 c -269.9,-128.6 -536,-264.4 -797.7,-407.4 -261.5,-143.2 -517.9,-294.8 -769.7,-452.7 -1007.2,-631.8 -1930.1,-1383.5 -2734.7,-2234.9 -402.2,-425.9 -773.7,-877.2 -1113,-1349.4 -168.9,-236.7 -329.4,-478.6 -481.3,-725.4 l -257.7,-422 c -46.7,-75.1 -94.3,-149.9 -141.5,-224.8 -46.8,-75 -95.6,-149.3 -144.2,-223.6 -387.1,-595.6 -810.2,-1177 -1271.3,-1738.3 -231.2,-280.3 -472.9,-555.3 -725.8,-823 -253.1,-267.6 -517.5,-528.3 -794.2,-779.7 -552.9,-502.9 -1156.7,-968.8 -1811.7,-1374.9 -163.4,-101.9 -330.8,-198.9 -500.2,-293 -21,-12 -42.4,-23.4 -63.8,-34.8 l -64.3,-34.2 -128.7,-68.3 -130.5,-65.5 -65.3,-32.7 -32.6,-16.3 -33.1,-15.7 c -351.4,-169.1 -713.6,-320.3 -1084.3,-450.6 -46.1,-16.9 -92.9,-32.1 -139.5,-47.6 l -140,-46.4 -141.1,-43.3 c -47.1,-14.2 -93.9,-29.2 -141.4,-42.1 -94.8,-26.3 -189.3,-54 -285,-77.4 l -143.1,-36.1 -143.9,-33.1 c -95.8,-22.7 -192.4,-41.4 -288.8,-61.1 -48.1,-10.2 -96.6,-18.2 -145,-27.1 -48.3,-8.7 -96.71,-17.6 -145.16,-25.8 -193.99,-31.1 -388.43,-59.5 -583.32,-79.6 -194.82,-22.1 -389.83,-36.1 -584.72,-47.7 -194.75,-9 -389.53,-15.9 -583.5,-14.6 -48.49,0.3 -97.09,-0.1 -145.48,0.9 l -145.14,3.3 -72.55,1.8 -72.33,3.1 -144.66,6.5 c -192.32,11.6 -384.26,25.5 -574.51,46.2 -47.56,5.2 -95.26,9.9 -142.69,15.6 l -142.04,17.8 -71,9.1 -70.64,10.2 -141.24,20.5 c -46.98,7.2 -93.65,15.3 -140.48,22.9 -46.72,8 -93.75,15.1 -140.13,24 -92.95,17.2 -186.27,33.6 -278.42,52.9 l -138.51,28.4 -137.62,30.5 c -92,19.8 -182.66,42.6 -273.84,64.3 -45.63,10.8 -90.55,23.1 -135.84,34.6 -45.14,11.8 -90.52,23.2 -135.44,35.4 l -134.61,37.2 -67.27,18.6 -66.79,19.6 c -356.43,104.3 -706.7,220.6 -1049.33,349.3 -342.69,128.6 -678.7,267.9 -1008.11,416.4 -329.19,148.8 -651.65,306.9 -968.06,472.6 -39.71,20.5 -79.1,41.3 -118.34,62.4 l -117.87,63.1 c -78.22,42.4 -156.18,85.2 -233.91,128.2 -154.88,86.8 -308.887,174.7 -460.902,264.7 -609.239,359 -1195.235,743.7 -1763.418,1145.2 -284.14,200.7 -563.4,406.1 -838.8,615 -137.92,104.2 -274.37,209.7 -410.31,315.7 -135.51,106.4 -270.37,213.5 -404.16,321.3 -535.55,431.2 -1056.56,874.9 -1566.15,1327.4 -509.59,452.6 -1007.51,914.4 -1496.01,1382.7 -244.25,234.1 -485.97,470.1 -725.01,707.8 l -348.53,346.5 c -115.4,114.3 -231.1,228.6 -346.25,341.1 -115.31,113.6 -230.5,224.9 -345.7,336.7 -57.58,56.3 -115.28,110.7 -172.9,166.1 -57.69,54.9 -115.2,110.9 -173.02,165 -115.49,108.7 -231.13,218 -347.36,324.1 -58.11,53.3 -115.95,107.4 -174.25,159.9 l -174.92,157.5 c -58.15,52.9 -116.88,104.1 -175.52,155.5 l -175.97,154.2 -177.21,150.9 -88.65,75.4 -89.33,73.6 -178.59,147.2 -180.06,143.5 -90.02,71.8 c -29.98,23.9 -60.5,46.6 -90.72,69.9 l -181.69,139.4 c -486.9,366 -986.2,701.5 -1499.2,1001.7 l -193.7,109.1 c -64.6,36.3 -128.8,73.6 -194.5,106.9 l -196,102.9 -48.9,25.8 -49.6,24.2 -99.1,48.4 -99,48.5 -49.6,24.3 -24.7,12.1 -25.1,11.3 -200.3,90.5 -100.2,45.3 -101.3,42 -202.5,84 c -1085,432.6 -2228.1,689.8 -3401,766.7 -812,53.2 -1427.2,754.6 -1374,1566.6 53.2,812.1 754.7,1427.2 1566.7,1374 10.5,-0.7 21,-1.5 31.5,-2.4 l 8.6,-0.8"
         style="fill:#ffffff;fill-opacity:1;fill-rule:nonzero;stroke:none"
         id="path72" />
      <path
         d="M -23119.2,12551.1 1045,16875 17380,60860.7"
         style="fill:none;stroke:#ffffff;stroke-width:800;stroke-linecap:round;stroke-linejoin:round;stroke-miterlimit:10;stroke-dasharray:none;stroke-opacity:1"
         id="path74" />
      <path
         d="M 8630,-12700.7 16405,8235.2"
         style="fill:none;stroke:#ffffff;stroke-width:800;stroke-linecap:round;stroke-linejoin:round;stroke-miterlimit:10;stroke-dasharray:none;stroke-opacity:1"
         id="path76" />
      <path
         d="M 20126.7,11342.5 43081.3,15450"
         style="fill:none;stroke:#ffffff;stroke-width:800;stroke-linecap:round;stroke-linejoin:round;stroke-miterlimit:10;stroke-dasharray:none;stroke-opacity:1"
         id="path78" />
      <path
         d="m -16178.9,60567.2 c 696.9,-68.6 1391.4,-182.3 2074.3,-347.5 682.8,-165 1354.3,-379.7 2003.9,-643.7 649,-265.4 1277.2,-576 1879.6,-923.4 600.67,-350.1 1177.5,-733.5 1729.4,-1141.9 l 205.55,-154.5 c 34.13,-25.9 68.81,-51.3 102.47,-77.6 l 101.14,-78.8 202.17,-157.8 199.04,-160.5 99.59,-80.2 98.13,-81.4 196.11,-162.9 193.55,-164.8 c 64.5,-55 129.18,-109.9 192.4,-165.7 l 190.75,-166.8 c 63.59,-55.6 125.86,-112 188.86,-168 126.35,-111.7 249.63,-225.3 374.16,-337.9 247.15,-226.4 492.41,-453.6 734.39,-681.2 l 362.44,-340.8 359.59,-339 c 235.67,-221.5 473.35,-440.2 713.22,-655.9 240.03,-215.4 481.82,-428.3 726.52,-637.1 244.46,-209.1 490.84,-415.2 739.94,-617.2 995.57,-808.9 2027.586,-1561.2 3090.711,-2238.4 531.779,-338 1071.159,-657.5 1618.429,-952.2 546.99,-295.2 1102.25,-564.7 1664.14,-803.4 140.66,-58.9 281.51,-117 422.9,-172 l 106.03,-41.3 106.34,-39.9 c 70.81,-27 141.92,-52.1 212.89,-78.1 284.25,-101.8 570.21,-193.1 857.32,-274.1 287.09,-81.2 575.58,-149.5 864.46,-206 72.19,-14.9 144.5,-26.9 216.74,-40 36.11,-6.9 72.28,-11.9 108.41,-17.9 36.15,-5.7 72.28,-11.9 108.42,-17.2 l 108.43,-15.3 54.2,-7.7 54.2,-6.6 108.38,-13.4 c 36.13,-4.3 72.23,-7.6 108.35,-11.5 144.46,-15.6 288.71,-25.6 432.83,-34.3 143.98,-6.6 287.91,-12.3 431.25,-11.6 143.52,-1.2 286.36,3.9 429,10 142.33,8.5 284.52,18.1 425.68,34 141.48,14 281.81,34.6 421.88,56.3 l 104.64,18.3 c 34.83,6.3 69.87,11.7 104.46,19.1 69.32,14.3 138.99,27 207.82,43.4 l 103.54,23.3 102.93,25.8 c 68.9,16.3 136.7,36.4 205,54.8 34.3,8.9 68,19.9 101.9,29.9 l 101.7,30.7 100.9,33.1 c 33.7,11.1 67.5,21.7 100.7,33.9 1072.9,369.1 2066.6,994.4 2951.9,1786 443.1,395.8 860.6,831.6 1253.1,1296.7 195.7,233.1 385.9,473 570.2,719 l 68.8,92.5 c 23,30.9 46.1,61.5 68.4,93 l 135,187.8 c 88.3,126.8 177.4,253.1 263,382.4 43.3,64.4 86.7,128.5 128.8,193.9 l 126.9,195.5 262.6,416.2 c 191.4,300.3 393,593.7 604.2,879.7 211.8,285.6 433.9,563 664.3,832.8 l 86.5,101.1 c 28.6,33.9 58.7,66.5 87.9,99.7 l 88.5,99.3 44.2,49.7 45,48.8 c 60.3,65 120.2,130.2 180.8,194.8 l 184.4,191.2 c 991.9,1011 2112.2,1885.3 3315.9,2607 1202.9,724.3 2489,1296.3 3816.8,1721.2 1328.7,423.2 2701,696.4 4084.3,819.2 345.8,31.3 692.4,51.1 1039.1,63.1 l 130.1,4 c 43.3,1.3 86.7,2.8 130,3.1 l 260.2,3.7 c 173.4,-0.1 346.7,0.3 520.1,-4.2 693.3,-13.1 1385.2,-68.1 2072.1,-156.3 337.8,-44.7 675.1,-95.9 1012.6,-154.1 l 126.5,-21.8 126.5,-23.2 126.4,-23.4 c 42.2,-7.7 84.3,-16.4 126.5,-24.6 84.2,-16.7 168.4,-33.1 252.6,-51.3 84.2,-17.9 168.4,-35.2 252.5,-54.5 336.5,-74.8 672.3,-158.5 1006.5,-253.2 334.3,-94.5 667,-199.8 996.8,-317.4 468.2,-167.1 712.3,-682.1 545.3,-1150.4 -162.5,-455.4 -654.2,-698.8 -1111.8,-558.1 l -5.8,1.9 c -1175.2,363.3 -2417.7,574.5 -3678.7,701 -1238.7,122.9 -2488.7,112.9 -3721.8,-27.6 -308.2,-35.6 -615.4,-79 -921.1,-130.3 l -229,-40 -228.2,-43.8 -57.1,-10.9 -56.8,-11.9 -113.7,-23.8 -113.7,-23.9 -113.3,-25.6 c -302.1,-67.6 -602.5,-142.9 -899.9,-227.7 -297.5,-84.3 -592.8,-176 -885.1,-275.6 -292.1,-100.3 -581.1,-208.7 -867,-324.3 l -107,-43.7 -53.6,-21.8 -53.1,-22.7 -212.4,-91.1 -210.8,-94.5 c -35.3,-15.4 -69.9,-32.3 -104.8,-48.5 l -104.5,-49 c -278.2,-131.6 -552.5,-270.9 -822.3,-417.6 -269.7,-147.1 -534.5,-302.4 -794.5,-464.5 -1040.3,-648.7 -1997.4,-1420.6 -2835.3,-2298.7 -209.5,-219.5 -410.6,-446.2 -604.4,-678.7 -193.5,-232.6 -379.6,-471 -556.4,-715.8 -176.5,-244.9 -344.6,-495.5 -503.7,-751.4 l -258.9,-420.7 c -45.9,-73.4 -92.8,-146.4 -139.1,-219.6 -23.4,-36.5 -46.1,-73.4 -70.2,-109.5 l -71.5,-108.9 c -94.6,-145.6 -193.4,-289.1 -291.7,-432.9 l -150.7,-214 c -24.9,-35.8 -50.9,-71 -76.6,-106.3 l -77.3,-106.1 c -207.3,-282 -422.4,-560 -647.5,-832 -451,-543.3 -939.7,-1064.6 -1474,-1548.6 -534.1,-483.7 -1114.2,-930.3 -1740.8,-1318.3 -156.3,-97.3 -316.3,-189.8 -478.1,-279.6 -20.1,-11.4 -40.5,-22.3 -61,-33.2 l -61.4,-32.6 -122.8,-65.1 -124.4,-62.5 -62.3,-31.1 -31.1,-15.6 -31.5,-14.9 c -335,-161.2 -679.9,-305.1 -1032.5,-429.2 -43.9,-16.2 -88.4,-30.6 -132.7,-45.4 l -133.2,-44.1 -134.2,-41.1 c -44.8,-13.5 -89.3,-27.9 -134.5,-40.1 -90.2,-25 -180,-51.3 -271,-73.6 l -136.1,-34.5 -136.8,-31.4 c -91.1,-21.8 -183,-39.5 -274.6,-58.4 -45.8,-9.8 -91.9,-17.4 -137.91,-25.9 -46.04,-8.2 -92.03,-16.7 -138.12,-24.6 -184.58,-29.6 -369.58,-56.9 -555.14,-76.3 -185.47,-21.3 -371.31,-34.6 -557.06,-45.8 -185.71,-8.8 -371.48,-15.3 -556.7,-14.4 -185.39,-1 -370.06,5.4 -554.41,13.7 -184.02,10.4 -367.77,23.2 -550.2,42.3 -45.61,4.7 -91.34,9 -136.84,14.2 l -136.34,16.4 -68.15,8.3 -67.86,9.5 -135.69,19.1 c -45.15,6.7 -90.06,14.2 -135.1,21.2 -44.94,7.4 -90.15,13.9 -134.83,22.2 -89.49,16.1 -179.3,31.2 -268.15,49.3 -356.34,69.4 -708.09,152.7 -1053.71,250.1 -345.69,97.1 -686.52,205.5 -1020.73,326.7 -83.3,30.7 -167.18,60.3 -249.65,92.6 l -124.12,47.7 -123.31,49.1 c -164.56,65.2 -326.76,134.5 -488.35,204.8 -644.63,284 -1266.21,604.8 -1864.86,954.6 -599.244,349.2 -1175.799,727 -1733.889,1124.4 -1115.691,795.8 -2155.621,1670.4 -3148.771,2581.5 -496.59,455.7 -981.24,921.2 -1457.27,1392.9 -237.89,235.9 -473.81,473.2 -707.54,712 l -344.67,351.3 c -114.57,116.2 -229.4,232.2 -344.1,347.1 -114.73,115.5 -230.07,228.9 -345.19,342.8 -57.45,57.3 -115.6,112.9 -173.4,169.3 -57.96,56 -115.59,112.9 -173.81,168.3 -116.28,111 -232.6,222.6 -349.98,331.4 -58.65,54.5 -116.94,109.9 -175.89,163.8 l -177.11,161.4 c -58.85,54.3 -118.48,106.9 -178.01,159.8 -59.56,52.8 -118.9,106.1 -178.74,158.4 l -180.36,155.5 -90.21,77.7 -91.09,76.1 -182.32,152 -184.24,148.5 -92.15,74.2 c -30.72,24.8 -62.09,48.3 -93.1,72.5 l -186.57,144.4 c -30.9,24.4 -62.68,47.2 -94.07,70.7 l -94.45,70 -94.47,70.1 c -15.78,11.6 -31.41,23.5 -47.31,34.8 l -47.84,33.9 -191.32,135.6 -47.9,33.8 c -15.9,11.3 -32.2,21.9 -48.3,32.9 l -97,65.3 -97,65.3 c -32.4,21.6 -64.3,44.2 -97.2,64.7 l -196.6,125.5 c -32.8,20.8 -65.4,42.1 -98.4,62.5 l -99.6,60 -199.2,119.9 c -535.2,311.7 -1088.2,585.6 -1657.3,815.2 -1139.3,455.8 -2345.6,726.3 -3573.4,799.1 -496.3,29.5 -874.7,455.6 -845.3,951.9 29.4,496.3 455.6,874.7 951.9,845.3 10.5,-0.6 20.9,-1.4 31.2,-2.4 l 4.4,-0.4"
         style="fill:#5bafb2;fill-opacity:1;fill-rule:nonzero;stroke:none"
         id="path80" />
      <path
         d="M 11530,23160 28580,43470"
         style="fill:none;stroke:#ffffff;stroke-width:600;stroke-linecap:round;stroke-linejoin:round;stroke-miterlimit:10;stroke-dasharray:none;stroke-opacity:1"
         id="path82" />
      <path
         d="m 20170,10850 c 0,-1540.9 -1249.1,-2790 -2790,-2790 -1540.9,0 -2790,1249.1 -2790,2790 0,1540.9 1249.1,2790 2790,2790 1540.9,0 2790,-1249.1 2790,-2790 z"
         style="fill:none;stroke:#ffffff;stroke-width:800;stroke-linecap:round;stroke-linejoin:round;stroke-miterlimit:10;stroke-dasharray:none;stroke-opacity:1"
         id="path84" />
      <path
         d="M 1050,16880 14530.8,3188.7"
         style="fill:none;stroke:#ffffff;stroke-width:800;stroke-linecap:round;stroke-linejoin:round;stroke-miterlimit:10;stroke-dasharray:none;stroke-opacity:1"
         id="path86" />
      <path
         d="M -5280,36930 6974.64,32841.9 16186.5,13372.5"
         style="fill:none;stroke:#ffffff;stroke-width:800;stroke-linecap:round;stroke-linejoin:round;stroke-miterlimit:10;stroke-dasharray:none;stroke-opacity:1"
         id="path88" />
      <path
         d="M 40930.1,38345.2 28580,43470 10670,42800"
         style="fill:none;stroke:#ffffff;stroke-width:600;stroke-linecap:round;stroke-linejoin:round;stroke-miterlimit:10;stroke-dasharray:none;stroke-opacity:1"
         id="path90" />
      <path
         d="m 16760,25170 c 231.4,-887.1 1680,-1170 2750,-650 924.8,449.4 1350,1630 2210,2090 860,460 3320,1090 2640,2200 -680,1110 -3620,2390 -4780,1140 -664.3,-715.8 -950,-2320 -1750,-2910 -800,-590 -1310,-950 -1070,-1870"
         style="fill:#5bafb2;fill-opacity:1;fill-rule:nonzero;stroke:none"
         id="path92" />
      <path
         d="M 26328.8,10748.1 27670,6660"
         style="fill:none;stroke:#ffffff;stroke-width:500;stroke-linecap:round;stroke-linejoin:round;stroke-miterlimit:10;stroke-dasharray:none;stroke-opacity:1"
         id="path94" />
      <path
         d="M 1045,16875 17380,60860.7"
         style="fill:none;stroke:#ffffff;stroke-width:800;stroke-linecap:round;stroke-linejoin:round;stroke-miterlimit:10;stroke-dasharray:none;stroke-opacity:1"
         id="path96" />
      <path
         d="M 85000,0 H 35000 V 50000 H 85000 V 0"
         style="fill:#ede7db;fill-opacity:1;fill-rule:nonzero;stroke:none"
         id="path98" />
      <path
         d="m 45230,19740 -840,6160 -7390,-900 1030,-5330 7200,70"
         style="fill:#b5d379;fill-opacity:1;fill-rule:nonzero;stroke:none"
         id="path100" />
      <path
         d="M 44000,5400 C 50485,-735 57350,-4830 62960,-1040 L 64590,3350 61040,6730 56910,2950 47150,7810 44000,5400"
         style="fill:#b5d379;fill-opacity:1;fill-rule:nonzero;stroke:none"
         id="path102" />
      <path
         d="m 43680,54470 c 6485,-6135 13090,-9800 18820,-6940 l 1840,5150 -3440,3250 -3990,-2980 -9740,4260 -3490,-2740"
         style="fill:#b5d379;fill-opacity:1;fill-rule:nonzero;stroke:none"
         id="path104" />
      <path
         d="m 44550,37590 c 0,-994.1 -805.9,-1800 -1800,-1800 -994.1,0 -1800,805.9 -1800,1800 0,994.1 805.9,1800 1800,1800 994.1,0 1800,-805.9 1800,-1800"
         style="fill:#b5d379;fill-opacity:1;fill-rule:nonzero;stroke:none"
         id="path106" />
      <path
         d="M 61039.7,6734.4 56710,3570 46990,7810 44370,5600"
         style="fill:none;stroke:#ffffff;stroke-width:500;stroke-linecap:round;stroke-linejoin:round;stroke-miterlimit:10;stroke-dasharray:none;stroke-opacity:1"
         id="path108" />
      <path
         d="M 21777.3,35366.6 36700,14310 35650,4200 43239.4,642.898"
         style="fill:none;stroke:#ffffff;stroke-width:500;stroke-linecap:round;stroke-linejoin:round;stroke-miterlimit:10;stroke-dasharray:none;stroke-opacity:1"
         id="path110" />
      <path
         d="m 38990,14720 -1990,10250 2540,2740"
         style="fill:none;stroke:#ffffff;stroke-width:500;stroke-linecap:round;stroke-linejoin:round;stroke-miterlimit:10;stroke-dasharray:none;stroke-opacity:1"
         id="path112" />
      <path
         d="M 43940,29050 39535.1,27705.5 35821,35116.9"
         style="fill:none;stroke:#ffffff;stroke-width:500;stroke-linecap:round;stroke-linejoin:round;stroke-miterlimit:10;stroke-dasharray:none;stroke-opacity:1"
         id="path114" />
      <path
         d="M 38028.1,19674.4 45230,19740"
         style="fill:none;stroke:#ffffff;stroke-width:500;stroke-linecap:round;stroke-linejoin:round;stroke-miterlimit:10;stroke-dasharray:none;stroke-opacity:1"
         id="path116" />
      <path
         d="m 31661.9,21418.9 5338.1,3581.1 7390,900 8660,-3620 8480,880 17050,20310 2180,3780 -4960,15110 -660,6460"
         style="fill:none;stroke:#ffffff;stroke-width:500;stroke-linecap:round;stroke-linejoin:round;stroke-miterlimit:10;stroke-dasharray:none;stroke-opacity:1"
         id="path118" />
      <path
         d="M 45760,15930 46990,7810"
         style="fill:none;stroke:#ffffff;stroke-width:500;stroke-linecap:round;stroke-linejoin:round;stroke-miterlimit:10;stroke-dasharray:none;stroke-opacity:1"
         id="path120" />
      <path
         d="m 36450,11930 9925,-587.5 8025,2027.5"
         style="fill:none;stroke:#ffffff;stroke-width:500;stroke-linecap:round;stroke-linejoin:round;stroke-miterlimit:10;stroke-dasharray:none;stroke-opacity:1"
         id="path122" />
      <path
         d="M 40930,36970 24789.8,31115.8"
         style="fill:none;stroke:#ffffff;stroke-width:500;stroke-linecap:round;stroke-linejoin:round;stroke-miterlimit:10;stroke-dasharray:none;stroke-opacity:1"
         id="path124" />
      <path
         d="M 30755.9,33279.8 33240,41410 44720,52010"
         style="fill:none;stroke:#ffffff;stroke-width:500;stroke-linecap:round;stroke-linejoin:round;stroke-miterlimit:10;stroke-dasharray:none;stroke-opacity:1"
         id="path126" />
      <path
         d="M 30755.9,-16720.2 33240,-8590 44720,2010"
         style="fill:none;stroke:#ffffff;stroke-width:500;stroke-linecap:round;stroke-linejoin:round;stroke-miterlimit:10;stroke-dasharray:none;stroke-opacity:1"
         id="path128" />
      <path
         d="M 40780,48372 58110,36250"
         style="fill:none;stroke:#ffffff;stroke-width:500;stroke-linecap:round;stroke-linejoin:round;stroke-miterlimit:10;stroke-dasharray:none;stroke-opacity:1"
         id="path130" />
      <path
         d="M 50239.6,41756.3 48650,35620 51050,23116 48300,16380"
         style="fill:none;stroke:#ffffff;stroke-width:500;stroke-linecap:round;stroke-linejoin:round;stroke-miterlimit:10;stroke-dasharray:none;stroke-opacity:1"
         id="path132" />
      <path
         d="m 30760,47250 7266,-1421.2 244,-6428.8"
         style="fill:none;stroke:#ffffff;stroke-width:500;stroke-linecap:round;stroke-linejoin:round;stroke-miterlimit:10;stroke-dasharray:none;stroke-opacity:1"
         id="path134" />
      <path
         d="M 35650,4200 29070,1580"
         style="fill:none;stroke:#ffffff;stroke-width:500;stroke-linecap:round;stroke-linejoin:round;stroke-miterlimit:10;stroke-dasharray:none;stroke-opacity:1"
         id="path136" />
      <path
         d="m 33866.4,11138.7 c 181.1,-16.6 362.1,-36.1 543,-58.8 l 135.6,-17.6 c 45.2,-6.3 90.3,-13.4 135.4,-20.1 l 270.8,-41.1 c 90.4,-12.5 180.1,-30.8 270.1,-46.9 l 269.7,-49.7 c 89.6,-18.7 179,-38.5 268.4,-57.8 l 134.2,-29.2 67,-14.8 66.6,-16.7 c 712.2,-171.5 1412.8,-395.8 2089.8,-670.7 l 252.3,-106.4 c 42,-17.9 84.2,-35.3 125.9,-53.6 l 124.3,-56.6 248.6,-113.5 244.9,-119.7 122.3,-60.1 c 40.7,-20.1 80.4,-41.7 120.7,-62.6 l 240.6,-126.3 30.1,-15.9 29.5,-16.5 59.2,-33 118.3,-65.9 c 78.8,-44.1 158.3,-87.4 235.2,-133.9 l 232.4,-137.4 c 39,-22.7 76.8,-46.7 114.9,-70.4 l 114.1,-71.2 c 153.3,-93.8 301.4,-193.1 451.1,-290.9 18.6,-12.3 37.4,-24.3 55.8,-36.9 l 55,-37.7 110,-75.6 110,-75.6 c 18.3,-12.6 36.8,-25.1 54.9,-37.9 l 54,-38.7 215.9,-155 c 17.9,-13 36.1,-25.8 53.8,-38.9 l 53,-39.6 106,-79.2 106,-79.2 c 17.6,-13.2 35.5,-26.2 52.9,-39.6 l 52.1,-40.3 208.3,-161.3 c 35,-26.7 69.1,-54 103.1,-81.4 l 102.3,-82 c 68,-54.8 137.1,-108.9 203.6,-164.7 l 201.1,-166.4 c 33.8,-27.6 66.6,-55.8 99.5,-83.8 l 99,-84.1 c 133,-111.6 261.8,-225.4 391.9,-338.6 257.4,-227.6 511.8,-457 759.9,-688 l 93.5,-86.5 92.5,-86.7 184.8,-173.4 182.8,-173.6 91.3,-86.9 90.4,-86.8 360.3,-346.7 355.7,-343.7 c 230.4,-222.6 462.3,-442.6 695.8,-660.1 467.3,-434.5 942.8,-857.1 1427.7,-1264.6 969.4,-815.1 1976.9,-1571.5 3020.1,-2240.4 521.6,-333.9023 1051.6,-646.699 1588.8,-931.5 268.7,-142.402 538.9,-278.598 810.7,-406.398 271.9,-127.702 545.1,-248.402 819.3,-360.602 274.3,-111.6 549.6,-215 825.5,-309.1 34.4,-12.2 69,-22.9 103.5,-34.5 l 103.4,-34.2 103.6,-32.7 c 34.5,-11 69,-21.8 103.6,-31.9 l 103.6,-31.2 c 34.5,-10.6 69.1,-19.9 103.7,-29.9 34.5,-9.7 69,-20 103.6,-29.3 l 103.7,-27.8 51.8,-14.1 51.8,-13.1 103.6,-26.3 c 34.5,-8.7 69.1,-16.4 103.6,-24.7 34.6,-8 69.1,-16.9 103.6,-24.2 69.1,-14.9 138,-31.4 207,-44.7 l 103.4,-21.2 103.4,-19.2 c 275.6,-51.7 550.3,-90.5 823.5,-116.8 136.6,-14 272.7,-22.8 408.5,-30.4 135.6,-5.5 271,-10.8 405.5,-9.8 134.8,-0.7 268.6,4 402.2,9.8 133.2,8.3 266.2,17.1 398,32.3 132.2,13.3 263.1,32.7 393.7,52.9 l 97.6,17.2 c 32.4,5.9 65.1,10.9 97.4,17.9 64.6,13.3 129.5,25.1 193.6,40.5 257.2,58.1 511.6,128.3 761.2,215.8 249.8,86.9 495.8,187.5 737.5,302 l 22.7,10.5 22.5,11.2 45.1,22.3 90.2,44.4 89.3,46.9 44.7,23.3 c 15,7.7 29.9,15.5 44.6,23.8 118.3,64.8 236,131.6 352.1,202.8 464.8,283.398 910.5,618.301 1334.6,994.902 212,188.2972 418.5,387.098 619.5,594.801 201.1,207.699 397.3,423.496 587.6,647.797 190,224.4 374.5,456.6 554.3,694.7 l 67.2,89.6 c 22.4,29.8 45,59.5 66.8,90 l 132,182.1 c 86.4,123.1 173.6,245.6 257.6,371.4 42.4,62.5 85.1,124.8 126.2,188.6 l 124.6,190.4 263.8,414.9 c 198.7,309.3 407.8,611.4 626.6,905.7 219.2,294 449.3,579.2 687.7,856.5 238.7,277.1 485.6,546.5 741.8,805.9 1025.1,1037.7 2179.6,1932.2 3416.4,2670.8 1236,741.1 2554.9,1324.9 3914.6,1761.5 1360.9,433.9 2764.5,718 4180.7,850.1 354.1,33.3 709,55.2 1064.1,70 l 133.2,4.9 c 44.4,1.7 88.8,3.5 133.2,4.1 l 266.5,5.5 c 177.6,1 355.3,2.5 533,-0.9 710.6,-9.1 1420.3,-59.3 2125.8,-142.5 688.1,-83.4 1378.7,-189.7 2071.8,-330.8 692.9,-140.8 1387.9,-317.9 2080,-542.3 l -936.8,-2793.7 c -555.1,192.4 -1135.3,344.9 -1730.4,467.7 -595.2,122.4 -1205.6,214.2 -1823.3,283.8 -300.4,33 -601.6,57.7 -903.3,74.6 l -226.3,11.2 -226.6,7.2 -56.6,1.8 -56.6,0.8 -113.3,1.7 -113.3,1.7 -113.3,-0.3 c -151,0.9 -302.1,-2.8 -453.1,-5.7 l -226.4,-7.9 c -37.7,-1.1 -75.4,-3.2 -113.1,-5.2 l -113.1,-5.8 c -37.7,-2.1 -75.4,-3.6 -113.1,-6.1 l -113,-7.8 c -75.3,-5.3 -150.6,-9.8 -225.8,-16.9 -75.2,-6.7 -150.4,-12.6 -225.6,-19.9 l -225.2,-23.2 c -299.9,-33.4 -599,-74.5 -896.6,-123.1 l -223,-38 -222.2,-41.9 -55.5,-10.4 -55.4,-11.5 -110.7,-22.8 -110.7,-22.9 -110.2,-24.7 c -588.5,-129.5 -1168.4,-294.1 -1737.1,-487.4 -284.1,-97.4 -565.1,-202.9 -842.9,-315.5 l -104.1,-42.5 -52,-21.2 -51.6,-22.2 -206.3,-88.8 -204.7,-92.1 c -34.3,-15 -67.8,-31.5 -101.7,-47.3 l -101.5,-47.7 c -270,-128.6 -536,-264.4 -797.7,-407.4 -261.5,-143.2 -517.9,-294.8 -769.7,-452.7 -1007.2,-631.8 -1930.1,-1383.5 -2734.7,-2234.9 -402.2,-425.9 -773.8,-877.3 -1113,-1349.4 -168.9,-236.7 -329.4,-478.6 -481.3,-725.4 l -257.7,-422.1 c -46.7,-75.1 -94.3,-149.8 -141.5,-224.698 -46.8,-75 -95.6,-149.301 -144.3,-223.704 -387,-595.496 -810.1,-1176.898 -1271.2,-1738.198 -231.2,-280.3 -472.9,-555.3 -725.8,-823 -253.2,-267.6 -517.5,-528.3 -794.2,-779.7 -552.9,-502.9 -1156.7,-968.8 -1811.7,-1374.9 -163.4,-101.9 -330.8,-198.9 -500.2,-293 -21,-12 -42.4,-23.4 -63.9,-34.8 l -64.2,-34.2 -128.7,-68.3 -130.5,-65.5 -65.3,-32.7 -32.7,-16.3 -33,-15.7 c -351.4,-169.1 -713.6,-320.3 -1084.4,-450.6 -46.1,-16.9 -92.8,-32.1 -139.5,-47.6 l -139.9,-46.4 -141.1,-43.3 c -47.1,-14.2 -93.9,-29.2 -141.4,-42.1 -94.9,-26.3 -189.3,-54 -285,-77.4 l -143.1,-36.2 -143.9,-33 c -95.8,-22.7 -192.4,-41.4 -288.8,-61.1 -48.1,-10.2 -96.6,-18.2 -145,-27.1 -48.4,-8.7 -96.7,-17.6 -145.2,-25.8 -194,-31.1 -388.4,-59.5 -583.3,-79.6 -194.8,-22.1 -389.8,-36.1 -584.7,-47.7 -194.8,-9 -389.6,-15.9 -583.5,-14.6 -48.5,0.3 -97.1,-0.1 -145.5,0.9 l -145.2,3.3 -72.5,1.9 -72.3,3 -144.7,6.5 c -192.3,11.6 -384.3,25.5 -574.5,46.2 -47.6,5.2 -95.3,9.9 -142.7,15.6 l -142,17.8 -71,9.1 -70.7,10.2 -141.2,20.5 c -47,7.2 -93.7,15.3 -140.5,23 -46.7,7.9 -93.8,15 -140.1,23.9 -93,17.2 -186.3,33.6 -278.4,52.9 l -138.6,28.4 -137.6,30.5 c -92,19.8 -182.6,42.6 -273.8,64.3 -45.6,10.8 -90.6,23.1 -135.9,34.6 -45.1,11.8 -90.5,23.2 -135.4,35.4 l -134.6,37.2 -67.3,18.7 -66.8,19.6 c -356.4,104.2 -706.7,220.5 -1049.3,349.2 -342.7,128.6 -678.7,267.9 -1008.1,416.4 -329.2,148.8 -651.7,306.9 -968.1,472.6 -39.7,20.5 -79.1,41.4 -118.3,62.5 l -117.9,63 c -78.2,42.5 -156.2,85.2 -233.9,128.3 -154.9,86.8 -308.9,174.6 -460.9,264.7 -609.2,358.9 -1195.2,743.6 -1763.4,1145.1 -284.1,200.7 -563.4,406.1 -838.8,615 -137.9,104.2 -274.4,209.8 -410.3,315.8 -135.5,106.4 -270.4,213.4 -404.2,321.202 -535.5,431.196 -1056.5,874.8949 -1566.1,1327.5 -509.6,452.5 -1007.5,914.298 -1496,1382.598 -244.3,234.1 -486,470.1 -725,707.8 l -348.6,346.5 -173.2,171.4 -173,169.8 -86.5,84.9 -86.4,84 -172.8,168 -172.9,165.9 -86.5,82.9 -86.6,81.8 c -230.7,219.6 -463.2,431.9 -696.4,641.9 -467.1,417.2 -941.3,814.9 -1428.1,1180.7 l -91.2,68.6 -45.7,34.4 c -15.2,11.3 -30.7,22.2 -46,33.3 l -184.3,133 -46.1,33.3 c -15.4,11 -31,21.5 -46.5,32.2 l -93,64.3 -93.1,64.2 -46.5,32.2 c -15.5,10.7 -31.3,20.7 -46.9,31.1 l -188,123.8 c -62.3,42 -126.3,80.2 -189.5,120 l -95,59.3 c -31.7,19.8 -63.2,40 -95.4,58.4 l -192,113.4 c -63.7,38.7 -128.8,73.8 -193.4,109.9 l -97,54.1 -48.5,27 -24.3,13.5 -24.5,12.7 -196.3,102.1 c -32.8,16.9 -65.2,34.7 -98.3,50.8 l -99.2,48.1 -198.3,96.3 -200.4,90.3 -100.2,45.2 c -33.6,14.4 -67.6,28 -101.3,42.1 l -202.5,84 -25.3,10.5 -25.6,9.7 -51.2,19.4 -102.3,38.8 -102.3,38.9 c -17,6.3 -34,13.2 -51.2,19.1 l -51.7,17.7 c -138,46.6 -274.9,96.6 -414.7,137.2 -69.6,21.2 -138.9,43.4 -208.7,64.1 l -210.6,57.1 -105.3,28.8 c -17.4,5 -35.2,9 -52.9,13.2 l -53.1,12.5 -212.4,50.5 -53.1,12.6 -53.5,10.8 -107.2,21.5 -214.1,43.1 -215.9,35.9 c -72,11.5 -143.5,25.4 -216.3,33.7 l -217.3,28.7 c -36.3,4.7 -72.4,9.8 -108.7,14.2 l -109.2,11.8 c -145.6,15.1 -291.8,27.4 -438.4,36.8 l 232.8,2937.4"
         style="fill:#ffffff;fill-opacity:1;fill-rule:nonzero;stroke:none"
         id="path138" />
      <path
         d="m 33821.1,10567.2 c 697.9,-55.8 1394.7,-162.4 2080.2,-322.4 l 256.7,-61.2 c 85.2,-22 170,-46 254.9,-69 l 127.3,-34.9 63.7,-17.6 c 21.2,-5.8 42.1,-12.8 63.1,-19.2 l 252.1,-78.4 126,-39.4 124.7,-43.3 249.1,-87.1 c 41.8,-14 82.6,-30.3 123.6,-46 l 123.1,-47.4 122.9,-47.6 c 40.9,-16.1 82.3,-31.2 122.5,-48.8 650,-267.2 1277.4,-582.6 1878.3,-934.5 598.9,-354.9 1173.1,-743 1722.9,-1154.5 l 204.8,-155.6 c 34,-26.1 68.6,-51.6 102.1,-78.1 l 100.8,-79.4 201.6,-158.5 198.5,-161.2 99.3,-80.6 97.9,-81.6 195.8,-163.4 193.2,-165.1 c 64.5,-55.1 129.1,-110 192.3,-165.9 509.8,-444.1 1003.9,-898.6 1488.8,-1353.2 l 362.7,-340.6 359.8,-338.7 c 235.8,-221.4 473.6,-439.9 713.5,-655.5 240.2,-215.3 482,-428.1 726.7,-636.9 244.5,-209 490.9,-415.1 740,-617.1 995.4,-808.9 2027.1,-1561.398 3089.8,-2239.1016 531.6,-338.2964 1070.8,-657.9964 1618,-952.8004 546.8,-295.498 1102,-565.098 1663.8,-803.898 140.7,-59 281.5,-117 422.9,-172.1 l 106,-41.3 106.4,-39.9 c 70.8,-27 141.9,-52.1 212.9,-78.1 284.2,-101.8 570.2,-193.1 857.3,-274.1 287.1,-81.2 575.6,-149.5 864.4,-206 72.2,-14.9 144.5,-26.9 216.8,-40 36.1,-6.9 72.3,-11.9 108.4,-17.9 36.1,-5.7 72.3,-11.8 108.4,-17.2 l 108.4,-15.3 54.2,-7.7 54.2,-6.6 108.4,-13.4 c 36.1,-4.3 72.3,-7.6 108.4,-11.5 144.4,-15.6 288.7,-25.6 432.8,-34.3 144,-6.6 287.9,-12.3 431.3,-11.6 143.5,-1.2 286.3,3.9 429,10 142.3,8.5 284.5,18.1 425.6,34 141.5,14 281.8,34.6 421.9,56.3 l 104.6,18.3 c 34.9,6.3 69.9,11.7 104.5,19.1 69.3,14.3 139,27 207.8,43.4 l 103.6,23.3 102.9,25.8 c 68.9,16.3 136.7,36.4 205.1,54.8 34.2,8.9 67.9,19.9 101.8,29.9 l 101.7,30.7 100.9,33.1 c 33.7,11.1 67.5,21.7 100.7,33.9 1072.9,369.1 2066.6,994.4 2951.9,1785.997 443.1,395.801 860.6,831.601 1253.1,1296.703 195.7,233.1 385.9,473 570.2,719 l 68.8,92.5 c 23,30.9 46.1,61.5 68.4,93 l 135,187.8 c 88.3,126.8 177.4,253.1 263,382.4 43.3,64.4 86.8,128.5 128.8,193.9 l 126.9,195.6 262.6,416.1 c 191.4,300.3 393,593.7 604.2,879.7 211.8,285.6 433.9,563 664.3,832.8 l 86.5,101.1 c 28.6,33.9 58.7,66.5 87.9,99.7 l 88.5,99.3 44.2,49.7 45,48.8 c 60.3,65 120.2,130.2 180.8,194.8 l 184.4,191.2 c 991.9,1011 2112.2,1885.3 3315.9,2607 1202.9,724.3 2489,1296.3 3816.8,1721.2 1328.7,423.2 2701,696.4 4084.3,819.2 345.8,31.3 692.4,51.1 1039.1,63.1 l 130.1,4 c 43.3,1.3 86.7,2.8 130,3.1 l 260.2,3.7 c 173.4,-0.1 346.7,0.3 520.1,-4.2 693.3,-13.1 1385.2,-68.1 2072.1,-156.3 337.8,-44.7 675.1,-95.9 1012.6,-154 l 126.5,-21.9 126.5,-23.2 126.4,-23.4 c 42.2,-7.7 84.3,-16.4 126.5,-24.6 84.2,-16.7 168.4,-33.1 252.6,-51.3 84.2,-17.9 168.4,-35.2 252.5,-54.5 336.5,-74.8 672.3,-158.5 1006.5,-253.2 334.3,-94.5 667,-199.8 996.8,-317.4 468.2,-167.1 712.3,-682.1 545.3,-1150.4 -162.5,-455.4 -654.2,-698.8 -1111.8,-558.1 l -5.8,1.9 c -1175.2,363.3 -2417.7,574.5 -3678.7,701 -1238.7,122.9 -2488.7,112.9 -3721.8,-27.6 -308.2,-35.6 -615.4,-79 -921.1,-130.3 l -229,-40 -228.2,-43.7 -57.1,-11 -56.8,-11.9 -113.7,-23.8 -113.7,-23.9 -113.3,-25.6 c -302.1,-67.6 -602.5,-142.9 -899.9,-227.7 -297.5,-84.3 -592.8,-176 -885.1,-275.6 -292.1,-100.3 -581.1,-208.8 -867,-324.3 l -107,-43.7 -53.6,-21.8 -53.1,-22.7 -212.4,-91.1 -210.8,-94.5 c -35.3,-15.4 -69.9,-32.3 -104.8,-48.5 l -104.5,-48.9 c -278.2,-131.7 -552.5,-271 -822.3,-417.7 -269.7,-147.1 -534.5,-302.4 -794.5,-464.6 -1040.3,-648.6 -1997.4,-1420.5 -2835.3,-2298.6 -209.5,-219.5 -410.6,-446.2 -604.4,-678.7 -193.5,-232.6 -379.6,-471 -556.4,-715.8 -176.5,-244.9 -344.6,-495.5 -503.7,-751.4 L 68203.5,1422 c -45.9,-73.4 -92.8,-146.4 -139.1,-219.6 -23.4,-36.5 -46.1,-73.4 -70.2,-109.5 L 67922.7,984 C 67828.1,838.398 67729.3,694.902 67631,551.203 l -150.7,-214.101 c -24.9,-35.805 -50.9,-71.004 -76.6,-106.301 l -77.3,-106.098 c -207.3,-282.004 -422.4,-560 -647.5,-832.004 -451,-543.299 -939.7,-1064.599 -1474,-1548.599 -534.1,-483.7 -1114.2,-930.4 -1740.8,-1318.3 -156.3,-97.3 -316.3,-189.8 -478.1,-279.6 -20.1,-11.4 -40.5,-22.4 -61,-33.2 l -61.3,-32.6 -122.9,-65.1 -124.4,-62.5 -62.3,-31.1 -31.1,-15.6 -31.5,-14.9 c -335,-161.2 -679.9,-305.1 -1032.5,-429.2 -43.9,-16.2 -88.4,-30.6 -132.7,-45.3 l -133.2,-44.2 -134.2,-41.2 c -44.8,-13.4 -89.3,-27.8 -134.5,-40 -90.2,-25 -180,-51.3 -271,-73.6 l -136.1,-34.5 -136.8,-31.5 c -91.1,-21.7 -183,-39.4 -274.6,-58.3 -45.8,-9.8 -91.9,-17.4 -137.9,-25.9 -46,-8.2 -92,-16.8 -138.1,-24.6 -184.6,-29.6 -369.6,-56.9 -555.2,-76.3 -185.4,-21.3 -371.3,-34.6 -557,-45.8 -185.7,-8.8 -371.5,-15.3 -556.7,-14.5 -185.4,-0.9 -370.1,5.5 -554.4,13.8 -184.1,10.4 -367.8,23.2 -550.2,42.3 -45.6,4.7 -91.4,9 -136.9,14.2 l -136.3,16.4 -68.2,8.3 -67.8,9.5 -135.7,19.1 c -45.2,6.7 -90.1,14.2 -135.1,21.2 -45,7.4 -90.2,13.9 -134.8,22.2 -89.5,16.1 -179.4,31.2 -268.2,49.3 -356.3,69.4 -708.1,152.7 -1053.7,250.1 -345.7,97.1 -686.5,205.5 -1020.7,326.7 -83.3,30.7 -167.2,60.3 -249.7,92.6 l -124.1,47.7 -123.3,49.1 c -164.6,65.1 -326.8,134.5 -488.4,204.7 -644.7,283.9 -1266.4,604.6 -1865.1,954.2 -599.4,348.9 -1176.1,726.6 -1734.4,1123.7 -1116.1,795.4 -2156.4,1669.803 -3149.6,2580.803 -496.7,455.697 -981.3,921.397 -1457.1,1393.197 -237.8,236.1 -473.7,473.5 -707.3,712.4 l -344.4,351.5 c -114.5,116.3 -229.2,232.4 -343.9,347.4 -114.6,115.5 -229.8,229.1 -344.9,343.1 -57.3,57.4 -115.4,113 -173.2,169.5 -57.9,56.1 -115.5,113 -173.6,168.4 -116.2,111.2 -232.5,222.7 -349.9,331.6 -58.6,54.5 -116.9,109.9 -175.8,163.8 l -177.3,161.3 c -58.9,54.2 -118.6,106.8 -178.1,159.6 -59.6,52.8 -119.1,105.9 -179.1,158.1 l -180.7,155 -90.4,77.5 -91.3,75.7 -182.9,151.3 -184.8,147.7 -92.6,73.7 c -30.8,24.6 -62.3,47.9 -93.5,72 l -187.2,143.3 c -31,24.3 -63,46.8 -94.5,70.1 l -94.9,69.3 -94.9,69.4 c -15.8,11.5 -31.5,23.3 -47.5,34.6 l -48,33.5 -192.3,134 -48,33.5 c -16.1,11.1 -32.4,21.6 -48.6,32.5 l -97.4,64.5 -97.3,64.5 c -32.6,21.3 -64.7,43.6 -97.8,63.8 l -197.3,123.8 c -32.9,20.5 -65.6,41.6 -98.8,61.6 l -100,59.1 -199.9,118.2 c -536.7,307.2 -1090.4,576.3 -1658.6,804.1 -1137.4,451.8 -2335.8,730.8 -3561.7,828 l -0.6,0.1 c -495.5,39.2 -865.3,472.8 -826.1,968.3 39.3,495.5 472.9,865.3 968.4,826 h 0.5"
         style="fill:#5bafb2;fill-opacity:1;fill-rule:nonzero;stroke:none"
         id="path140" />
      <path
         d="m 33866.4,61138.7 c 724.3,-66.5 1448.3,-182.5 2160.7,-353.5 l 266.9,-65 c 88.6,-23.3 176.7,-48.6 265,-72.9 l 132.4,-37 66.1,-18.5 c 22.1,-6.1 43.8,-13.5 65.7,-20.2 l 262.2,-82.1 131,-41.3 129.7,-45.2 259.1,-90.8 c 43.4,-14.6 85.8,-31.6 128.5,-47.9 l 128,-49.3 127.9,-49.3 c 42.6,-16.7 85.6,-32.4 127.4,-50.6 l 252.3,-106.3 126,-53.4 124.3,-56.8 248.4,-113.7 31,-14.2 30.6,-15.1 61.1,-30 122.2,-60.3 122.2,-60.3 61,-30.2 60.1,-31.7 240.1,-127.1 c 80.6,-41.7 158.7,-86.7 237.4,-130.9 78.6,-44.4 157.5,-88.4 235.7,-133.3 l 231.6,-138.5 115.7,-69.3 c 38.2,-23.5 75.8,-47.8 113.7,-71.6 l 227.1,-143.9 c 38.1,-23.6 74.6,-48.9 112,-73.4 l 111.4,-74.1 111.5,-74.2 c 18.4,-12.4 37.2,-24.6 55.5,-37.2 l 54.6,-38.2 218.6,-152.5 54.6,-38.2 c 18.1,-12.8 35.8,-25.9 53.7,-38.9 l 107.2,-78.2 107.1,-78.2 c 35.6,-26.2 71.8,-51.9 106.6,-78.8 l 210.4,-159.6 c 34.9,-26.7 70.4,-53 104.8,-80.1 l 103.3,-81.3 206.4,-162.7 202.7,-165.3 101.4,-82.7 99.7,-83.7 199.2,-167.5 196.4,-169.1 c 65.3,-56.4 130.9,-112.7 194.8,-169.8 516,-454.9 1012.8,-918.9 1495.4,-1381.8 l 360.3,-346.7 355.7,-343.8 c 230.4,-222.6 462.3,-442.6 695.8,-660.1 467.4,-434.4 942.9,-857 1427.7,-1264.6 969.4,-815.1 1976.9,-1571.4 3020.1,-2240.4 521.7,-333.8 1051.6,-646.6 1588.9,-931.4 268.6,-142.4 538.8,-278.6 810.6,-406.4 271.9,-127.7 545.1,-248.4 819.3,-360.6 274.3,-111.6 549.6,-215 825.5,-309.1 34.4,-12.2 69,-22.9 103.5,-34.5 l 103.5,-34.2 103.6,-32.7 c 34.5,-11 69,-21.9 103.6,-31.9 l 103.6,-31.2 c 34.5,-10.6 69.1,-19.9 103.6,-29.9 34.5,-9.7 69.1,-20 103.6,-29.3 l 103.7,-27.8 51.8,-14.1 51.8,-13.1 103.6,-26.3 c 34.6,-8.7 69.1,-16.5 103.7,-24.8 34.5,-7.9 69,-16.8 103.5,-24.1 69.1,-14.9 138,-31.4 207,-44.7 l 103.5,-21.2 103.4,-19.2 c 275.5,-51.7 550.2,-90.5 823.4,-116.8 68.4,-7.3 136.4,-12.2 204.6,-17.7 34.1,-3.1 68,-4.6 102,-6.7 l 101.9,-6 c 135.6,-5.6 271,-10.8 405.5,-9.8 134.8,-0.7 268.6,4 402.2,9.8 133.2,8.2 266.2,17.1 398,32.3 132.2,13.3 263.1,32.7 393.7,52.9 l 97.6,17.2 c 32.5,5.9 65.2,10.8 97.4,17.9 64.6,13.3 129.5,25.1 193.6,40.5 257.3,58.1 511.6,128.3 761.2,215.8 249.8,87 495.8,187.5 737.5,302 l 22.8,10.5 22.5,11.2 45,22.3 90.2,44.4 89.3,46.9 44.7,23.3 c 15,7.7 29.9,15.5 44.6,23.8 118.3,64.8 236.1,131.6 352.1,202.8 464.8,283.4 910.5,618.4 1334.6,994.9 212,188.3 418.5,387.1 619.5,594.8 201.1,207.7 397.3,423.5 587.6,647.8 190,224.4 374.5,456.6 554.3,694.7 l 67.2,89.6 c 22.4,29.8 45,59.5 66.8,90.1 l 132,182 c 86.5,123.1 173.6,245.6 257.7,371.4 42.4,62.5 85,124.8 126.1,188.6 l 124.6,190.4 263.9,414.9 c 198.6,309.3 407.7,611.4 626.5,905.7 219.2,294 449.3,579.2 687.7,856.5 238.7,277.1 485.6,546.5 741.8,805.9 1025.1,1037.7 2179.6,1932.2 3416.4,2670.8 1236,741.1 2554.9,1324.9 3914.6,1761.5 1360.9,433.9 2764.5,718 4180.7,850.1 354.1,33.3 709,55.2 1064.1,70 l 133.2,4.9 c 44.4,1.7 88.8,3.5 133.2,4.1 l 266.5,5.5 c 177.7,1 355.3,2.5 533,-0.9 710.6,-9.1 1420.3,-59.3 2125.8,-142.6 688.1,-83.3 1378.7,-189.6 2071.8,-330.7 692.9,-140.8 1388,-317.9 2080,-542.3 774.1,-250.9 1198.3,-1081.8 947.4,-1855.9 -250.9,-774.1 -1081.8,-1198.2 -1855.9,-947.3 -7.1,2.3 -21.3,7.1 -28.3,9.5 -555.1,192.4 -1135.3,344.9 -1730.4,467.7 -595.2,122.4 -1205.6,214.2 -1823.3,283.9 -300.4,32.9 -601.6,57.6 -903.3,74.5 l -226.3,11.2 -226.5,7.2 -56.7,1.8 -56.6,0.8 -113.3,1.7 -113.3,1.6 -113.3,-0.2 c -151,0.9 -302.1,-2.8 -453.1,-5.7 l -226.4,-7.9 c -37.7,-1.1 -75.4,-3.2 -113.1,-5.2 l -113.1,-5.8 c -37.7,-2.1 -75.4,-3.6 -113.1,-6.1 l -113,-7.8 c -75.3,-5.3 -150.6,-9.8 -225.8,-16.9 -75.2,-6.7 -150.4,-12.6 -225.6,-19.9 l -225.1,-23.2 c -300,-33.4 -599.1,-74.5 -896.7,-123.1 l -223,-38 -222.2,-41.9 -55.5,-10.4 -55.4,-11.5 -110.7,-22.8 -110.6,-22.9 -110.3,-24.7 c -588.5,-129.5 -1168.4,-294.1 -1737.1,-487.4 -284.1,-97.4 -565.1,-202.9 -842.9,-315.5 l -104.1,-42.5 -52,-21.2 -51.6,-22.2 -206.3,-88.8 -204.7,-92.1 c -34.3,-15.1 -67.8,-31.5 -101.7,-47.3 l -101.5,-47.7 c -269.9,-128.6 -536,-264.4 -797.7,-407.4 -261.5,-143.2 -517.9,-294.8 -769.7,-452.7 -1007.2,-631.8 -1930.1,-1383.5 -2734.7,-2234.9 -402.2,-425.9 -773.7,-877.2 -1113,-1349.4 -168.9,-236.7 -329.4,-478.6 -481.3,-725.4 l -257.7,-422 c -46.7,-75.1 -94.3,-149.9 -141.5,-224.8 -46.8,-75 -95.6,-149.3 -144.2,-223.6 -387.1,-595.6 -810.2,-1177 -1271.3,-1738.3 -231.2,-280.3 -472.9,-555.3 -725.8,-823 -253.1,-267.6 -517.5,-528.3 -794.2,-779.7 -552.9,-502.9 -1156.7,-968.8 -1811.7,-1374.9 -163.4,-101.9 -330.8,-198.9 -500.2,-293 -21,-12 -42.4,-23.4 -63.8,-34.8 l -64.3,-34.2 -128.7,-68.3 -130.5,-65.5 -65.3,-32.7 -32.6,-16.3 -33.1,-15.7 c -351.4,-169.1 -713.6,-320.3 -1084.3,-450.6 -46.1,-16.9 -92.9,-32.1 -139.5,-47.6 l -140,-46.4 -141.1,-43.3 c -47.1,-14.2 -93.9,-29.2 -141.4,-42.1 -94.8,-26.3 -189.3,-54 -285,-77.4 l -143.1,-36.1 -143.9,-33.1 c -95.8,-22.7 -192.4,-41.4 -288.8,-61.1 -48.1,-10.2 -96.6,-18.2 -145,-27.1 -48.4,-8.7 -96.7,-17.6 -145.2,-25.8 -193.9,-31.1 -388.4,-59.5 -583.3,-79.6 -194.8,-22.1 -389.8,-36.1 -584.7,-47.7 -194.7,-9 -389.5,-15.9 -583.5,-14.6 -48.5,0.3 -97.1,-0.1 -145.5,0.9 l -145.1,3.3 -72.6,1.8 -72.3,3.1 -144.7,6.5 c -192.3,11.6 -384.2,25.5 -574.5,46.2 -47.5,5.2 -95.2,9.9 -142.7,15.6 l -142,17.8 -71,9.1 -70.6,10.2 -141.3,20.5 c -47,7.2 -93.6,15.3 -140.5,22.9 -46.7,8 -93.7,15.1 -140.1,24 -92.9,17.2 -186.3,33.6 -278.4,52.9 l -138.5,28.4 -137.6,30.5 c -92,19.8 -182.7,42.6 -273.9,64.3 -45.6,10.8 -90.5,23.1 -135.8,34.6 -45.2,11.8 -90.5,23.2 -135.5,35.4 l -134.6,37.2 -67.2,18.6 -66.8,19.6 c -356.5,104.3 -706.7,220.6 -1049.4,349.3 -342.6,128.6 -678.7,267.9 -1008.1,416.4 -329.2,148.8 -651.6,306.9 -968,472.6 -39.7,20.5 -79.1,41.3 -118.4,62.4 l -117.8,63.1 c -78.3,42.4 -156.2,85.2 -233.9,128.2 -154.9,86.8 -308.9,174.7 -460.9,264.7 -609.3,359 -1195.3,743.7 -1763.5,1145.2 -284.1,200.7 -563.4,406.1 -838.8,615 -137.9,104.2 -274.3,209.7 -410.3,315.7 -135.5,106.4 -270.3,213.5 -404.1,321.3 -535.6,431.2 -1056.6,874.9 -1566.2,1327.4 -509.6,452.6 -1007.5,914.4 -1496,1382.7 -244.3,234.1 -486,470.1 -725,707.8 l -348.5,346.5 c -115.4,114.3 -231.1,228.6 -346.3,341.1 -115.3,113.6 -230.5,224.9 -345.7,336.7 -57.6,56.3 -115.3,110.7 -172.9,166.1 -57.7,54.9 -115.2,110.9 -173,165 -115.5,108.7 -231.2,218 -347.4,324.1 -58.1,53.3 -115.9,107.4 -174.2,159.9 l -174.9,157.5 c -58.2,52.9 -116.9,104.1 -175.6,155.5 l -175.9,154.2 -177.2,150.9 -88.7,75.4 -89.3,73.6 -178.6,147.2 -180.1,143.5 -90,71.8 c -30,23.9 -60.5,46.6 -90.7,69.9 l -181.7,139.4 c -486.9,366 -986.2,701.5 -1499.2,1001.7 l -193.7,109.1 c -64.6,36.3 -128.8,73.6 -194.5,106.9 l -196,102.9 -48.9,25.8 -49.6,24.2 -99.1,48.4 -99,48.5 -49.5,24.3 -24.8,12.1 -25.1,11.3 -200.3,90.5 -100.2,45.3 -101.3,42 -202.5,84 c -1085,432.6 -2228.1,689.8 -3401,766.7 -812,53.2 -1427.2,754.6 -1374,1566.6 53.2,812.1 754.7,1427.2 1566.7,1374 10.5,-0.7 21,-1.5 31.5,-2.4 l 8.6,-0.8"
         style="fill:#ffffff;fill-opacity:1;fill-rule:nonzero;stroke:none"
         id="path142" />
      <path
         d="M 26880.8,12551.1 51045,16875 67380,60860.7"
         style="fill:none;stroke:#ffffff;stroke-width:800;stroke-linecap:round;stroke-linejoin:round;stroke-miterlimit:10;stroke-dasharray:none;stroke-opacity:1"
         id="path144" />
      <path
         d="m 33821.1,60567.2 c 696.9,-68.6 1391.4,-182.3 2074.3,-347.5 682.8,-165 1354.3,-379.7 2003.9,-643.7 649,-265.4 1277.2,-576 1879.6,-923.4 600.7,-350.1 1177.5,-733.5 1729.4,-1141.9 l 205.5,-154.5 c 34.2,-25.9 68.9,-51.3 102.5,-77.6 l 101.2,-78.8 202.1,-157.8 199.1,-160.5 99.6,-80.2 98.1,-81.4 196.1,-162.9 193.6,-164.8 c 64.4,-55 129.1,-109.9 192.3,-165.7 l 190.8,-166.8 c 63.6,-55.6 125.9,-112 188.9,-168 126.3,-111.7 249.6,-225.3 374.1,-337.9 247.2,-226.4 492.4,-453.6 734.4,-681.2 l 362.5,-340.8 359.5,-339 c 235.7,-221.5 473.4,-440.2 713.3,-655.9 240,-215.4 481.8,-428.3 726.5,-637.1 244.4,-209.1 490.8,-415.2 739.9,-617.2 995.6,-808.9 2027.6,-1561.2 3090.7,-2238.4 531.8,-338 1071.2,-657.5 1618.5,-952.2 547,-295.2 1102.2,-564.7 1664.1,-803.4 140.7,-58.9 281.5,-117 422.9,-172 l 106,-41.3 106.4,-39.9 c 70.8,-27 141.9,-52.1 212.9,-78.1 284.2,-101.8 570.2,-193.1 857.3,-274.1 287.1,-81.2 575.6,-149.5 864.4,-206 72.2,-14.9 144.5,-26.9 216.8,-40 36.1,-6.9 72.3,-11.9 108.4,-17.9 36.1,-5.7 72.3,-11.9 108.4,-17.2 l 108.4,-15.3 54.2,-7.7 54.2,-6.6 108.4,-13.4 c 36.1,-4.3 72.3,-7.6 108.4,-11.5 144.4,-15.6 288.7,-25.6 432.8,-34.3 144,-6.6 287.9,-12.3 431.3,-11.6 143.5,-1.2 286.3,3.9 429,10 142.3,8.5 284.5,18.1 425.6,34 141.5,14 281.8,34.6 421.9,56.3 l 104.6,18.3 c 34.9,6.3 69.9,11.7 104.5,19.1 69.3,14.3 139,27 207.8,43.4 l 103.6,23.3 102.9,25.8 c 68.9,16.3 136.7,36.4 205.1,54.8 34.2,8.9 67.9,19.9 101.8,29.9 l 101.7,30.7 100.9,33.1 c 33.7,11.1 67.5,21.7 100.7,33.9 1072.9,369.1 2066.6,994.4 2951.9,1786 443.1,395.8 860.6,831.6 1253.1,1296.7 195.7,233.1 385.9,473 570.2,719 l 68.8,92.5 c 23,30.9 46.1,61.5 68.4,93 l 135,187.8 c 88.3,126.8 177.4,253.1 263,382.4 43.3,64.4 86.8,128.5 128.8,193.9 l 126.9,195.5 262.6,416.2 c 191.4,300.3 393,593.7 604.2,879.7 211.8,285.6 433.9,563 664.3,832.8 l 86.5,101.1 c 28.6,33.9 58.7,66.5 87.9,99.7 l 88.5,99.3 44.2,49.7 45,48.8 c 60.3,65 120.2,130.2 180.8,194.8 l 184.4,191.2 c 991.9,1011 2112.2,1885.3 3315.9,2607 1202.9,724.3 2489,1296.3 3816.8,1721.2 1328.7,423.2 2701,696.4 4084.3,819.2 345.8,31.3 692.4,51.1 1039.1,63.1 l 130.1,4 c 43.3,1.3 86.7,2.8 130,3.1 l 260.2,3.7 c 173.4,-0.1 346.7,0.3 520.1,-4.2 693.3,-13.1 1385.2,-68.1 2072.1,-156.3 337.8,-44.7 675.1,-95.9 1012.6,-154.1 l 126.5,-21.8 126.5,-23.2 126.4,-23.4 c 42.2,-7.7 84.3,-16.4 126.5,-24.6 84.2,-16.7 168.4,-33.1 252.6,-51.3 84.2,-17.9 168.4,-35.2 252.5,-54.5 336.5,-74.8 672.3,-158.5 1006.5,-253.2 334.3,-94.5 667,-199.8 996.8,-317.4 468.2,-167.1 712.3,-682.1 545.3,-1150.4 -162.5,-455.4 -654.2,-698.8 -1111.8,-558.1 l -5.8,1.9 c -1175.2,363.3 -2417.7,574.5 -3678.7,701 -1238.7,122.9 -2488.7,112.9 -3721.8,-27.6 -308.2,-35.6 -615.4,-79 -921.1,-130.3 l -229,-40 -228.2,-43.8 -57.1,-10.9 -56.8,-11.9 -113.7,-23.8 -113.7,-23.9 -113.3,-25.6 c -302.1,-67.6 -602.5,-142.9 -899.9,-227.7 -297.5,-84.3 -592.8,-176 -885.1,-275.6 -292.1,-100.3 -581.1,-208.7 -867,-324.3 l -107,-43.7 -53.6,-21.8 -53.1,-22.7 -212.4,-91.1 -210.8,-94.5 c -35.3,-15.4 -69.9,-32.3 -104.8,-48.5 l -104.5,-49 c -278.2,-131.6 -552.5,-270.9 -822.3,-417.6 -269.7,-147.1 -534.5,-302.4 -794.5,-464.5 -1040.3,-648.7 -1997.4,-1420.6 -2835.3,-2298.7 -209.5,-219.5 -410.6,-446.2 -604.4,-678.7 -193.5,-232.6 -379.6,-471 -556.4,-715.8 -176.5,-244.9 -344.6,-495.5 -503.7,-751.4 l -258.9,-420.7 c -45.9,-73.4 -92.8,-146.4 -139.1,-219.6 -23.4,-36.5 -46.1,-73.4 -70.2,-109.5 l -71.5,-108.9 c -94.6,-145.6 -193.4,-289.1 -291.7,-432.9 l -150.7,-214 c -24.9,-35.8 -50.9,-71 -76.6,-106.3 l -77.3,-106.1 c -207.3,-282 -422.4,-560 -647.5,-832 -451,-543.3 -939.7,-1064.6 -1474,-1548.6 -534.1,-483.7 -1114.2,-930.3 -1740.8,-1318.3 -156.3,-97.3 -316.3,-189.8 -478.1,-279.6 -20.1,-11.4 -40.5,-22.3 -61,-33.2 l -61.3,-32.6 -122.9,-65.1 -124.4,-62.5 -62.3,-31.1 -31.1,-15.6 -31.5,-14.9 c -335,-161.2 -679.9,-305.1 -1032.5,-429.2 -43.9,-16.2 -88.4,-30.6 -132.7,-45.4 l -133.2,-44.1 -134.2,-41.1 c -44.8,-13.5 -89.3,-27.9 -134.5,-40.1 -90.2,-25 -180,-51.3 -271,-73.6 l -136.1,-34.5 -136.8,-31.4 c -91.1,-21.8 -183,-39.5 -274.6,-58.4 -45.8,-9.8 -91.9,-17.4 -137.9,-25.9 -46,-8.2 -92,-16.7 -138.1,-24.6 -184.6,-29.6 -369.6,-56.9 -555.2,-76.3 -185.4,-21.3 -371.3,-34.6 -557,-45.8 -185.7,-8.8 -371.5,-15.3 -556.7,-14.4 -185.4,-1 -370.1,5.4 -554.4,13.7 -184.1,10.4 -367.8,23.2 -550.2,42.3 -45.6,4.7 -91.4,9 -136.9,14.2 l -136.3,16.4 -68.2,8.3 -67.8,9.5 -135.7,19.1 c -45.2,6.7 -90.1,14.2 -135.1,21.2 -45,7.4 -90.2,13.9 -134.8,22.2 -89.5,16.1 -179.4,31.2 -268.2,49.3 -356.3,69.4 -708.1,152.7 -1053.7,250.1 -345.7,97.1 -686.5,205.5 -1020.7,326.7 -83.3,30.7 -167.2,60.3 -249.7,92.6 l -124.1,47.7 -123.3,49.1 c -164.6,65.2 -326.8,134.5 -488.4,204.8 -644.6,284 -1266.2,604.8 -1864.8,954.6 -599.3,349.2 -1175.8,727 -1733.9,1124.4 -1115.7,795.8 -2155.6,1670.4 -3148.8,2581.5 -496.6,455.7 -981.2,921.2 -1457.3,1392.9 -237.8,235.9 -473.8,473.2 -707.5,712 l -344.7,351.3 c -114.5,116.2 -229.4,232.2 -344.1,347.1 -114.7,115.5 -230,228.9 -345.2,342.8 -57.4,57.3 -115.6,112.9 -173.4,169.3 -57.9,56 -115.6,112.9 -173.8,168.3 -116.2,111 -232.6,222.6 -349.9,331.4 -58.7,54.5 -117,109.9 -175.9,163.8 l -177.1,161.4 c -58.9,54.3 -118.5,106.9 -178.1,159.8 -59.5,52.8 -118.9,106.1 -178.7,158.4 l -180.4,155.5 -90.2,77.7 -91.1,76.1 -182.3,152 -184.2,148.5 -92.2,74.2 c -30.7,24.8 -62.1,48.3 -93.1,72.5 l -186.5,144.4 c -30.9,24.4 -62.7,47.2 -94.1,70.7 l -94.5,70 -94.4,70.1 c -15.8,11.6 -31.4,23.5 -47.3,34.8 l -47.9,33.9 -191.3,135.6 -47.9,33.8 c -15.9,11.3 -32.2,21.9 -48.3,32.9 l -97,65.3 -97,65.3 c -32.4,21.6 -64.3,44.2 -97.2,64.7 l -196.6,125.5 c -32.8,20.8 -65.4,42.1 -98.4,62.5 l -99.6,60 -199.2,119.9 c -535.2,311.7 -1088.2,585.6 -1657.3,815.2 -1139.3,455.8 -2345.6,726.3 -3573.4,799.1 -496.3,29.5 -874.7,455.6 -845.3,951.9 29.4,496.3 455.6,874.7 951.9,845.3 10.5,-0.6 20.9,-1.4 31.2,-2.4 l 4.4,-0.4"
         style="fill:#5bafb2;fill-opacity:1;fill-rule:nonzero;stroke:none"
         id="path146" />
      <path
         d="m 44720,37590 c 0,-1088 -882,-1970 -1970,-1970 -1088,0 -1970,882 -1970,1970 0,1088 882,1970 1970,1970 1088,0 1970,-882 1970,-1970 z"
         style="fill:none;stroke:#ffffff;stroke-width:600;stroke-linecap:round;stroke-linejoin:round;stroke-miterlimit:10;stroke-dasharray:none;stroke-opacity:1"
         id="path148" />
      <path
         d="M 44780,36910 56974.6,32841.9 66186.5,13372.5"
         style="fill:none;stroke:#ffffff;stroke-width:800;stroke-linecap:round;stroke-linejoin:round;stroke-miterlimit:10;stroke-dasharray:none;stroke-opacity:1"
         id="path150" />
      <path
         d="M 28580,43470 40930.1,38345.2"
         style="fill:none;stroke:#ffffff;stroke-width:600;stroke-linecap:round;stroke-linejoin:round;stroke-miterlimit:10;stroke-dasharray:none;stroke-opacity:1"
         id="path152" />
      <path
         d="M 43021.1,35638.5 45758.6,15929.1"
         style="fill:none;stroke:#ffffff;stroke-width:600;stroke-linecap:round;stroke-linejoin:round;stroke-miterlimit:10;stroke-dasharray:none;stroke-opacity:1"
         id="path154" />
      <path
         d="M 36412.9,11536.8 35940,6970"
         style="fill:none;stroke:#ffffff;stroke-width:500;stroke-linecap:round;stroke-linejoin:round;stroke-miterlimit:10;stroke-dasharray:none;stroke-opacity:1"
         id="path156" />
    </g>
  </g>
</svg>
